<svg viewBox="0 0 900 1600" preserveAspectRatio="xMidYMid slice" xmlns="http://www.w3.org/2000/svg" aria-hidden="true">
  <style>
    .contour-minor { fill: none; stroke: var(--line-soft); stroke-width: 1; opacity: 0.3; }
    .contour-index { fill: none; stroke: var(--line); stroke-width: 1.1; opacity: 0.42; }
    .contour-label {
      font-family: 'Noto Sans Miao', -apple-system, 'Segoe UI', sans-serif;
      font-size: 8px;
      letter-spacing: 0.02em;
      fill: var(--ink-muted);
      stroke: var(--bg);
      stroke-width: 3px;
      paint-order: stroke fill;
      text-anchor: middle;
      opacity: 0.55;
    }
  </style>
  <g class="contour-minor">
    <path d="M0.0,697.8L69.0,727.3L119.1,744.3L134.4,753.7L132.4,769.4L149.7,819.8L198.5,918.6L211.6,938.8L238.2,954.2L251.5,957.3L264.7,955.1L268.0,952.1L283.5,925.6L294.3,912.4L299.3,899.2L300.7,886.0L298.1,872.7L297.7,846.3L292.7,833.1L280.4,819.8L260.8,806.6L251.9,793.4L264.7,771.9L270.4,753.7L273.5,727.3L269.1,700.8L265.1,687.6L257.1,674.4L253.6,661.2L259.7,647.9L279.1,634.7L285.2,621.5L288.0,608.3L288.6,568.6L285.8,555.4L277.9,542.3L264.7,539.7L251.5,544.5L221.4,568.6L198.5,595.2L185.3,595.9L172.1,586.5L158.8,580.7L119.1,571.6L66.2,574.5L26.5,587.9L0.0,588.8" />
    <path d="M542.6,643.9L531.3,647.9L518.0,661.2L510.3,674.4L489.7,698.5L485.8,714.0L485.4,727.3L493.9,753.7L501.0,793.4L509.0,819.8L510.7,846.3L521.2,912.4L527.8,938.8L533.4,952.1L522.6,978.5L501.8,1005.0L492.6,1031.4L490.0,1044.6L497.4,1097.5L486.9,1124.0L485.1,1137.2L485.7,1163.6L489.7,1179.5L502.9,1212.5L512.3,1229.8L542.6,1270.1L577.2,1309.1L622.1,1338.2L635.3,1342.3L661.8,1343.2L675.0,1340.4L688.2,1330.2L696.8,1309.1L703.9,1269.4L706.5,1243.0L702.2,1229.8L689.5,1203.3L678.7,1150.4L683.5,1137.2L684.6,1124.0L682.5,1110.7L672.2,1084.3L677.2,1071.1L688.5,1057.9L702.6,1018.2L702.9,1005.0L710.6,965.3L713.5,938.8L728.0,872.7L727.0,859.5L714.7,826.5L701.5,804.9L682.2,780.2L674.9,766.9L679.7,740.5L672.7,714.0L662.8,700.8L641.4,687.6L631.9,661.2L624.8,647.9L608.8,640.7L569.1,637.6L555.9,638.8L542.6,643.9" />
    <path d="M0.0,1045.4L13.2,1039.7L22.0,1031.4L28.7,1005.0L29.8,991.7L26.5,986.3L13.2,978.5L16.8,965.3L9.5,925.6L0.0,915.1" />
    <path d="M0.0,1471.8L20.1,1481.0L66.2,1489.6L79.4,1487.3L105.9,1478.4L172.1,1474.8L238.2,1467.6L264.7,1455.5L277.9,1452.1L291.2,1458.1L304.4,1461.0L317.6,1462.5L330.9,1460.1L344.1,1465.6L357.4,1466.9L370.6,1464.0L383.8,1464.6L397.1,1469.1L423.5,1466.2L428.7,1467.8L436.8,1495.8L451.5,1507.4L476.5,1515.0L502.9,1518.9L516.2,1517.3L531.4,1507.4L536.5,1494.2L535.2,1481.0L530.2,1467.8L521.5,1454.5L508.6,1441.3L463.2,1417.9L450.0,1413.3L439.3,1414.9L436.8,1421.5L436.3,1414.9L410.3,1390.4L397.3,1375.2L370.6,1367.6L364.8,1362.0L364.1,1348.8L357.4,1336.0L344.1,1322.5L317.6,1265.9L297.1,1229.8L291.2,1210.9L273.5,1176.9L268.8,1163.6L264.7,1141.0L251.5,1100.4L241.8,1084.3L225.0,1071.8L211.8,1078.8L198.5,1113.4L185.3,1120.8L172.1,1119.7L158.8,1123.5L142.0,1137.2L132.4,1147.9L124.5,1163.6L119.8,1190.1L114.2,1203.3L108.0,1229.8L92.6,1257.3L79.4,1269.9L74.4,1282.6L73.9,1295.9L69.9,1309.1L39.7,1343.8L13.2,1369.6L0.0,1379.8" />
    <path d="M900.0,1450.6L882.7,1467.8L877.1,1481.0L875.9,1494.2L876.5,1507.4L880.6,1520.7L886.8,1528.6L900.0,1539.7" />
    <path d="M542.6,78.6L529.4,87.5L522.1,105.8L524.8,119.0L529.4,123.1L542.6,116.7L547.4,105.8L549.0,92.6L542.6,78.6" />
    <path d="M0.0,716.5L27.4,727.3L79.4,743.1L105.9,747.1L116.7,753.7L111.6,766.9L111.7,780.2L119.1,808.4L183.8,925.6L211.8,959.1L225.0,969.2L251.5,980.4L264.7,978.6L277.9,967.8L283.0,952.1L291.2,938.8L304.4,924.6L315.5,899.2L316.9,886.0L314.3,872.7L314.9,859.5L318.2,846.3L316.0,833.1L304.4,815.7L294.8,806.6L277.9,800.6L270.2,793.4L286.3,740.5L287.0,727.3L285.3,714.0L280.9,700.8L268.3,674.4L271.2,661.2L277.9,657.0L291.2,653.3L298.3,647.9L304.4,639.2L317.2,595.0L322.0,555.4L325.4,502.5L323.3,489.3L317.6,474.7L304.4,468.4L291.2,470.1L277.9,478.0L251.5,504.0L215.8,555.4L198.5,574.2L185.3,581.5L169.9,568.6L119.1,555.5L66.2,558.4L39.7,567.2L26.5,574.8L13.2,576.2L4.4,568.6L4.4,555.4L0.0,538.8" />
    <path d="M502.9,633.6L492.4,647.9L482.0,674.4L472.4,687.6L466.7,700.8L464.3,714.0L464.6,727.3L467.1,740.5L476.5,759.6L494.7,806.6L498.6,846.3L506.2,886.0L509.1,912.4L520.2,952.1L506.1,978.5L486.1,1005.0L475.9,1031.4L473.3,1044.6L473.0,1071.1L475.2,1084.3L481.5,1097.5L479.8,1110.7L475.0,1124.0L470.8,1163.6L472.6,1176.9L476.7,1190.1L496.2,1229.8L561.0,1309.1L576.8,1322.3L595.6,1331.8L622.1,1350.8L635.3,1354.9L675.0,1359.5L688.2,1355.2L698.2,1348.8L707.2,1335.5L706.2,1295.9L714.7,1270.1L723.0,1256.2L722.3,1243.0L717.5,1229.8L698.1,1203.3L695.3,1163.6L692.2,1150.4L697.2,1137.2L697.7,1124.0L695.6,1110.7L684.3,1084.3L701.5,1057.9L716.7,1018.2L724.2,991.7L728.1,965.3L725.1,938.8L735.3,899.2L741.2,884.0L743.4,872.7L742.5,859.5L732.9,833.1L723.7,819.8L710.5,793.4L697.4,780.2L689.9,766.9L691.4,740.5L686.8,714.0L680.2,700.8L659.6,687.6L648.5,675.8L648.8,647.9L635.3,630.1L622.1,624.4L608.8,627.4L595.6,623.7L582.4,623.4L555.9,627.9L529.4,622.2L516.2,625.5L502.9,633.6" />
    <path d="M900.0,712.0L892.9,740.5L900.0,777.3" />
    <path d="M0.0,1055.7L13.2,1055.7L26.5,1049.1L39.7,1032.5L52.9,1022.9L56.1,1018.2L58.8,1005.0L56.4,991.7L52.9,984.8L37.7,965.3L37.5,938.8L28.7,912.4L14.0,899.2L0.0,891.8" />
    <path d="M0.0,1489.2L52.9,1501.8L66.2,1507.0L79.4,1505.1L105.9,1493.4L119.1,1490.5L158.8,1488.8L225.0,1480.9L238.2,1478.2L264.7,1465.5L277.9,1464.9L291.2,1469.2L317.6,1471.9L330.9,1470.7L357.4,1479.0L383.8,1476.8L397.1,1477.9L405.3,1481.0L396.3,1494.2L410.3,1508.4L432.1,1520.7L450.0,1526.9L502.9,1539.2L529.4,1538.1L542.8,1533.9L557.3,1520.7L566.3,1507.4L570.6,1494.2L568.3,1481.0L560.7,1467.8L537.5,1441.3L522.0,1428.1L494.8,1414.9L476.5,1399.3L423.5,1367.1L410.3,1353.3L397.1,1347.0L383.8,1352.1L381.0,1348.8L380.4,1335.5L373.0,1322.3L363.9,1309.1L330.9,1272.0L323.2,1256.2L306.0,1229.8L286.7,1190.1L276.6,1163.6L272.7,1110.7L263.7,1084.3L251.5,1064.7L238.2,1048.3L225.0,1040.5L211.8,1041.6L197.7,1057.9L189.5,1097.5L185.3,1106.0L172.1,1106.2L158.6,1110.7L138.8,1124.0L119.1,1145.6L113.1,1163.6L112.9,1176.9L105.9,1193.3L101.7,1216.5L96.4,1229.8L92.6,1236.3L79.4,1244.4L66.4,1256.2L51.5,1282.6L51.5,1295.9L56.5,1309.1L35.2,1335.5L0.0,1364.3" />
    <path d="M900.0,1429.6L886.8,1445.0L873.1,1454.5L857.6,1481.0L856.0,1494.2L856.7,1520.7L865.8,1547.1L873.5,1556.1L900.0,1575.1" />
    <path d="M542.6,16.9L525.0,39.7L529.4,47.1L548.1,39.7L551.0,26.4L542.6,16.9" />
    <path d="M92.6,36.6L85.5,39.7L83.0,52.9L92.6,58.7L97.7,66.1L100.2,79.3L105.9,92.2L119.1,102.5L132.4,103.7L145.6,95.2L157.6,105.8L162.4,105.8L172.1,101.2L190.2,79.3L187.1,66.1L172.1,60.9L158.8,50.4L145.6,48.2L132.4,36.6L105.9,32.1L92.6,36.6" />
    <path d="M529.4,58.3L526.5,66.1L516.2,77.2L501.5,105.8L497.0,119.0L499.3,132.2L502.9,137.3L516.2,148.2L529.4,151.1L542.6,148.3L562.2,119.0L563.0,105.8L567.0,92.6L566.6,79.3L562.3,66.1L555.9,62.4L529.4,58.3" />
    <path d="M900.0,111.7L886.8,128.2L868.2,132.2L859.2,145.5L860.3,162.1L864.3,171.9L873.5,182.7L886.8,190.6L900.0,186.7" />
    <path d="M79.4,302.2L66.2,307.8L59.5,317.4L57.2,330.6L60.2,343.8L69.3,357.0L79.4,365.5L92.6,372.6L105.9,371.8L120.1,357.0L122.1,343.8L119.1,327.0L105.9,310.1L92.6,302.8L79.4,302.2" />
    <path d="M489.7,342.2L486.2,343.8L476.5,358.2L483.6,370.2L489.7,374.6L502.9,374.0L505.8,370.2L507.2,357.0L502.9,347.8L489.7,342.2" />
    <path d="M0.0,1500.0L26.5,1504.7L52.9,1513.1L66.2,1520.5L79.4,1519.0L119.1,1502.3L158.8,1499.6L225.0,1488.7L251.3,1481.0L264.7,1474.2L277.9,1472.5L291.2,1475.7L304.4,1475.4L317.6,1478.8L330.9,1478.5L337.4,1481.0L347.9,1494.2L357.4,1502.4L433.4,1533.9L476.5,1542.2L502.9,1554.1L542.6,1550.2L555.9,1542.1L574.4,1520.7L582.6,1507.4L587.6,1494.2L589.4,1481.0L583.0,1467.8L541.6,1428.1L522.2,1414.9L502.9,1405.0L484.9,1388.4L463.2,1377.5L450.0,1364.5L423.5,1347.6L410.5,1335.5L397.1,1333.3L370.6,1296.7L345.1,1269.4L313.4,1229.8L299.6,1203.3L289.2,1176.9L286.0,1150.4L288.4,1124.0L294.6,1110.7L292.7,1097.5L277.9,1086.3L265.9,1071.1L261.3,1057.9L270.1,1044.6L277.5,1018.2L279.3,1005.0L275.1,991.7L290.5,965.3L290.4,952.1L298.3,952.1L306.1,965.3L317.6,970.1L331.9,952.1L333.6,938.8L331.7,925.6L325.2,912.4L329.5,886.0L327.0,859.5L329.4,833.1L324.3,819.8L317.6,810.9L304.4,798.7L289.4,793.4L284.7,780.2L286.0,766.9L295.3,740.5L295.6,727.3L294.5,714.0L282.6,687.6L280.9,674.4L291.2,667.2L306.0,661.2L317.3,647.9L330.9,607.3L337.2,542.1L335.5,528.9L344.1,502.5L344.5,489.3L337.1,449.6L331.2,436.4L317.6,426.6L304.4,424.7L291.2,428.2L277.9,437.5L256.0,476.0L212.9,528.9L196.8,555.4L185.3,565.7L177.7,555.4L172.1,552.5L145.6,549.7L119.1,543.5L105.9,543.7L66.2,549.6L45.5,555.4L26.5,564.8L15.5,555.4L0.0,507.7" />
    <path d="M529.4,607.8L516.2,609.1L502.9,613.7L489.7,623.6L476.5,647.2L466.9,674.4L451.3,700.8L449.0,714.0L450.0,731.6L456.5,753.7L462.9,766.9L476.5,785.0L485.3,806.6L489.7,847.2L495.7,872.7L499.7,912.4L508.2,938.8L508.2,952.1L502.3,965.3L495.4,978.5L481.8,991.7L473.3,1005.0L462.4,1031.4L459.6,1044.6L455.8,1071.1L457.3,1084.3L470.9,1110.7L467.1,1124.0L467.2,1137.2L459.2,1163.6L459.9,1176.9L463.2,1190.6L483.3,1229.8L522.9,1269.4L542.6,1300.8L555.9,1315.3L582.4,1334.8L595.6,1341.1L608.8,1352.6L622.1,1359.7L635.3,1364.2L675.0,1372.2L688.2,1370.3L701.5,1364.7L714.7,1352.2L721.0,1335.5L721.8,1322.3L713.9,1309.1L711.4,1295.9L714.7,1288.2L727.9,1289.6L741.2,1284.4L745.0,1269.4L742.9,1256.2L736.6,1243.0L727.9,1228.9L706.2,1203.3L703.8,1190.1L704.2,1176.9L712.5,1137.2L711.4,1124.0L707.5,1110.7L693.0,1084.3L716.2,1044.6L736.1,991.7L738.1,965.3L733.0,938.8L735.8,925.6L747.0,899.2L754.9,872.7L754.1,859.5L744.0,833.1L735.7,819.8L725.0,793.4L700.7,766.9L698.9,753.7L700.1,727.3L694.5,700.8L688.2,692.8L661.8,680.1L656.2,674.4L659.3,661.2L659.6,647.9L654.8,634.7L648.5,625.2L635.3,615.5L622.1,613.7L608.8,617.5L595.6,608.8L555.9,617.4L542.6,609.7L529.4,607.8" />
    <path d="M900.0,689.1L881.8,700.8L872.0,714.0L870.1,727.3L874.6,740.5L886.8,755.7L900.0,787.6" />
    <path d="M0.0,728.1L36.5,740.5L79.4,752.0L103.9,753.7L96.7,766.9L106.4,819.8L171.3,925.6L196.6,952.1L211.8,971.6L235.1,991.7L225.9,1005.0L211.8,1013.3L185.3,1034.7L179.8,1044.6L176.8,1071.1L172.1,1076.7L168.2,1097.5L144.3,1110.7L127.1,1124.0L115.2,1137.2L107.6,1150.4L104.5,1163.6L104.0,1176.9L97.2,1190.1L92.6,1218.6L79.4,1230.9L66.2,1236.3L58.6,1243.0L39.8,1269.4L19.6,1309.1L26.7,1322.3L18.8,1335.5L13.2,1338.5L0.0,1335.1" />
    <path d="M0.0,1074.0L26.5,1060.5L39.7,1048.6L52.9,1043.6L66.2,1032.0L72.6,1018.2L74.5,1005.0L72.3,991.7L66.8,978.5L55.4,965.3L50.0,952.1L50.5,925.6L47.7,912.4L40.4,899.2L22.3,886.0L0.0,874.5" />
    <path d="M900.0,1068.5L874.9,1084.3L869.0,1097.5L867.6,1110.7L870.2,1124.0L885.6,1137.2L889.0,1150.4L900.0,1167.7" />
    <path d="M900.0,1411.6L889.9,1428.1L862.7,1454.5L847.1,1474.6L843.8,1481.0L842.6,1520.7L843.8,1533.9L853.9,1560.3L873.5,1580.5L900.0,1598.6" />
    <path d="M79.4,13.0L66.2,13.6L51.9,26.4L48.1,39.7L51.3,52.9L66.2,87.3L79.4,102.2L92.6,98.9L96.5,105.8L127.4,132.2L132.4,140.5L145.6,150.0L151.1,145.5L157.3,132.2L185.3,116.8L198.5,121.0L211.8,129.1L225.0,112.7L228.2,105.8L228.8,92.6L238.2,83.0L251.5,84.1L263.6,79.3L262.3,66.1L251.5,55.4L238.2,56.4L226.0,39.7L211.8,33.6L198.5,32.2L172.1,33.8L132.4,10.9L105.9,9.6L79.4,13.0" />
    <path d="M511.5,0.0L500.0,26.4L489.7,41.5L450.0,48.1L436.8,52.6L417.3,66.1L402.7,105.8L402.0,119.0L404.4,132.2L410.3,138.7L423.5,137.2L436.8,128.7L440.4,132.2L442.1,145.5L450.0,158.2L463.2,158.3L476.5,152.8L485.5,158.7L516.2,170.5L542.6,175.9L555.9,173.3L569.1,164.3L586.9,158.7L598.7,145.5L603.6,132.2L601.2,119.0L608.8,96.3L613.2,92.6L622.1,90.8L635.3,83.4L648.5,67.9L655.8,52.9L661.8,31.5L662.4,13.2L660.5,0.0" />
    <path d="M575.9,0.0L577.7,26.4L582.4,33.1L588.5,26.4L591.1,13.2L590.4,0.0" />
    <path d="M900.0,39.8L899.6,26.4L886.8,21.0L873.5,20.6L863.2,26.4L860.3,29.0L848.1,52.9L845.6,66.1L837.0,79.3L820.6,97.3L809.7,105.8L820.6,115.1L822.1,119.0L820.6,124.8L807.4,110.2L794.1,117.3L783.3,132.2L786.0,145.5L794.1,152.5L807.4,156.4L820.6,146.1L833.8,149.1L841.3,158.7L848.5,185.1L833.8,195.4L832.7,211.6L838.5,224.8L860.3,245.7L868.6,238.0L886.8,232.2L900.0,225.5" />
    <path d="M317.6,129.6L315.2,132.2L312.3,145.5L314.5,158.7L317.6,164.9L330.9,169.3L341.7,158.7L330.0,145.5L323.5,132.2L317.6,129.6" />
    <path d="M238.2,141.3L225.0,147.0L212.5,158.7L214.8,171.9L225.0,186.3L238.2,193.4L251.5,196.3L264.7,185.7L266.1,171.9L264.7,165.1L253.9,145.5L238.2,141.3" />
    <path d="M357.4,141.2L345.0,158.7L356.4,171.9L370.6,170.4L383.5,158.7L383.7,145.5L370.6,136.1L357.4,141.2" />
    <path d="M661.8,230.9L648.5,243.9L643.5,264.5L644.3,277.7L648.5,297.0L653.2,304.1L649.7,317.4L655.0,330.6L661.8,343.1L675.0,346.7L678.1,343.8L681.9,330.6L682.2,317.4L675.0,307.7L668.7,304.1L666.1,290.9L675.0,275.5L681.8,251.2L678.9,238.0L675.0,231.8L661.8,230.9" />
    <path d="M52.9,276.1L39.7,281.2L26.5,290.1L17.8,304.1L16.3,317.4L18.8,330.6L24.6,343.8L35.3,357.0L50.4,370.2L55.8,383.5L64.2,396.7L79.4,414.3L92.6,425.0L105.9,429.6L119.1,427.2L124.5,423.1L133.8,409.9L136.0,396.7L135.6,383.5L144.9,357.0L141.1,330.6L148.5,317.4L145.6,296.7L132.4,278.1L119.1,272.3L105.9,273.3L92.6,277.6L79.4,274.9L52.9,276.1" />
    <path d="M754.4,277.5L741.2,281.1L736.6,290.9L721.1,304.1L709.7,317.4L707.6,330.6L710.0,343.8L714.7,349.7L727.9,356.4L741.2,358.8L759.0,357.0L780.6,343.8L786.0,330.6L786.0,317.4L780.9,302.1L767.6,284.0L754.4,277.5" />
    <path d="M476.5,314.1L463.2,322.1L444.8,343.8L442.8,357.0L444.1,370.2L450.0,388.5L476.5,438.3L489.7,450.6L502.9,453.9L516.2,447.6L529.4,435.9L534.6,423.1L541.1,396.7L542.6,370.0L534.3,343.8L517.6,317.4L502.9,312.0L476.5,314.1" />
    <path d="M0.0,1527.1L13.2,1513.6L39.7,1530.4L66.2,1541.6L79.4,1541.5L119.1,1525.5L145.6,1520.4L198.5,1505.6L257.5,1494.2L277.9,1485.0L291.2,1487.6L304.4,1487.6L314.3,1494.2L323.4,1507.4L340.1,1520.7L357.4,1526.1L383.8,1530.4L397.1,1536.6L423.5,1542.1L436.8,1548.4L463.2,1551.3L476.5,1562.6L489.7,1570.0L502.9,1574.3L516.2,1574.6L542.6,1567.6L559.5,1560.3L582.4,1536.6L595.6,1528.6L603.4,1520.7L609.6,1507.4L608.7,1494.2L615.6,1481.0L611.9,1467.8L599.7,1454.5L582.4,1443.6L567.2,1428.1L550.4,1414.9L529.4,1402.1L516.2,1397.7L497.3,1375.2L476.4,1362.0L463.2,1345.5L450.0,1332.8L436.8,1325.4L423.5,1323.0L397.1,1306.9L383.8,1288.8L365.2,1269.4L344.1,1239.0L317.5,1216.5L314.8,1203.3L320.5,1176.9L319.9,1163.6L311.2,1137.2L330.2,1124.0L336.0,1110.7L337.8,1084.3L336.5,1071.1L330.9,1062.5L324.3,1057.9L304.4,1051.1L292.4,1044.6L304.4,1034.8L300.8,1005.0L304.4,1000.0L317.6,1000.9L330.9,994.4L344.1,980.8L355.6,965.3L359.4,952.1L360.5,925.6L350.2,899.2L353.3,872.7L351.7,846.3L348.9,833.1L344.6,819.8L335.8,806.6L309.1,780.2L303.3,753.7L308.0,740.5L306.6,714.0L299.7,700.8L295.6,687.6L304.4,679.4L317.6,672.8L331.6,661.2L337.8,647.9L349.0,608.3L346.3,581.8L353.2,555.4L353.9,542.1L349.7,528.9L359.6,502.5L361.3,476.0L358.6,436.4L355.3,423.1L348.7,409.9L317.6,365.2L304.4,356.1L291.2,359.1L277.9,371.2L264.7,390.2L251.5,426.7L246.4,462.8L211.8,505.0L185.3,530.2L158.8,527.5L132.4,528.3L119.1,524.2L105.9,524.3L66.2,537.7L52.9,544.1L39.7,547.7L26.5,548.7L22.6,542.1L22.0,528.9L24.6,515.7L20.8,502.5L0.0,475.2" />
    <path d="M900.0,470.8L886.8,482.6L874.4,489.3L860.1,502.5L851.3,515.7L848.3,528.9L854.4,542.1L860.3,546.8L873.5,552.6L886.8,554.1L900.0,552.8" />
    <path d="M555.9,541.9L544.8,555.4L555.9,566.7L569.1,568.4L573.1,555.4L569.1,545.1L555.9,541.9" />
    <path d="M489.7,594.8L476.5,607.4L465.4,621.5L451.2,647.9L444.7,674.4L428.3,714.0L426.9,727.3L428.8,740.5L433.5,753.7L448.8,780.2L461.7,793.4L471.9,819.8L481.1,859.5L485.4,912.4L494.9,938.8L490.1,965.3L461.6,991.7L445.7,1018.2L439.3,1031.4L428.1,1071.1L426.7,1084.3L432.9,1097.5L450.0,1111.5L455.9,1124.0L455.4,1137.2L445.3,1150.4L441.5,1163.6L444.0,1190.1L455.5,1216.5L464.8,1229.8L511.7,1269.4L529.4,1303.6L546.3,1322.3L585.8,1348.8L600.4,1362.0L622.1,1372.9L648.5,1379.5L675.0,1388.9L688.2,1390.5L701.5,1389.6L714.7,1382.9L727.9,1368.8L735.5,1348.8L737.7,1322.3L741.2,1315.5L770.6,1295.9L780.5,1282.6L779.1,1269.4L759.8,1243.0L741.2,1227.3L721.4,1203.3L715.1,1190.1L718.4,1176.9L727.9,1163.6L732.5,1150.4L734.4,1137.2L733.5,1124.0L729.4,1110.7L709.6,1084.3L712.3,1071.1L741.0,1031.4L741.2,1018.2L747.4,1005.0L751.9,978.5L744.5,938.8L749.5,925.6L754.4,919.3L767.6,916.8L775.1,912.4L781.4,899.2L778.1,886.0L767.6,862.9L765.5,846.3L742.8,793.4L719.7,766.9L713.9,740.5L717.8,714.0L717.6,700.8L713.1,687.6L701.5,675.3L688.2,671.3L675.0,662.3L671.5,634.7L661.8,615.6L648.5,603.9L635.3,600.1L622.1,601.4L608.8,598.1L595.6,591.1L582.4,588.9L542.6,588.3L502.9,591.3L489.7,594.8" />
    <path d="M900.0,670.4L884.8,674.4L860.3,686.3L847.1,685.8L840.3,687.6L833.8,695.6L831.8,714.0L835.4,727.3L844.7,740.5L860.3,758.1L886.8,780.0L887.1,793.4L878.7,806.6L900.0,868.9" />
    <path d="M0.0,742.5L13.2,745.1L39.7,755.7L52.9,761.7L58.2,766.9L76.9,819.8L85.5,833.1L107.5,859.5L131.6,899.2L142.0,912.4L153.9,925.6L169.8,938.8L180.0,952.1L187.7,965.3L199.8,978.5L204.4,991.7L198.5,993.8L185.3,992.3L172.1,1001.3L158.7,1018.2L148.6,1044.6L147.6,1057.9L154.0,1084.3L148.5,1097.5L113.0,1124.0L105.9,1132.4L84.9,1176.9L79.4,1204.7L68.9,1216.5L52.9,1222.2L40.7,1229.8L0.0,1282.9" />
    <path d="M0.0,1114.5L13.2,1090.8L32.3,1071.1L39.7,1065.0L62.7,1057.9L80.5,1044.6L92.6,1024.6L96.0,1005.0L92.7,991.7L64.3,952.1L71.0,912.4L70.6,899.2L60.8,886.0L39.7,867.9L26.2,859.5L0.0,852.6" />
    <path d="M900.0,953.9L894.6,1005.0L895.4,1018.2L900.0,1028.4" />
    <path d="M900.0,1034.2L897.0,1044.6L861.8,1071.1L849.4,1084.3L842.5,1097.5L839.9,1110.7L841.6,1124.0L847.1,1134.4L865.3,1150.4L880.7,1176.9L893.5,1190.1L900.0,1193.8" />
    <path d="M900.0,1272.5L886.8,1276.8L880.8,1282.6L871.8,1309.1L869.5,1322.3L870.8,1335.5L876.4,1348.8L882.0,1375.2L870.1,1388.4L865.2,1401.7L853.3,1414.9L853.8,1441.3L849.2,1454.5L827.2,1467.8L827.2,1533.9L830.7,1560.3L836.2,1573.6L853.4,1600.0" />
    <path d="M170.5,1600.0L158.8,1584.7L145.6,1580.0L132.4,1580.6L119.1,1584.9L92.5,1600.0" />
    <path d="M271.6,1600.0L264.7,1595.3L251.5,1592.4L238.2,1596.3L225.0,1596.7L210.7,1600.0" />
    <path d="M52.9,11.2L48.8,13.2L39.7,26.4L39.7,41.8L48.3,66.1L66.2,101.2L79.4,116.5L92.6,110.9L103.3,119.0L117.0,132.2L132.4,159.6L145.6,168.1L158.8,164.5L172.1,139.3L185.3,133.4L198.5,133.7L209.0,145.5L201.5,158.7L205.4,171.9L225.0,197.5L238.2,207.1L251.5,211.8L264.7,205.4L268.3,198.3L273.3,171.9L278.3,158.7L264.2,145.5L239.1,132.2L237.8,119.0L242.7,105.8L236.7,92.6L238.2,91.0L251.5,97.1L264.7,98.4L271.4,92.6L279.1,79.3L277.9,66.1L264.7,44.2L238.2,39.5L225.0,28.1L211.8,24.8L198.5,23.3L172.1,25.7L152.5,13.2L145.6,3.3L92.6,5.2L79.4,2.2L52.9,11.2" />
    <path d="M502.3,0.0L489.7,29.6L476.5,36.0L436.8,42.9L423.5,54.3L410.3,56.9L402.2,66.1L396.2,79.3L397.1,92.6L394.0,105.8L389.9,119.0L383.8,125.6L370.6,126.2L350.9,132.2L344.1,141.8L339.8,132.2L341.8,119.0L330.9,107.4L317.6,106.1L304.4,108.8L292.6,132.2L295.4,145.5L295.5,158.7L317.6,183.2L330.9,188.7L333.0,185.1L344.1,178.3L357.4,182.7L383.8,173.1L397.1,160.3L410.3,151.4L423.5,146.9L434.9,158.7L436.8,165.1L446.2,171.9L450.0,173.0L463.2,170.1L476.5,164.4L516.2,175.5L529.4,181.5L542.6,184.0L555.9,182.0L569.1,172.9L582.4,170.9L595.6,166.2L605.5,158.7L608.8,153.5L616.2,158.7L625.7,171.9L625.5,211.6L635.3,230.5L636.6,238.0L628.7,251.2L626.7,277.7L627.7,290.9L635.3,326.2L648.5,355.0L675.0,364.8L688.2,363.6L697.4,357.0L701.5,350.7L705.7,357.0L741.2,367.8L780.5,357.0L793.7,343.8L799.3,330.6L800.3,317.4L794.1,298.0L780.9,277.5L767.6,268.3L754.4,265.6L741.2,269.6L732.6,277.7L728.3,290.9L711.4,304.1L701.5,316.2L689.4,304.1L680.7,290.9L684.3,277.7L692.7,264.5L697.6,251.2L699.3,238.0L697.7,224.8L688.2,204.8L681.3,198.3L671.7,171.9L661.0,158.7L648.5,148.5L620.1,119.0L619.2,105.8L622.1,103.0L635.3,117.9L648.5,122.2L658.6,119.0L655.2,79.3L663.7,66.1L666.2,52.9L667.1,0.0" />
    <path d="M900.0,9.0L886.8,5.6L873.5,5.0L860.3,9.7L849.0,26.4L836.4,66.1L807.4,96.4L790.8,105.8L768.0,132.2L769.4,145.5L779.5,158.7L794.1,166.2L807.4,170.7L820.6,166.8L830.2,158.7L833.8,157.2L835.0,158.7L839.3,171.9L833.8,179.8L824.1,185.1L821.2,198.3L821.9,224.8L826.6,238.0L826.8,251.2L832.2,264.5L846.7,277.7L860.3,275.9L867.4,264.5L891.9,238.0L900.0,232.7" />
    <path d="M105.9,263.6L92.6,268.1L52.9,267.5L26.5,276.2L6.6,290.9L0.9,304.1L1.5,317.4L5.2,330.6L11.9,343.8L23.9,357.0L40.6,370.2L52.9,396.7L79.4,429.9L92.6,441.0L105.9,446.7L119.1,446.0L132.4,438.8L145.6,418.0L148.2,409.9L148.7,396.7L144.5,383.5L149.8,357.0L149.9,330.6L157.2,317.4L157.6,304.1L155.2,290.9L149.1,277.7L135.6,264.5L119.1,260.0L105.9,263.6" />
    <path d="M489.7,304.0L476.5,306.6L458.4,317.4L434.8,343.8L434.0,357.0L436.3,370.2L466.3,449.6L476.5,464.3L502.9,476.4L516.2,474.1L541.9,436.4L546.5,409.9L549.1,370.2L547.5,357.0L542.6,344.4L528.5,317.4L516.2,307.4L502.9,303.9L489.7,304.0" />
    <path d="M0.0,1534.7L13.2,1519.1L16.2,1520.7L26.5,1536.8L52.9,1549.6L66.2,1553.5L79.4,1551.9L119.1,1535.9L172.1,1518.7L238.2,1502.1L264.7,1497.5L277.9,1492.0L301.5,1494.2L304.4,1496.9L307.9,1507.4L324.8,1520.7L357.4,1534.2L370.6,1538.2L383.8,1538.5L397.1,1542.8L423.5,1547.2L436.8,1552.8L463.2,1558.0L489.7,1576.0L502.9,1579.9L516.2,1580.4L542.6,1574.3L569.1,1560.8L582.4,1544.9L599.5,1533.9L613.3,1520.7L619.9,1507.4L620.7,1494.2L624.4,1481.0L622.2,1467.8L608.8,1453.3L590.5,1441.3L561.3,1414.9L541.8,1401.7L516.2,1389.1L502.9,1370.9L489.7,1360.5L476.5,1354.7L463.2,1333.6L450.7,1322.3L436.8,1314.6L423.5,1313.2L410.3,1307.3L397.1,1298.0L383.8,1281.0L371.9,1269.4L357.4,1245.5L334.5,1216.5L332.0,1190.1L326.5,1163.6L326.8,1150.4L330.9,1143.8L344.1,1134.0L347.5,1124.0L352.7,1071.1L347.1,1057.9L321.9,1044.6L317.6,1039.5L309.9,1018.2L317.6,1009.5L330.9,1004.2L344.1,992.4L357.4,976.6L363.0,965.3L366.4,952.1L365.5,938.8L368.3,925.6L359.9,899.2L358.5,886.0L361.0,872.7L357.6,833.1L344.3,806.6L330.9,796.5L317.5,780.2L315.2,766.9L309.9,753.7L312.9,740.5L310.6,714.0L304.6,700.8L302.8,687.6L328.5,674.4L340.3,661.2L354.0,621.5L356.5,608.3L350.4,581.8L359.5,555.4L360.2,542.1L354.8,528.9L364.6,502.5L366.2,489.3L366.4,476.0L363.2,462.8L365.9,436.4L358.5,409.9L332.9,370.2L329.5,357.0L321.6,343.8L307.1,330.6L304.4,321.5L291.2,317.2L277.9,328.4L264.7,352.9L251.5,389.0L240.5,462.8L211.8,497.1L198.5,511.1L185.3,521.4L158.8,519.6L145.6,521.5L132.4,520.4L119.1,515.6L105.9,515.4L79.4,525.2L75.4,528.9L43.4,542.1L33.2,542.1L28.7,528.9L32.3,515.7L30.1,502.5L23.0,489.3L0.0,459.2" />
    <path d="M900.0,363.3L894.4,383.5L886.8,385.7L873.5,410.8L860.3,425.2L849.4,449.6L860.3,454.2L873.5,450.3L897.0,436.4L900.0,425.9" />
    <path d="M900.0,465.3L850.7,502.5L838.1,515.7L832.8,528.9L835.2,542.1L849.1,555.4L873.5,564.6L886.8,565.0L900.0,562.3" />
    <path d="M555.9,526.6L542.6,532.4L533.9,542.1L534.7,555.4L539.0,568.6L529.4,579.9L489.7,585.7L476.5,596.0L456.1,621.5L447.1,634.7L441.7,647.9L427.4,700.8L420.7,714.0L418.8,727.3L423.6,753.7L459.2,806.6L470.1,833.1L476.1,859.5L477.1,899.2L479.3,912.4L489.3,938.8L487.7,952.1L483.0,965.3L463.2,980.1L453.0,991.7L435.7,1018.2L423.4,1044.6L410.5,1084.3L413.5,1097.5L436.8,1111.0L451.1,1124.0L449.8,1137.2L437.7,1150.4L434.3,1163.6L436.1,1190.1L450.0,1223.5L454.1,1229.8L463.2,1235.0L476.5,1247.0L489.7,1254.2L506.9,1269.4L529.4,1313.5L538.2,1322.3L569.1,1341.5L579.1,1348.8L591.9,1362.0L608.8,1372.8L675.0,1395.4L701.5,1398.4L714.7,1394.4L727.9,1382.2L741.2,1352.6L746.1,1322.3L754.4,1316.1L795.0,1295.9L800.6,1282.6L799.0,1269.4L794.1,1255.4L780.9,1242.9L767.6,1239.4L752.7,1229.8L741.2,1219.5L720.4,1190.1L735.9,1163.6L741.2,1150.4L743.3,1137.2L742.8,1124.0L738.6,1110.7L718.1,1084.3L718.4,1071.1L727.9,1057.6L741.7,1044.6L746.9,1031.4L753.2,1005.0L756.9,978.5L755.2,965.3L750.1,952.1L748.7,938.8L754.4,927.8L767.6,928.4L783.6,925.6L794.1,915.9L797.7,899.2L795.9,886.0L780.9,868.2L749.1,793.4L727.8,766.9L723.2,753.7L719.8,740.5L727.6,700.8L728.7,687.6L725.8,674.4L714.7,667.7L701.5,667.7L685.5,661.2L678.2,634.7L672.4,621.5L661.8,606.3L648.5,596.6L635.3,593.9L622.1,596.5L593.3,581.8L583.7,568.6L588.7,555.4L589.6,542.1L582.4,531.0L569.1,525.5L555.9,526.6" />
    <path d="M900.0,665.0L860.3,677.7L847.1,670.6L833.8,668.8L820.6,674.4L813.1,687.6L810.7,700.8L812.8,714.0L820.6,732.2L827.8,740.5L847.1,752.5L874.4,780.2L862.8,793.4L866.4,806.6L881.1,833.1L892.8,859.5L900.0,882.5" />
    <path d="M0.0,747.3L39.7,761.3L48.5,766.9L58.7,806.6L63.9,819.8L72.5,833.1L96.4,859.5L122.1,899.2L133.6,912.4L146.3,925.6L165.1,938.8L189.4,978.5L169.1,991.7L155.3,1005.0L145.6,1018.2L137.1,1044.6L137.8,1057.9L148.8,1084.3L141.9,1097.5L105.9,1126.1L79.4,1172.2L74.3,1203.3L66.2,1211.8L39.7,1219.2L26.5,1230.9L0.0,1266.8" />
    <path d="M0.0,1123.8L11.9,1110.7L17.0,1097.5L39.7,1071.3L66.2,1062.0L90.2,1044.6L98.9,1031.4L103.6,1018.2L104.8,1005.0L100.3,991.7L69.4,952.1L69.9,938.8L79.7,912.4L82.0,899.2L79.4,894.7L66.2,877.9L39.7,855.7L17.0,846.3L0.0,844.7" />
    <path d="M900.0,941.5L895.9,952.1L886.8,1000.7L867.9,1031.4L867.0,1044.6L869.0,1057.9L860.3,1064.1L834.5,1097.5L830.5,1110.7L830.3,1124.0L836.7,1137.2L860.3,1155.4L873.5,1178.7L884.2,1190.1L900.0,1199.2" />
    <path d="M900.0,1257.8L886.8,1251.3L873.5,1251.0L863.6,1256.2L860.3,1261.6L851.6,1322.3L854.2,1348.8L853.5,1388.4L841.5,1414.9L839.3,1428.1L845.0,1441.3L836.0,1454.5L820.6,1460.3L815.3,1467.8L818.3,1481.0L822.7,1560.3L840.7,1600.0" />
    <path d="M178.1,1600.0L172.1,1583.0L158.8,1570.6L145.6,1567.1L132.4,1568.7L118.3,1573.6L73.6,1600.0" />
    <path d="M282.1,1600.0L277.9,1594.2L264.7,1585.8L251.5,1583.6L211.8,1593.4L204.2,1600.0" />
    <path d="M64.0,0.0L39.7,10.8L36.9,13.2L31.3,26.4L35.9,52.9L35.3,66.1L45.3,79.3L52.9,84.9L62.7,105.8L57.6,119.0L34.5,145.5L40.9,158.7L52.9,163.8L66.2,158.5L79.9,145.5L92.6,118.3L107.2,132.2L119.1,156.4L132.4,172.9L145.6,184.3L158.8,185.3L166.4,171.9L177.1,158.7L182.3,145.5L185.3,143.2L198.5,143.8L200.0,145.5L191.1,158.7L197.4,171.9L219.5,198.3L225.0,207.6L238.2,219.2L251.5,223.3L264.7,217.4L275.8,198.3L277.9,179.9L291.2,173.3L304.4,181.2L317.6,202.2L330.9,206.2L357.4,194.6L383.8,179.0L410.3,159.9L423.5,154.7L427.4,158.7L433.8,185.1L436.8,188.6L463.2,176.9L476.5,173.1L489.7,173.4L516.2,179.7L529.4,188.7L542.6,193.8L555.9,192.2L560.5,185.1L569.1,178.5L595.6,176.3L607.6,185.1L611.1,198.3L614.1,277.7L621.3,317.4L637.5,357.0L648.5,367.2L661.8,369.6L675.0,375.2L688.2,375.8L701.5,364.0L714.7,366.7L723.7,370.2L727.9,374.8L741.2,377.7L754.4,368.6L780.9,364.7L794.1,355.0L803.8,343.8L810.0,330.6L812.1,317.4L810.0,304.1L796.1,277.7L782.1,264.5L767.6,258.3L754.4,257.9L735.5,264.5L727.9,271.5L719.1,290.9L701.5,305.2L689.0,290.9L691.4,277.7L701.2,264.5L706.6,251.2L708.1,224.8L703.0,198.3L671.8,92.6L671.7,79.3L674.8,66.1L672.1,13.2L673.2,0.0" />
    <path d="M162.5,0.0L161.8,13.2L172.1,20.5L198.5,17.3L211.8,18.3L225.0,22.7L251.5,27.2L264.7,32.5L274.6,39.7L289.9,66.1L292.8,79.3L286.3,92.6L277.9,100.0L270.9,105.8L251.5,113.1L248.2,119.0L253.7,132.2L264.7,137.3L277.9,138.2L297.4,92.6L304.4,86.8L317.6,86.9L344.1,101.2L350.7,119.0L357.4,124.1L383.8,113.6L387.8,105.8L389.3,92.6L381.0,79.3L384.2,66.1L397.1,57.2L410.3,43.7L436.8,30.2L463.2,33.2L476.5,29.5L481.6,26.4L489.7,17.0L497.0,0.0" />
    <path d="M853.1,0.0L844.9,13.2L838.2,39.7L827.5,66.1L807.4,87.8L780.9,105.2L767.6,121.4L754.4,131.9L750.7,132.2L746.8,145.5L755.1,158.7L767.6,161.6L807.4,179.9L813.1,185.1L809.8,224.8L813.1,251.2L816.6,264.5L833.8,290.9L847.1,294.6L860.3,287.4L869.8,277.7L876.9,264.5L900.0,241.7" />
    <path d="M0.0,343.0L12.7,357.0L32.5,370.2L44.3,396.7L52.7,409.9L74.3,436.4L92.6,452.4L105.9,458.6L119.1,458.4L132.4,452.9L147.7,436.4L158.1,409.9L158.3,396.7L151.6,383.5L154.3,357.0L152.7,343.8L163.4,317.4L164.4,304.1L160.2,277.7L153.1,264.5L145.6,256.9L134.8,251.2L119.1,249.5L92.6,260.7L52.9,260.2L39.7,263.4L13.2,275.4L0.0,275.4" />
    <path d="M0.0,1540.3L13.2,1532.4L26.5,1549.8L52.9,1564.3L66.2,1565.4L79.4,1562.4L119.1,1544.8L145.6,1536.7L172.1,1524.2L238.2,1506.7L264.7,1502.7L277.9,1497.9L312.6,1520.7L343.6,1533.9L370.6,1550.3L423.5,1551.2L436.8,1557.1L463.2,1563.3L489.7,1580.6L502.9,1585.4L516.2,1586.2L542.6,1581.7L552.6,1573.6L569.1,1565.7L582.4,1552.2L595.6,1544.1L622.1,1521.4L628.1,1507.4L627.4,1494.2L631.0,1481.0L630.2,1467.8L618.3,1454.5L571.5,1414.9L542.6,1396.4L523.6,1388.4L515.8,1375.2L503.0,1362.0L476.5,1345.8L471.8,1335.5L462.1,1322.3L450.0,1312.8L436.8,1305.8L410.3,1300.7L397.1,1292.1L376.8,1269.4L344.8,1216.5L334.7,1163.6L347.8,1150.4L355.3,1137.2L358.9,1124.0L365.3,1071.1L363.2,1057.9L357.4,1051.2L340.9,1044.6L330.9,1038.0L317.0,1018.2L330.9,1022.1L339.9,1005.0L362.4,978.5L369.6,965.3L373.4,952.1L371.6,938.8L374.8,925.6L372.6,912.4L365.8,899.2L364.2,886.0L367.4,872.7L365.0,833.1L351.4,806.6L334.8,793.4L323.8,780.2L316.7,753.7L317.9,740.5L314.6,714.0L308.8,700.8L314.6,687.6L330.9,680.4L344.1,667.5L355.0,634.7L362.0,621.5L363.2,608.3L354.6,581.8L364.5,555.4L365.6,542.1L360.3,528.9L369.5,502.5L371.3,476.0L367.2,462.8L371.9,449.6L373.4,436.4L370.7,423.1L365.0,409.9L341.3,370.2L334.0,343.8L321.1,330.6L317.6,311.0L312.4,304.1L304.4,300.4L291.2,298.9L275.3,304.1L261.7,317.4L249.4,357.0L243.8,383.5L235.4,462.8L198.5,503.8L185.3,513.2L158.8,512.3L145.6,514.2L132.4,508.7L119.1,506.3L105.9,507.9L79.4,515.6L63.7,528.9L39.7,533.8L36.3,528.9L39.6,515.7L38.5,502.5L32.1,489.3L0.0,446.1" />
    <path d="M476.5,301.5L463.2,307.6L434.2,330.6L424.4,343.8L424.2,357.0L445.0,409.9L463.2,470.1L487.7,489.3L489.7,495.2L502.9,503.5L516.2,494.7L529.4,480.5L549.8,436.4L552.4,409.9L551.4,396.7L555.6,370.2L554.4,357.0L536.2,317.4L523.9,304.1L516.2,300.2L502.9,298.8L476.5,301.5" />
    <path d="M900.0,341.3L887.8,357.0L883.0,370.2L867.2,396.7L850.2,409.9L849.8,423.1L841.1,436.4L838.0,449.6L847.1,462.9L860.3,463.7L873.5,461.3L887.9,449.6L900.0,444.6" />
    <path d="M900.0,570.4L886.8,573.4L873.5,573.3L858.8,568.6L833.0,555.4L820.6,543.2L819.1,528.9L824.8,515.7L840.4,502.5L879.9,476.0L900.0,455.9" />
    <path d="M555.9,512.7L529.4,529.7L525.0,542.1L529.4,569.9L516.2,575.0L489.7,577.8L479.5,581.8L463.2,604.3L446.1,621.5L436.8,635.7L421.1,700.8L414.3,714.0L411.6,727.3L416.0,753.7L423.5,769.3L451.5,806.6L463.2,827.9L469.8,846.3L472.7,859.5L470.6,899.2L473.0,912.4L485.2,938.8L484.0,952.1L476.5,964.8L463.2,972.3L450.0,984.4L426.5,1018.2L411.0,1044.6L395.3,1084.3L394.6,1097.5L397.1,1104.1L404.7,1110.7L423.5,1111.8L436.8,1115.9L445.8,1124.0L443.9,1137.2L431.8,1150.4L427.9,1163.6L427.3,1176.9L429.5,1190.1L444.4,1229.8L483.4,1256.2L489.7,1265.4L502.9,1273.0L506.4,1282.6L529.4,1322.4L569.1,1345.4L585.0,1362.0L608.8,1378.0L688.2,1406.6L701.5,1408.4L714.7,1405.3L727.9,1396.3L741.2,1367.3L746.4,1348.8L747.9,1335.5L754.4,1323.9L767.6,1315.5L807.4,1305.1L813.4,1295.9L815.8,1282.6L814.7,1269.4L810.5,1256.2L800.7,1243.0L780.9,1227.3L754.4,1225.2L745.0,1216.5L725.7,1190.1L742.8,1163.6L752.3,1137.2L751.9,1124.0L748.2,1110.7L724.8,1084.3L724.7,1071.1L746.6,1044.6L756.4,1018.2L761.0,978.5L758.9,965.3L753.7,952.1L752.8,938.8L754.4,935.8L780.9,935.5L794.1,940.6L797.2,938.8L806.8,925.6L810.4,899.2L809.2,886.0L802.5,872.7L780.9,849.1L755.5,793.4L746.9,780.2L734.2,766.9L729.2,753.7L725.5,740.5L741.2,687.6L742.7,674.4L741.2,660.3L727.9,647.3L714.7,652.0L701.5,660.7L689.4,647.9L675.0,615.5L661.8,599.0L648.5,590.1L635.3,586.3L622.1,588.2L608.8,585.3L603.4,581.8L591.9,568.6L600.6,555.4L603.5,542.1L600.1,528.9L582.4,514.8L569.1,511.8L555.9,512.7" />
    <path d="M900.0,659.5L873.5,667.6L860.3,666.9L833.8,657.5L820.6,658.1L807.4,664.5L799.6,674.4L793.4,687.6L795.0,700.8L807.4,731.8L820.0,753.7L833.8,767.9L847.2,766.9L843.0,780.2L847.4,793.4L886.8,856.0L893.8,872.7L898.6,899.2L894.3,912.4L897.9,925.6L897.4,938.8L891.6,952.1L886.8,975.0L877.6,991.7L858.8,1018.2L852.2,1031.4L851.3,1044.6L855.9,1057.9L849.7,1071.1L828.9,1097.5L819.1,1124.0L823.6,1137.2L838.6,1150.4L847.1,1153.6L860.1,1163.6L875.3,1190.1L900.0,1205.1" />
    <path d="M0.0,752.1L39.9,766.9L47.5,806.6L52.2,819.8L60.3,833.1L92.6,868.5L113.3,899.2L138.6,925.6L160.3,938.8L168.5,952.1L172.6,965.3L174.1,978.5L142.6,1005.0L130.6,1031.4L127.1,1044.6L127.7,1057.9L136.3,1071.1L141.5,1084.3L136.7,1097.5L105.9,1121.2L76.4,1163.6L68.8,1203.3L66.2,1206.0L52.9,1209.4L39.7,1210.7L30.5,1216.5L17.5,1229.8L0.0,1253.0" />
    <path d="M0.0,1131.6L13.2,1121.3L24.7,1097.5L39.7,1079.8L79.4,1060.3L98.9,1044.6L107.5,1031.4L111.3,1018.2L111.9,1005.0L107.6,991.7L73.8,952.1L73.5,938.8L79.4,925.0L89.1,912.4L92.1,899.2L84.3,886.0L59.8,859.5L42.0,846.3L13.2,838.5L0.0,838.4" />
    <path d="M900.0,1236.8L886.8,1237.2L873.5,1234.8L860.3,1240.7L846.8,1243.0L842.0,1256.2L842.8,1282.6L836.9,1335.5L836.5,1348.8L842.2,1388.4L836.3,1401.7L831.4,1428.1L837.9,1441.3L833.8,1446.6L820.6,1447.5L807.4,1453.8L801.4,1467.8L813.0,1494.2L812.2,1507.4L817.2,1533.9L815.5,1560.3L823.3,1586.8L830.7,1600.0" />
    <path d="M185.0,1600.0L182.6,1586.8L172.1,1567.9L158.8,1558.1L145.6,1556.4L132.4,1557.8L105.9,1569.5L79.4,1584.4L58.5,1600.0" />
    <path d="M289.8,1600.0L277.9,1583.9L264.7,1576.6L251.5,1574.7L225.0,1581.6L211.8,1587.8L198.5,1597.9L188.6,1600.0" />
    <path d="M33.8,0.0L21.5,13.2L19.8,39.7L23.7,52.9L15.2,66.1L15.4,79.3L26.5,92.0L39.7,97.0L50.6,105.8L36.1,119.0L12.6,132.2L7.3,145.5L10.8,158.7L21.0,171.9L39.7,185.5L52.9,188.7L66.2,185.3L92.6,147.4L111.9,171.9L132.4,211.8L145.6,223.1L158.8,231.2L172.1,224.9L180.5,211.6L178.9,185.1L185.3,174.0L208.7,198.3L217.0,211.6L225.0,231.2L238.2,244.9L251.5,246.5L259.6,251.2L258.3,264.5L260.1,277.7L247.4,290.9L239.7,304.1L229.6,343.8L228.9,370.2L231.4,423.1L228.3,436.4L226.5,462.8L198.5,493.4L185.3,499.0L172.1,501.0L159.1,489.3L158.8,485.7L157.6,489.3L145.6,491.1L120.7,476.0L132.4,472.5L157.2,449.6L168.4,423.1L170.3,396.7L163.6,383.5L162.7,370.2L165.1,357.0L163.1,343.8L172.1,324.3L176.3,304.1L169.5,264.5L158.8,242.1L152.9,238.0L145.6,227.5L119.1,234.2L92.6,249.0L52.9,247.7L26.5,258.1L0.0,240.4" />
    <path d="M179.8,0.0L185.3,6.9L211.8,6.6L225.0,13.9L238.2,11.7L251.5,4.5L264.7,6.3L277.9,19.2L304.4,32.6L308.6,39.7L344.1,74.6L357.4,62.4L370.6,59.0L396.2,39.7L423.5,12.7L436.8,9.2L450.0,11.7L463.2,21.0L476.5,18.6L481.5,13.2L486.0,0.0" />
    <path d="M828.1,0.0L822.0,26.4L816.7,39.7L819.7,52.9L807.4,56.3L803.3,66.1L767.6,103.2L754.4,100.5L741.2,92.0L727.9,95.3L714.7,102.7L701.5,94.0L688.2,45.8L684.4,26.4L684.1,13.2L688.2,9.3L714.7,18.3L727.0,13.2L724.6,0.0" />
    <path d="M363.8,105.8L370.6,98.7L374.0,105.8L370.6,108.3L363.8,105.8" />
    <path d="M900.0,648.5L873.5,653.4L847.1,646.7L820.6,643.1L794.1,643.0L767.6,646.8L750.5,634.7L741.2,631.5L727.9,630.7L714.7,639.0L701.5,638.5L701.3,634.7L688.2,622.6L681.4,608.3L671.4,595.0L661.8,585.5L632.7,568.6L622.1,556.6L622.4,542.1L618.9,528.9L608.8,512.7L594.1,502.5L569.1,496.0L555.9,496.2L544.2,489.3L549.8,462.8L560.1,449.6L563.7,436.4L562.4,423.1L565.4,409.9L561.7,396.7L566.9,343.8L555.9,331.4L555.9,326.2L558.1,330.6L569.1,338.9L582.6,343.8L593.3,330.6L590.2,317.4L582.4,311.1L569.1,308.7L555.9,312.6L542.6,304.6L529.4,292.8L516.2,288.4L502.9,289.2L463.2,296.1L450.0,304.3L436.3,317.4L423.5,325.5L410.4,330.6L406.6,343.8L408.5,357.0L423.5,385.9L439.1,423.1L445.5,449.6L448.3,489.3L457.9,502.5L439.7,528.9L433.8,542.1L434.5,568.6L436.8,579.4L450.4,595.0L434.0,608.3L423.5,623.2L416.4,647.9L413.2,674.4L408.4,687.6L407.9,700.8L400.9,714.0L401.2,727.3L404.6,753.7L410.3,771.5L435.3,806.6L450.2,833.1L463.2,850.0L465.8,859.5L459.0,899.2L461.1,912.4L477.1,938.8L476.6,952.1L450.0,964.1L397.1,1034.8L383.8,1038.3L370.6,1032.9L357.4,1033.6L353.6,1031.4L350.9,1018.2L354.3,1005.0L373.5,978.5L383.8,957.0L395.0,952.1L405.8,938.8L401.3,925.6L383.8,913.0L375.0,886.0L380.1,859.5L383.8,851.5L391.7,846.3L393.4,833.1L386.4,819.8L370.6,810.7L344.1,789.9L334.8,780.2L328.0,753.7L330.9,744.8L335.1,740.5L330.9,737.1L325.0,714.0L317.1,700.8L344.1,687.5L357.4,665.8L361.8,647.9L371.1,634.7L377.1,621.5L377.5,608.3L364.7,581.8L375.1,555.4L377.8,542.1L372.5,528.9L372.7,515.7L377.4,502.5L379.6,476.0L389.9,449.6L388.5,436.4L383.0,423.1L362.3,383.5L352.4,370.2L350.0,343.8L346.5,330.6L333.2,317.4L329.9,304.1L317.6,287.4L297.2,277.7L302.3,264.5L298.5,251.2L291.2,245.8L264.8,238.0L277.5,224.8L291.2,200.5L304.4,209.8L309.6,224.8L317.6,233.5L330.9,235.8L358.7,224.8L361.5,211.6L374.2,198.3L383.8,192.6L397.1,179.9L408.7,185.1L405.0,198.3L404.0,211.6L410.3,220.0L423.5,221.3L436.8,216.1L463.2,192.7L476.5,184.0L489.7,182.7L502.9,187.7L516.2,189.5L542.6,210.0L555.9,213.4L569.1,205.8L582.4,188.2L595.6,196.6L598.7,224.8L593.0,238.0L590.9,251.2L593.3,277.7L598.6,290.9L600.9,304.1L598.4,330.6L608.8,338.8L620.1,357.0L641.1,383.5L644.0,409.9L648.5,417.9L656.4,423.1L658.1,436.4L652.1,449.6L657.1,462.8L675.0,470.1L688.2,467.2L696.7,462.8L701.5,449.7L714.7,458.5L734.3,449.6L714.7,446.2L706.1,436.4L706.3,423.1L714.7,421.8L743.2,409.9L754.4,398.9L763.7,383.5L767.6,380.5L780.9,378.1L807.4,357.7L833.8,319.3L847.1,318.4L860.3,314.0L870.6,304.1L886.8,269.1L900.0,271.4" />
    <path d="M720.9,185.1L727.9,179.5L741.2,181.8L754.4,176.6L767.6,175.3L794.1,191.9L798.0,198.3L794.7,224.8L790.0,238.0L780.9,245.3L741.2,249.6L727.9,255.0L714.8,264.5L714.7,278.6L708.6,277.7L723.0,251.2L719.4,224.8L720.9,185.1" />
    <path d="M900.0,279.9L893.4,290.9L884.7,317.4L886.6,330.6L883.2,343.8L874.2,357.0L861.3,383.5L840.7,396.7L833.8,405.7L818.7,449.6L833.8,468.3L845.6,476.0L843.0,489.3L813.0,502.5L798.8,515.7L792.1,528.9L790.8,542.1L800.0,555.4L828.9,568.6L841.3,581.8L847.1,585.1L860.3,584.6L873.5,588.5L900.0,583.8" />
    <path d="M0.0,360.4L14.7,370.2L24.0,383.5L29.1,396.7L37.4,409.9L58.3,436.4L92.6,466.7L105.9,474.8L115.8,476.0L116.4,489.3L79.4,499.0L71.3,502.5L52.9,516.0L51.7,502.5L46.4,489.3L25.9,462.8L13.2,440.6L0.0,426.5" />
    <path d="M497.5,542.1L502.9,538.3L508.0,542.1L516.2,553.4L516.2,556.6L502.9,561.9L490.9,555.4L497.5,542.1" />
    <path d="M749.9,714.0L754.4,709.5L767.6,706.7L780.9,714.1L794.4,740.5L820.6,781.6L833.8,808.8L873.5,853.1L886.6,872.7L889.2,886.0L886.8,892.9L860.3,887.7L847.1,890.0L837.3,899.2L834.0,912.4L839.1,952.1L847.1,963.8L860.3,951.3L865.5,938.8L873.5,931.3L886.8,927.5L890.5,938.8L886.8,946.2L879.0,952.1L871.2,965.3L866.5,978.5L842.5,1005.0L833.5,1018.2L808.3,1071.1L804.0,1084.3L801.4,1097.5L807.4,1101.9L810.7,1110.7L803.4,1124.0L801.8,1137.2L806.9,1150.4L820.6,1159.2L833.8,1163.7L847.1,1164.8L862.4,1190.1L860.3,1197.0L843.2,1216.5L820.6,1232.0L794.1,1211.8L780.9,1206.4L767.6,1207.5L754.5,1203.3L743.0,1190.1L746.2,1176.9L754.4,1160.4L762.7,1150.4L766.8,1137.2L766.7,1110.7L756.9,1097.5L737.7,1084.3L736.4,1071.1L748.2,1057.9L756.6,1044.6L763.2,1031.4L766.8,1018.2L765.6,1005.0L769.5,978.5L764.3,952.1L767.6,948.4L775.8,952.1L794.1,966.3L807.4,967.9L812.6,965.3L828.8,952.1L833.7,912.4L829.8,886.0L823.2,872.7L812.7,859.5L794.1,844.7L785.5,833.1L780.5,819.8L772.1,806.6L767.6,792.0L760.1,780.2L746.5,766.9L739.2,753.7L735.5,740.5L738.3,727.3L741.2,720.6L749.9,714.0" />
    <path d="M0.0,761.1L13.8,766.9L24.9,780.2L26.5,800.4L34.7,819.8L26.5,827.4L0.0,828.4" />
    <path d="M97.5,925.6L105.9,916.8L119.1,920.2L132.4,931.3L158.8,948.0L161.5,952.1L164.0,965.3L158.8,973.8L132.4,994.9L119.1,990.4L92.6,964.7L83.1,952.1L81.4,938.8L97.5,925.6" />
    <path d="M0.0,1147.2L13.2,1143.0L26.5,1130.6L39.2,1097.5L47.8,1084.3L52.9,1080.4L66.2,1077.6L81.1,1071.1L105.9,1054.8L108.8,1057.9L107.6,1071.1L124.3,1097.5L105.9,1112.9L92.6,1129.5L79.4,1138.1L63.7,1163.6L63.1,1176.9L59.7,1190.1L52.9,1197.6L39.7,1197.5L26.5,1203.2L0.0,1232.6" />
    <path d="M546.7,1600.0L555.9,1593.2L569.1,1577.8L595.6,1558.8L608.8,1543.8L622.1,1538.4L635.3,1524.8L643.0,1520.7L645.2,1507.4L643.6,1467.8L632.5,1454.5L590.8,1414.9L569.1,1400.3L529.4,1378.4L516.2,1359.1L483.8,1335.5L466.3,1309.1L445.1,1295.9L410.3,1287.2L397.1,1282.0L386.9,1269.4L355.6,1216.5L352.0,1203.3L349.7,1176.9L367.2,1150.4L373.1,1137.2L383.8,1128.5L397.1,1127.2L410.3,1120.7L423.5,1120.2L433.1,1124.0L418.7,1150.4L415.4,1176.9L418.1,1190.1L426.3,1203.3L429.4,1229.8L461.6,1256.2L483.8,1282.6L480.3,1295.9L489.7,1305.9L502.9,1301.8L510.5,1309.1L510.8,1322.3L516.2,1337.5L529.4,1345.1L555.9,1346.4L560.5,1348.8L569.1,1354.8L582.4,1372.4L595.6,1384.4L608.8,1387.5L675.0,1418.7L701.5,1425.7L714.7,1425.9L719.2,1428.1L717.8,1441.3L727.9,1452.4L741.2,1452.7L754.4,1447.1L764.0,1441.3L769.1,1428.1L765.9,1414.9L754.4,1411.8L746.6,1401.7L750.6,1362.0L759.4,1335.5L767.6,1328.9L780.9,1325.4L807.4,1328.2L816.4,1335.5L825.0,1362.0L826.8,1375.2L820.6,1427.3L794.1,1432.5L776.8,1441.3L780.4,1454.5L778.5,1467.8L792.4,1481.0L780.9,1488.3L754.4,1494.2L741.2,1494.0L705.6,1507.4L690.9,1520.7L701.5,1529.7L720.9,1533.9L727.2,1547.1L723.2,1560.3L727.9,1565.0L741.2,1572.9L754.4,1574.8L767.6,1572.6L776.0,1560.3L777.0,1547.1L807.4,1528.0L809.8,1533.9L807.4,1546.2L800.0,1560.3L799.2,1573.6L802.6,1586.8L809.0,1600.0" />
    <path d="M314.2,1600.0L294.7,1586.8L285.2,1573.6L264.7,1563.6L238.2,1563.2L198.5,1576.7L173.0,1547.1L173.1,1533.9L185.3,1528.3L211.8,1523.0L238.2,1514.5L277.9,1509.5L293.3,1520.7L317.6,1534.6L330.9,1539.0L342.8,1547.1L346.4,1560.3L357.4,1567.6L370.6,1572.1L383.8,1573.2L410.3,1569.2L419.6,1560.3L423.5,1559.1L436.8,1569.9L450.0,1572.9L463.2,1572.5L489.7,1591.0L522.0,1600.0" />
    <path d="M0.0,1558.0L13.2,1562.5L40.8,1586.8L36.7,1600.0" />
    <path d="M635.3,1568.6L628.3,1573.6L626.3,1586.8L635.3,1594.5L648.5,1584.3L654.0,1573.6L648.5,1562.6L635.3,1568.6" />
    <path d="M461.6,1600.0L451.0,1586.8L450.0,1581.3L448.2,1586.8L436.8,1592.9L433.4,1600.0" />
    <path d="M25.4,0.0L15.7,13.2L12.8,39.7L16.7,52.9L7.8,66.1L8.2,79.3L25.7,105.8L22.5,119.0L13.2,125.6L0.0,129.0" />
    <path d="M189.1,0.0L198.5,2.4L211.8,1.2L225.0,6.6L238.2,4.6L245.4,0.0" />
    <path d="M272.3,0.0L290.4,13.2L293.3,13.2L284.9,0.0" />
    <path d="M330.1,0.0L318.7,13.2L316.5,26.4L323.0,39.7L344.1,60.5L354.1,52.9L370.6,51.4L387.8,39.7L410.3,16.5L423.5,5.7L436.8,2.1L450.0,2.2L463.2,10.7L476.5,13.5L480.2,0.0" />
    <path d="M819.3,0.0L815.6,13.2L798.0,39.7L794.9,66.1L767.6,95.8L741.2,83.7L714.7,90.5L706.5,79.3L697.9,52.9L694.7,26.4L701.5,23.3L714.7,27.0L727.9,22.4L739.7,13.2L746.4,0.0" />
    <path d="M780.9,36.7L773.0,39.7L780.9,51.3L788.6,39.7L780.9,36.7" />
    <path d="M0.0,155.8L10.8,171.9L26.5,186.2L39.7,195.0L52.9,198.2L66.2,195.6L79.4,176.9L86.9,171.9L92.6,158.3L98.7,171.9L105.9,175.0L113.2,185.1L127.9,224.8L92.6,244.0L66.2,240.2L52.9,242.0L26.5,253.0L13.2,239.2L0.0,230.1" />
    <path d="M184.9,185.1L198.5,191.8L204.4,198.3L212.0,211.6L225.0,246.2L238.2,260.5L249.0,264.5L249.6,277.7L238.2,287.5L225.0,324.4L211.8,335.2L206.4,343.8L205.8,357.0L218.2,370.2L225.0,392.6L227.6,423.1L224.0,436.4L223.4,449.6L218.8,462.8L198.5,487.5L185.3,493.2L173.6,489.3L179.1,476.0L177.0,462.8L167.4,449.6L169.0,436.4L176.7,409.9L176.5,396.7L168.6,383.5L171.7,343.8L181.6,304.1L171.9,251.2L173.4,238.0L189.1,211.6L184.9,185.1" />
    <path d="M396.3,185.1L398.3,185.1L397.4,198.3L391.3,211.6L400.8,224.8L423.5,236.5L434.3,224.8L438.6,224.8L424.9,238.0L424.4,251.2L432.0,277.7L436.8,280.5L450.0,282.8L456.0,277.7L480.4,264.5L483.0,251.2L466.1,238.0L487.0,224.8L491.9,211.6L489.7,208.9L476.5,206.7L469.1,198.3L476.5,192.3L489.7,191.4L502.9,197.1L516.2,195.4L542.6,216.2L555.9,218.9L569.1,215.1L582.4,199.7L590.1,211.6L592.2,224.8L583.8,251.2L588.1,290.9L582.4,296.7L555.9,298.9L542.6,295.3L529.4,286.7L516.2,283.5L476.5,288.8L463.2,287.3L460.3,290.9L450.0,294.4L427.1,317.4L423.5,319.7L410.3,321.1L400.8,330.6L398.6,343.8L401.7,357.0L429.6,409.9L439.7,436.4L441.5,449.6L441.7,489.3L446.0,502.5L436.8,518.0L423.5,520.9L410.3,518.1L397.1,518.9L383.8,536.0L378.1,515.7L383.8,475.7L397.3,462.8L397.6,449.6L395.4,436.4L367.2,383.5L357.4,370.2L354.9,357.0L357.2,330.6L343.2,317.4L337.7,304.1L317.6,279.8L313.8,277.7L314.2,264.5L317.6,252.1L330.9,252.5L347.3,238.0L357.4,234.5L369.9,224.8L376.2,211.6L383.8,202.7L395.3,198.3L396.3,185.1" />
    <path d="M750.2,185.1L767.6,181.7L780.9,189.0L791.6,198.3L789.3,224.8L779.4,238.0L754.4,244.0L727.9,246.1L724.7,238.0L723.2,224.8L727.9,203.1L730.0,198.3L750.2,185.1" />
    <path d="M900.0,641.1L886.8,638.6L873.5,644.5L860.3,644.2L820.6,638.2L807.4,638.4L794.1,634.6L767.6,634.3L754.4,626.5L727.9,624.0L714.7,625.9L711.6,621.5L701.5,619.2L688.2,611.9L675.0,591.7L665.1,581.8L645.8,568.6L635.5,555.4L624.5,515.7L611.8,502.5L582.4,492.5L554.3,489.3L551.4,476.0L554.5,462.8L568.1,449.6L570.3,436.4L569.8,423.1L573.5,409.9L567.3,396.7L569.5,370.2L582.4,358.0L595.6,353.7L608.8,355.0L625.1,370.2L631.6,383.5L636.0,409.9L644.2,436.4L643.1,462.8L648.5,476.3L661.8,474.3L675.0,481.8L688.2,477.1L701.5,469.0L714.7,476.9L727.9,477.3L741.2,469.3L755.5,449.6L742.6,436.4L739.2,423.1L754.4,412.8L767.6,391.6L780.9,384.3L807.4,363.2L833.8,329.1L860.3,322.9L873.5,312.7L880.8,330.6L876.7,343.8L867.8,357.0L860.3,374.0L832.7,396.7L825.2,409.9L820.6,427.7L808.2,449.6L826.9,476.0L828.3,489.3L807.4,495.4L785.8,515.7L778.2,528.9L777.4,542.1L786.2,555.4L816.5,568.6L833.8,587.0L847.1,593.9L860.3,592.9L868.3,595.0L873.5,601.0L879.1,595.0L900.0,589.7" />
    <path d="M0.0,365.3L7.2,370.2L18.3,383.5L26.5,403.6L41.6,423.1L39.7,435.3L26.5,428.3L13.2,428.4L8.1,423.1L0.0,419.1" />
    <path d="M27.3,449.6L39.7,436.7L52.9,438.0L98.0,476.0L92.6,485.2L87.7,489.3L66.2,497.7L52.9,490.0L30.0,462.8L27.3,449.6" />
    <path d="M381.0,555.4L383.8,544.5L410.3,553.5L423.5,551.4L432.1,581.8L438.7,595.0L422.4,608.3L417.0,621.5L409.3,647.9L406.8,674.4L401.2,700.8L394.2,714.0L400.0,753.7L403.0,766.9L408.7,780.2L428.6,806.6L442.0,833.1L461.6,859.5L457.8,872.7L454.1,899.2L456.7,912.4L472.2,938.8L463.2,951.2L450.0,954.9L410.3,1008.1L397.1,1017.8L383.8,1017.8L370.6,1024.8L357.4,1019.0L360.4,1005.0L367.5,991.7L378.4,978.5L383.8,966.8L397.1,958.5L410.3,953.1L416.9,938.8L416.4,925.6L410.3,914.4L397.1,911.1L389.6,899.2L383.8,894.5L380.0,886.0L383.8,869.5L399.4,859.5L406.2,846.3L406.3,833.1L397.1,817.2L380.0,806.6L370.6,803.4L339.3,780.2L341.1,766.9L339.1,753.7L350.8,740.5L334.0,727.3L327.5,700.8L344.1,697.6L351.6,687.6L357.4,677.7L366.0,647.9L378.6,634.7L384.3,621.5L385.2,608.3L383.8,602.7L380.6,595.0L370.2,581.8L381.0,555.4" />
    <path d="M752.0,727.3L767.6,722.3L780.9,726.5L833.8,819.4L848.6,833.1L873.5,864.0L878.3,872.7L873.5,878.6L860.3,874.3L847.1,873.1L833.8,877.2L820.6,858.8L807.4,846.2L794.1,837.5L767.6,781.9L752.4,766.9L744.4,753.7L740.3,740.5L741.2,736.2L752.0,727.3" />
    <path d="M0.0,765.5L17.2,780.2L17.4,793.4L27.8,819.8L0.0,824.4" />
    <path d="M87.7,938.8L92.6,934.2L105.9,928.2L119.1,927.0L156.6,952.1L159.8,965.3L145.6,978.9L132.4,988.0L119.1,982.4L92.6,958.2L88.0,952.1L87.7,938.8" />
    <path d="M780.4,965.3L794.1,975.0L807.4,978.6L820.6,973.8L833.8,981.5L849.8,978.5L847.2,991.7L835.3,1005.0L818.4,1031.4L787.5,1097.5L785.9,1110.7L794.1,1116.2L797.5,1124.0L794.1,1137.2L795.7,1150.4L820.6,1171.9L833.8,1169.5L847.1,1172.8L849.8,1176.9L847.8,1190.1L833.8,1213.1L821.5,1203.3L822.2,1190.1L820.6,1186.5L818.2,1190.1L818.4,1203.3L807.4,1207.2L799.4,1203.3L767.6,1196.2L757.8,1190.1L754.4,1185.7L752.5,1176.9L770.9,1150.4L771.8,1137.2L778.0,1110.7L767.6,1096.0L754.4,1090.7L745.0,1084.3L742.2,1071.1L754.2,1057.9L768.3,1031.4L771.5,1018.2L770.8,1005.0L774.2,978.5L780.4,965.3" />
    <path d="M0.0,1155.1L13.2,1151.1L26.5,1140.6L37.2,1124.0L44.7,1097.5L52.9,1084.8L66.2,1082.3L92.6,1071.6L116.2,1097.5L105.9,1105.8L92.6,1124.0L79.4,1129.7L73.9,1137.2L58.7,1163.6L59.1,1176.9L52.9,1191.0L39.7,1191.9L26.5,1197.1L0.0,1226.2" />
    <path d="M382.9,1137.2L397.1,1132.5L405.4,1137.2L410.3,1151.8L409.9,1176.9L413.0,1190.1L421.5,1203.3L422.4,1229.8L435.7,1243.0L455.6,1256.2L470.3,1282.6L467.5,1295.9L463.2,1298.9L450.0,1292.6L423.5,1285.8L397.1,1275.4L383.8,1258.0L361.4,1216.5L356.7,1203.3L356.2,1176.9L382.9,1137.2" />
    <path d="M501.6,1309.1L503.6,1309.1L503.6,1335.5L489.7,1336.0L482.7,1322.3L489.7,1314.8L501.6,1309.1" />
    <path d="M769.8,1335.5L780.9,1331.6L807.4,1338.8L813.4,1348.8L819.0,1362.0L818.1,1375.2L812.2,1388.4L812.1,1401.7L814.8,1414.9L807.4,1422.9L794.1,1422.5L767.6,1402.7L762.5,1401.7L757.0,1388.4L754.3,1362.0L758.9,1348.8L769.8,1335.5" />
    <path d="M523.9,1362.0L529.4,1354.4L555.9,1350.8L570.8,1362.0L569.6,1375.2L576.7,1388.4L594.7,1401.7L582.4,1403.8L569.1,1391.2L542.6,1383.2L532.1,1375.2L523.9,1362.0" />
    <path d="M613.9,1401.7L622.1,1400.3L635.3,1405.2L661.8,1419.9L701.5,1433.6L727.9,1467.8L741.2,1477.7L754.0,1481.0L741.2,1483.0L727.9,1488.1L714.7,1498.9L661.8,1500.6L656.6,1494.2L657.2,1481.0L650.3,1467.8L600.0,1414.9L608.8,1403.4L613.9,1401.7" />
    <path d="M756.7,1454.5L767.6,1451.3L770.1,1454.5L769.5,1467.8L783.8,1481.0L780.9,1482.9L754.8,1481.0L762.7,1467.8L756.7,1454.5" />
    <path d="M322.0,1600.0L301.7,1586.8L291.2,1571.7L277.9,1563.4L264.7,1558.0L251.5,1557.1L225.0,1560.3L211.8,1566.7L198.5,1568.1L180.0,1547.1L181.3,1533.9L238.2,1518.4L264.7,1514.9L277.9,1516.9L335.6,1547.1L337.9,1560.3L344.1,1566.4L357.4,1575.1L383.8,1582.9L389.3,1586.8L391.1,1600.0" />
    <path d="M564.3,1600.0L573.1,1586.8L582.4,1581.5L608.8,1552.4L622.1,1546.2L635.3,1531.1L648.5,1523.9L661.8,1523.8L675.0,1526.5L688.2,1534.1L701.5,1538.6L713.1,1547.1L709.9,1560.3L720.6,1573.6L741.2,1582.4L754.4,1584.3L767.6,1582.7L780.9,1578.1L791.8,1586.8L797.9,1600.0" />
    <path d="M789.6,1547.1L794.1,1544.3L797.5,1547.1L794.1,1553.8L789.6,1547.1" />
    <path d="M669.1,1600.0L663.8,1586.8L668.3,1573.6L663.9,1560.3L648.5,1551.0L622.1,1566.2L616.2,1573.6L617.9,1600.0" />
    <path d="M0.0,1566.7L25.8,1586.8L25.7,1600.0" />
    <path d="M479.0,1600.0L474.0,1586.8L477.0,1586.8L489.7,1597.4L503.0,1600.0" />
    <path d="M19.2,0.0L11.1,13.2L7.8,39.7L9.5,52.9L0.8,66.1L1.9,79.3L18.5,105.8L13.2,119.2L0.0,113.8" />
    <path d="M421.6,0.0L410.3,8.4L397.1,24.3L370.6,44.5L344.1,48.5L334.3,39.7L325.3,26.4L326.7,13.2L330.9,8.5L353.9,0.0" />
    <path d="M761.8,0.0L767.6,22.0L794.1,25.6L806.3,13.2L812.7,0.0" />
    <path d="M711.4,39.7L714.7,37.9L722.6,39.7L714.7,43.6L711.4,39.7" />
    <path d="M729.2,39.7L741.2,29.6L754.4,32.9L767.6,62.9L772.7,66.1L767.6,80.6L765.0,79.3L761.5,66.1L754.4,64.1L741.2,55.5L727.9,77.1L714.7,79.8L710.2,66.1L714.7,57.9L730.3,52.9L729.2,39.7" />
    <path d="M0.0,169.4L32.2,198.3L47.7,224.8L48.4,238.0L26.5,245.0L0.0,221.1" />
    <path d="M81.5,185.1L92.6,176.2L105.9,182.8L113.8,198.3L117.5,211.6L116.5,224.8L92.6,239.0L79.4,234.5L67.0,224.8L65.9,211.6L76.2,198.3L81.5,185.1" />
    <path d="M195.8,198.3L198.5,196.6L200.1,198.3L201.6,211.6L212.6,224.8L229.7,290.9L225.0,303.5L211.8,313.5L198.6,330.6L192.4,343.8L191.0,357.0L198.5,367.2L211.8,374.9L217.4,383.5L220.9,396.7L223.6,423.1L216.6,449.6L211.8,459.4L198.5,454.3L185.3,458.0L178.9,449.6L175.0,436.4L182.8,409.9L182.9,396.7L174.0,383.5L180.8,357.0L179.1,330.6L187.5,304.1L176.0,251.2L180.5,238.0L190.7,224.8L196.4,211.6L195.8,198.3" />
    <path d="M749.2,198.3L767.6,190.1L780.9,193.9L786.0,198.3L784.1,224.8L780.9,229.5L767.6,237.0L754.4,240.5L741.2,241.1L731.7,238.0L727.9,230.7L727.9,221.6L741.2,199.7L749.2,198.3" />
    <path d="M527.5,211.6L542.6,222.0L555.9,224.4L569.1,221.4L582.4,210.1L583.3,211.6L585.3,224.8L576.8,251.2L578.9,277.7L569.1,289.4L555.9,292.2L529.4,281.0L516.2,278.6L502.9,281.3L476.5,281.0L471.7,277.7L476.5,274.3L489.7,270.8L498.2,264.5L501.0,251.2L485.4,238.0L502.9,222.1L527.5,211.6" />
    <path d="M382.3,224.8L383.8,222.2L397.1,234.7L410.3,235.6L414.1,238.0L410.3,242.8L397.1,244.7L390.2,251.2L397.1,258.3L410.3,263.2L423.5,284.9L434.3,290.9L423.5,309.1L401.4,317.4L392.2,330.6L391.7,343.8L395.4,357.0L410.3,387.3L425.2,409.9L430.8,423.1L437.5,449.6L434.7,476.0L427.9,489.3L423.5,492.1L410.3,491.3L397.1,500.6L387.6,489.3L397.1,479.6L405.4,476.0L407.4,462.8L402.0,436.4L370.6,381.5L362.2,370.2L360.5,357.0L364.4,343.8L363.9,317.4L357.4,309.5L344.1,301.0L327.8,277.7L336.6,264.5L351.7,251.2L363.0,238.0L382.3,224.8" />
    <path d="M861.0,330.6L873.5,326.6L875.0,330.6L870.0,343.8L853.6,370.2L833.8,387.3L818.8,409.9L807.4,432.8L800.6,449.6L802.2,476.0L800.2,489.3L789.5,502.5L774.6,515.7L765.0,528.9L765.6,542.1L772.5,555.4L794.1,567.3L807.4,570.7L831.4,595.0L847.1,601.0L859.2,608.3L863.7,621.5L872.6,634.7L860.3,638.7L767.6,625.1L754.4,614.7L741.2,609.7L727.9,614.5L701.5,611.7L688.2,600.9L672.6,581.8L654.4,568.6L644.2,555.4L643.5,542.1L644.9,528.9L649.8,515.7L648.5,514.2L635.3,509.2L630.3,502.5L622.1,497.4L595.6,491.8L582.4,485.4L569.1,484.7L556.3,476.0L562.7,462.8L578.1,449.6L576.8,423.1L583.0,409.9L575.2,396.7L572.4,383.5L575.6,370.2L582.4,363.8L608.8,362.4L618.2,370.2L629.2,409.9L637.4,449.6L632.8,462.8L634.8,476.0L648.1,489.3L656.5,502.5L661.8,507.0L665.2,515.7L675.0,527.2L701.5,520.7L706.8,515.7L710.9,502.5L709.9,489.3L714.7,485.9L727.9,487.9L741.2,482.0L754.4,468.3L764.9,449.6L757.4,423.1L767.7,409.9L772.5,396.7L807.4,368.6L833.8,336.9L847.1,332.2L861.0,330.6" />
    <path d="M0.0,370.3L12.6,383.5L17.3,396.7L15.2,409.9L0.0,412.6" />
    <path d="M41.8,449.6L52.9,445.5L77.4,462.8L88.8,476.0L79.4,484.6L66.2,490.7L52.9,483.7L33.8,462.8L39.7,450.4L41.8,449.6" />
    <path d="M650.3,528.9L661.8,521.8L671.4,528.9L661.8,537.5L650.3,528.9" />
    <path d="M381.4,568.6L383.8,563.2L397.1,563.8L410.3,561.1L423.5,570.3L428.8,595.0L413.7,608.3L403.9,634.7L402.6,661.2L398.7,687.6L387.6,714.0L389.8,740.5L397.7,766.9L416.2,806.6L410.3,821.0L397.1,806.8L370.6,798.3L363.5,793.4L357.4,782.7L343.8,780.2L357.4,776.0L363.1,766.9L365.9,753.7L364.4,740.5L357.4,733.2L347.8,727.3L349.2,714.0L358.9,700.8L359.2,687.6L370.3,647.9L388.2,634.7L391.2,621.5L392.0,608.3L388.9,595.0L380.1,581.8L381.4,568.6" />
    <path d="M764.7,740.5L780.9,737.9L828.7,819.8L854.1,846.3L855.3,859.5L847.1,863.6L833.8,866.4L815.1,846.3L798.1,833.1L771.7,780.2L758.5,766.9L749.8,753.7L754.4,741.7L764.7,740.5" />
    <path d="M0.0,771.9L9.3,780.2L14.9,806.6L13.2,812.7L4.4,819.8L0.0,820.5" />
    <path d="M417.0,846.3L423.5,836.5L436.8,837.7L455.5,859.5L449.2,899.2L452.3,912.4L467.1,938.8L463.2,944.2L450.0,941.1L439.3,952.1L433.6,965.3L410.3,997.8L397.1,1006.5L383.8,1010.1L370.6,1016.6L366.1,1005.0L373.0,991.7L383.8,977.5L397.1,965.8L410.3,965.8L423.5,945.5L434.5,938.8L419.5,912.4L401.2,899.2L397.1,892.6L388.2,886.0L396.8,872.7L410.3,862.5L417.0,846.3" />
    <path d="M109.0,938.8L119.1,934.0L132.4,941.3L147.7,952.1L153.9,965.3L132.4,982.7L124.4,978.5L111.1,965.3L105.9,953.8L98.1,952.1L105.9,948.6L109.0,938.8" />
    <path d="M779.0,978.5L780.9,974.7L794.1,982.4L807.4,986.7L820.6,985.9L833.8,987.8L838.9,991.7L819.0,1018.2L800.1,1057.9L780.9,1089.9L774.6,1084.3L767.6,1081.4L754.4,1085.0L748.9,1071.1L760.6,1057.9L773.7,1031.4L779.0,978.5" />
    <path d="M0.0,1163.0L13.2,1157.3L26.5,1148.3L42.8,1124.0L45.4,1110.7L52.9,1093.1L79.4,1083.0L92.6,1080.6L96.2,1084.3L102.9,1097.5L92.6,1113.5L79.4,1121.7L66.2,1139.9L53.7,1163.6L55.0,1176.9L52.9,1181.8L26.5,1191.1L13.4,1203.3L0.0,1220.9" />
    <path d="M776.6,1137.2L780.9,1125.8L787.2,1137.2L781.0,1150.4L809.9,1176.9L800.5,1190.1L794.1,1193.8L779.2,1190.1L780.8,1150.4L776.6,1137.2" />
    <path d="M380.5,1150.4L383.8,1145.6L397.1,1152.8L403.3,1163.6L408.5,1190.1L416.0,1203.3L413.4,1229.8L428.3,1243.0L449.5,1256.2L456.9,1269.4L458.9,1282.6L450.0,1287.3L423.5,1281.1L410.3,1272.4L397.1,1267.4L391.9,1256.2L383.8,1247.1L367.3,1216.5L364.2,1203.3L364.6,1176.9L380.5,1150.4" />
    <path d="M830.1,1176.9L833.8,1175.3L838.6,1176.9L833.8,1185.2L830.1,1176.9" />
    <path d="M762.9,1348.8L767.6,1341.8L780.9,1342.8L799.7,1348.8L807.4,1354.9L809.0,1362.0L801.7,1375.2L797.8,1401.7L807.4,1415.0L794.1,1410.4L788.7,1401.7L780.9,1395.8L767.6,1392.3L764.7,1388.4L766.0,1375.2L761.0,1362.0L762.9,1348.8" />
    <path d="M531.4,1362.0L555.9,1355.9L564.5,1362.0L555.2,1375.2L542.6,1379.8L536.6,1375.2L531.4,1362.0" />
    <path d="M615.4,1414.9L635.3,1410.8L661.8,1426.0L700.6,1441.3L686.4,1454.5L684.2,1467.8L688.2,1480.5L701.5,1475.0L714.7,1463.2L724.7,1481.0L714.7,1491.7L701.5,1488.1L688.2,1481.4L675.0,1484.6L631.6,1441.3L623.0,1428.1L622.1,1417.4L615.4,1414.9" />
    <path d="M328.3,1600.0L310.6,1586.8L301.0,1573.6L277.9,1557.7L264.7,1552.8L251.5,1551.8L211.8,1561.2L198.5,1558.5L188.1,1547.1L195.7,1533.9L246.4,1520.7L264.7,1518.4L291.2,1528.3L304.4,1536.6L327.6,1547.1L330.4,1560.3L344.1,1573.9L357.4,1580.9L375.7,1586.8L373.5,1600.0" />
    <path d="M680.0,1600.0L675.1,1586.8L678.9,1573.6L673.8,1560.3L661.8,1546.8L648.5,1540.7L634.2,1547.1L641.4,1533.9L648.5,1530.0L669.9,1533.9L688.2,1542.1L701.5,1545.2L704.0,1547.1L699.0,1560.3L705.1,1573.6L731.3,1586.8L741.2,1598.3L751.6,1600.0" />
    <path d="M0.0,1574.4L15.4,1586.8L15.9,1600.0" />
    <path d="M603.6,1600.0L595.5,1586.8L608.8,1581.1L609.9,1600.0" />
    <path d="M366.0,1600.0L357.4,1596.8L344.1,1597.3L338.3,1600.0" />
    <path d="M754.7,1600.0L767.6,1592.4L780.9,1588.1L788.2,1600.0" />
    <path d="M9.7,0.0L3.5,13.2L0.0,28.5" />
    <path d="M401.4,0.0L389.2,13.2L370.6,27.0L357.4,30.8L344.1,29.7L341.2,26.4L344.1,15.3L357.4,16.4L375.7,0.0" />
    <path d="M0.0,180.9L15.6,198.3L13.2,209.3L0.0,206.4" />
    <path d="M92.3,198.3L105.9,200.0L109.0,211.6L105.9,221.2L92.6,221.2L82.2,211.6L92.3,198.3" />
    <path d="M749.9,211.6L767.6,206.1L774.1,211.6L771.7,224.8L767.6,227.7L741.2,227.0L739.5,224.8L741.2,221.4L749.9,211.6" />
    <path d="M21.1,224.8L26.5,216.8L30.8,224.8L26.5,229.3L21.1,224.8" />
    <path d="M521.4,238.0L529.4,235.0L569.1,235.6L570.9,238.0L555.9,261.8L542.6,269.9L528.9,264.5L521.4,238.0" />
    <path d="M184.0,251.2L185.3,248.7L190.5,251.2L208.0,277.7L207.2,290.9L198.5,295.7L192.9,277.7L195.8,264.5L185.3,256.6L184.0,251.2" />
    <path d="M362.1,277.7L370.6,274.3L383.8,277.5L397.1,277.8L407.4,290.9L411.5,304.1L383.8,313.1L375.4,304.1L370.6,288.2L362.1,277.7" />
    <path d="M380.8,357.0L383.8,355.5L389.6,370.2L404.9,396.7L415.8,409.9L419.8,423.1L410.3,428.0L395.0,409.9L379.0,383.5L373.4,370.2L380.8,357.0" />
    <path d="M829.7,357.0L833.8,352.4L843.1,357.0L838.7,370.2L820.6,392.8L808.9,396.7L807.4,400.4L805.2,396.7L805.0,383.5L820.6,363.0L829.7,357.0" />
    <path d="M0.0,380.3L3.1,383.5L6.2,396.7L0.0,402.2" />
    <path d="M585.9,383.5L595.6,379.5L604.5,383.5L603.9,396.7L608.8,399.6L617.9,423.1L618.0,449.6L608.8,458.1L600.7,449.6L595.6,447.7L589.3,436.4L601.3,409.9L585.9,383.5" />
    <path d="M195.5,396.7L198.5,388.1L210.7,396.7L210.3,409.9L214.3,423.1L211.8,438.2L203.4,436.4L195.3,423.1L195.5,396.7" />
    <path d="M779.8,449.6L780.9,446.6L784.9,462.8L780.9,471.4L775.0,462.8L779.8,449.6" />
    <path d="M45.2,462.8L52.9,458.8L65.3,462.8L73.1,476.0L66.2,480.8L58.3,476.0L45.2,462.8" />
    <path d="M758.2,489.3L767.6,477.9L778.0,489.3L773.1,502.5L767.6,507.1L754.4,513.6L741.2,515.5L733.9,502.5L754.4,494.0L758.2,489.3" />
    <path d="M719.3,568.6L727.9,558.7L741.2,555.6L754.4,557.9L767.6,569.4L799.5,581.8L807.4,588.9L810.5,595.0L820.6,604.4L828.0,608.3L841.0,621.5L833.8,624.5L825.8,621.5L820.6,616.1L794.1,617.0L773.7,595.0L754.4,584.7L727.9,581.6L719.3,568.6" />
    <path d="M375.1,661.2L383.8,651.8L391.3,661.2L389.4,674.4L383.8,686.7L374.4,674.4L375.1,661.2" />
    <path d="M382.4,766.9L383.8,755.3L388.0,780.2L383.8,784.4L379.0,780.2L382.4,766.9" />
    <path d="M785.2,780.2L794.1,778.2L812.8,806.6L817.8,819.8L828.8,833.1L834.9,846.3L820.6,839.8L800.2,819.8L786.8,793.4L785.2,780.2" />
    <path d="M0.0,789.6L3.1,806.6L0.0,809.6" />
    <path d="M419.9,872.7L423.5,866.3L436.8,860.6L443.7,872.7L442.9,886.0L436.8,911.6L416.3,886.0L419.9,872.7" />
    <path d="M791.3,1005.0L794.1,999.5L807.4,999.0L818.2,1005.0L797.6,1031.4L796.3,1044.6L794.1,1048.7L780.9,1059.3L779.2,1057.9L780.9,1045.8L788.5,1031.4L791.3,1005.0" />
    <path d="M75.1,1097.5L80.7,1097.5L75.1,1110.7L66.2,1123.0L57.3,1124.0L52.9,1127.8L55.4,1110.7L66.2,1100.0L75.1,1097.5" />
    <path d="M36.5,1150.4L39.7,1146.0L47.0,1150.4L39.7,1175.5L26.5,1181.0L13.2,1192.0L4.3,1190.1L1.3,1176.9L36.5,1150.4" />
    <path d="M379.0,1176.9L383.8,1165.3L397.1,1175.6L402.2,1203.3L397.1,1208.2L383.8,1212.1L379.0,1203.3L379.0,1176.9" />
    <path d="M418.7,1269.4L423.5,1257.1L436.8,1258.8L444.7,1269.4L436.8,1275.1L423.5,1273.1L418.7,1269.4" />
    <path d="M224.3,1533.9L238.2,1531.3L252.0,1533.9L237.0,1547.1L225.0,1550.1L211.8,1549.6L208.0,1547.1L224.3,1533.9" />
    <path d="M289.1,1547.1L307.3,1547.1L317.6,1563.7L330.9,1574.0L317.6,1574.8L289.1,1547.1" />
    <path d="M696.4,1600.0L701.5,1586.6L715.9,1600.0" />
    <path d="M88.5,211.6L92.6,206.1L102.1,211.6L92.6,215.4L88.5,211.6" />
    <path d="M539.2,251.2L542.6,248.0L547.7,251.2L542.6,256.2L539.2,251.2" />
    <path d="M379.6,290.9L383.8,286.4L397.1,286.8L400.3,290.9L397.1,301.2L383.8,301.6L379.6,290.9" />
    <path d="M383.7,370.2L387.4,383.5L397.1,391.0L411.0,409.9L410.3,412.6L397.1,403.5L383.8,385.4L383.7,370.2" />
    <path d="M818.5,370.2L820.6,367.8L829.9,370.2L820.6,387.2L814.3,383.5L818.5,370.2" />
    <path d="M604.3,423.1L608.8,416.5L611.7,423.1L611.2,436.4L608.8,440.6L595.4,436.4L604.3,423.1" />
    <path d="M742.1,568.6L754.4,564.5L767.6,576.2L783.3,581.8L800.7,595.0L794.1,602.7L786.6,595.0L780.9,585.1L767.6,586.6L754.4,575.2L742.1,568.6" />
    <path d="M383.1,661.2L384.4,661.2L383.8,674.3L383.1,661.2" />
    <path d="M791.6,793.4L794.1,787.9L807.4,804.2L812.0,819.8L822.6,833.1L820.6,834.8L804.1,819.8L804.0,806.6L791.6,793.4" />
    <path d="M430.5,872.7L436.8,869.3L438.7,872.7L436.8,892.5L424.7,886.0L430.5,872.7" />
    <path d="M9.3,1176.9L13.2,1174.2L23.0,1176.9L13.2,1182.5L9.3,1176.9" />
    <path d="M426.2,1269.4L436.8,1266.8L438.8,1269.4L436.8,1270.8L426.2,1269.4" />
  </g>
  <g class="contour-index">
    <path d="M0.0,639.8L13.2,646.3L16.8,661.2L31.1,674.4L88.7,714.0L113.6,727.3L132.4,733.1L172.1,762.6L185.3,770.2L198.5,776.1L211.8,775.8L219.9,766.9L238.2,760.3L242.5,753.7L247.2,740.5L249.1,714.0L247.6,700.8L238.2,667.6L225.0,642.1L218.4,634.7L172.1,607.1L132.4,597.4L119.1,598.6L53.3,608.3L39.7,613.4L5.3,621.5L0.0,626.7" />
    <path d="M555.9,673.2L542.6,681.3L529.4,701.0L516.0,740.5L516.2,767.0L528.3,819.8L530.1,846.3L539.3,912.4L549.6,952.1L550.5,965.3L525.5,1005.0L516.2,1031.4L514.2,1057.9L523.6,1084.3L510.4,1110.7L506.7,1124.0L506.2,1150.4L516.2,1183.3L530.0,1216.5L543.7,1243.0L555.9,1260.4L580.2,1282.6L591.0,1295.9L622.1,1317.1L635.3,1321.4L648.5,1321.5L661.8,1316.9L675.0,1305.8L686.0,1269.4L684.0,1229.8L680.2,1216.5L673.1,1203.3L660.3,1163.6L665.0,1137.2L665.3,1124.0L659.8,1097.5L659.8,1084.3L666.4,1057.9L672.1,1044.6L681.7,1005.0L684.4,991.7L684.3,965.3L699.5,925.6L706.0,886.0L703.8,859.5L695.0,833.1L666.3,780.2L662.1,766.9L661.8,737.9L651.0,714.0L608.8,674.3L582.4,666.1L555.9,673.2" />
    <path d="M211.8,819.0L206.0,833.1L211.8,860.5L225.0,884.4L238.2,900.5L251.5,904.7L258.7,899.2L264.7,889.9L264.7,870.8L251.5,845.1L238.2,829.8L225.0,819.9L211.8,819.0" />
    <path d="M211.8,1136.4L198.5,1143.8L172.1,1142.9L158.8,1150.2L147.2,1163.6L141.8,1176.9L141.4,1190.1L131.4,1203.3L123.2,1229.8L92.6,1294.5L87.9,1309.1L32.8,1375.2L13.2,1401.7L8.9,1414.9L17.9,1428.1L21.6,1441.3L26.5,1448.3L35.5,1454.5L52.9,1460.3L66.2,1462.0L105.9,1457.0L172.1,1456.9L211.8,1454.0L238.2,1450.5L264.7,1442.8L277.9,1441.9L304.4,1445.0L357.4,1446.1L372.9,1441.3L386.3,1428.1L387.9,1414.9L384.6,1401.7L371.4,1388.4L357.4,1378.0L337.0,1348.8L332.1,1335.5L323.6,1322.3L315.4,1295.9L304.4,1269.8L251.5,1158.0L238.2,1140.3L225.0,1132.1L211.8,1136.4" />
    <path d="M196.6,1348.8L199.1,1348.8L198.5,1359.2L196.6,1348.8" />
    <path d="M525.4,0.0L502.9,45.0L489.7,55.2L476.5,54.1L450.0,58.3L437.4,66.1L423.5,77.9L416.9,105.8L423.5,119.7L436.8,116.9L463.2,99.0L476.5,86.0L489.7,80.7L502.9,72.4L505.3,79.3L489.7,104.3L476.5,106.7L463.2,124.1L454.1,132.2L463.2,139.0L476.5,135.5L505.9,158.7L516.2,161.9L542.6,165.3L579.9,145.5L587.5,132.2L585.6,105.8L576.6,79.3L577.6,66.1L569.1,54.8L559.4,52.9L566.8,26.4L568.0,13.2L562.4,0.0" />
    <path d="M627.9,0.0L608.8,2.8L602.9,13.2L602.5,26.4L597.9,39.7L585.8,52.9L591.8,66.1L608.8,76.1L622.1,69.4L624.1,66.1L635.3,59.1L648.5,42.8L652.4,13.2L649.8,0.0" />
    <path d="M79.4,23.1L70.5,26.4L60.8,39.7L66.2,67.0L79.4,84.9L92.6,83.7L105.9,103.2L119.1,114.5L145.6,121.5L158.8,119.7L172.1,115.1L185.3,106.4L198.5,107.6L211.8,100.0L225.2,79.3L226.0,66.1L211.8,47.9L198.5,46.1L185.3,51.5L132.4,20.8L105.9,16.1L79.4,23.1" />
    <path d="M873.5,78.1L873.5,79.7L886.8,81.8L889.3,79.3L886.8,70.4L873.5,78.1" />
    <path d="M900.0,95.7L873.5,118.7L860.3,114.5L851.6,105.8L847.1,97.2L833.8,100.0L830.3,105.8L833.1,132.2L847.1,144.3L848.1,158.7L859.1,185.1L859.8,198.3L851.8,211.6L860.3,223.4L873.5,224.9L886.8,219.0L898.2,211.6L900.0,207.9" />
    <path d="M238.2,155.3L229.5,158.7L234.3,171.9L238.2,173.9L249.0,171.9L248.4,158.7L238.2,155.3" />
    <path d="M52.9,289.6L37.6,304.1L34.0,317.4L34.8,330.6L38.7,343.8L48.7,357.0L63.1,370.2L66.2,377.4L79.4,392.8L92.6,402.2L105.9,404.2L119.1,393.5L122.6,383.5L132.7,370.2L135.8,357.0L135.8,343.8L132.3,330.6L134.9,317.4L133.7,304.1L119.1,288.6L105.9,286.0L92.6,287.8L79.4,285.2L66.2,285.6L52.9,289.6" />
    <path d="M741.2,299.1L722.4,317.4L720.4,330.6L727.9,344.1L741.2,347.2L754.4,346.2L759.9,343.8L767.6,333.0L768.2,317.4L761.1,304.1L754.4,297.8L741.2,299.1" />
    <path d="M476.5,325.2L457.2,343.8L452.6,357.0L454.5,370.2L460.1,383.5L476.5,406.7L489.7,416.4L502.9,419.9L516.2,415.9L529.4,394.6L531.6,370.2L529.4,355.3L516.2,330.2L502.9,322.6L489.7,321.9L476.5,325.2" />
    <path d="M0.0,1514.2L13.2,1508.1L46.1,1520.7L66.2,1530.7L79.4,1530.8L119.1,1514.0L158.8,1509.0L185.3,1502.0L231.5,1494.2L277.9,1478.5L291.2,1482.1L304.4,1480.7L329.8,1494.2L338.7,1507.4L357.4,1516.6L370.6,1518.7L436.8,1542.1L450.0,1545.3L463.2,1544.8L469.3,1547.1L489.7,1562.4L502.9,1565.6L516.2,1565.1L542.6,1560.9L555.9,1553.8L582.4,1526.1L591.2,1520.7L598.6,1507.4L598.9,1494.2L604.4,1481.0L599.3,1467.8L586.9,1454.5L538.1,1414.9L510.8,1401.7L489.7,1378.9L463.2,1363.4L450.0,1345.7L423.5,1333.8L410.3,1325.7L397.1,1321.5L381.3,1295.9L336.6,1243.0L317.6,1225.8L305.1,1203.3L303.5,1190.1L305.5,1176.9L304.6,1150.4L298.5,1137.2L304.4,1123.4L318.7,1110.7L318.7,1084.3L310.9,1071.1L304.4,1069.0L291.2,1068.8L277.9,1073.0L275.3,1057.9L291.3,1031.4L293.0,1018.2L289.5,991.7L291.2,987.6L304.4,986.6L317.6,991.0L330.9,980.1L343.7,965.3L349.1,952.1L350.6,938.8L350.0,925.6L345.7,912.4L337.8,899.2L343.4,872.7L339.6,833.1L335.6,819.8L326.2,806.6L297.1,780.2L295.2,766.9L297.4,753.7L302.4,740.5L301.4,714.0L288.8,687.6L291.2,679.9L320.5,661.2L329.2,647.9L340.6,608.3L341.9,595.0L340.4,581.8L346.7,542.1L344.5,528.9L354.9,489.3L354.8,476.0L348.5,436.4L344.1,423.2L330.9,405.9L317.6,395.2L304.4,391.6L291.2,395.1L277.9,404.2L264.7,422.8L253.1,462.8L245.1,476.0L211.8,515.7L185.3,540.9L158.8,537.5L132.4,537.0L119.1,533.3L105.9,533.6L66.2,542.3L52.9,548.8L26.5,557.2L17.5,542.1L13.2,509.5L0.0,489.0" />
    <path d="M900.0,476.6L872.2,502.5L866.8,515.7L870.4,528.9L873.5,531.8L886.8,536.9L900.0,537.3" />
    <path d="M489.7,606.7L476.5,621.5L469.3,634.7L463.0,647.9L461.1,661.2L447.0,687.6L436.9,714.0L436.8,728.0L444.1,753.7L450.3,766.9L459.5,780.2L471.8,793.4L476.6,806.6L488.3,872.7L489.7,901.1L500.8,938.8L496.2,965.3L489.7,974.9L471.1,991.7L456.0,1018.2L450.3,1031.4L440.9,1071.1L441.3,1084.3L448.4,1097.5L462.7,1110.7L461.0,1137.2L453.3,1150.4L449.1,1163.6L449.5,1176.9L452.7,1190.1L473.0,1229.8L516.5,1269.4L540.9,1309.1L553.7,1322.3L594.5,1348.8L608.8,1360.5L622.1,1366.6L675.0,1381.1L688.2,1381.4L701.5,1378.3L714.7,1369.6L727.9,1350.3L732.4,1309.1L753.7,1295.9L762.2,1282.6L762.5,1269.4L749.0,1243.0L741.2,1236.3L727.6,1216.5L714.1,1203.3L709.5,1190.1L710.8,1176.9L714.7,1163.9L722.3,1150.4L724.7,1137.2L723.4,1124.0L719.1,1110.7L711.4,1097.5L700.0,1084.3L730.9,1031.4L734.1,1018.2L741.6,1005.0L745.6,978.5L739.8,938.8L742.7,925.6L754.4,908.4L763.4,899.2L762.7,872.7L757.9,846.3L734.7,793.4L710.8,766.9L707.3,740.5L708.6,714.0L706.6,700.8L699.3,687.6L688.2,680.7L668.6,674.4L664.5,634.7L657.3,621.5L648.5,612.8L635.3,606.1L608.8,607.7L595.6,599.6L569.1,604.1L542.6,598.0L516.2,599.1L502.9,600.2L489.7,606.7" />
    <path d="M900.0,677.3L876.8,687.6L860.7,700.8L849.1,714.0L849.8,727.3L857.0,740.5L868.0,753.7L886.8,768.1L897.0,793.4L890.5,806.6L892.0,819.8L900.0,847.7" />
    <path d="M0.0,735.9L60.1,753.7L66.2,759.7L86.7,793.4L91.3,819.8L119.0,859.5L142.2,899.2L162.2,925.6L188.1,952.1L196.4,965.3L219.5,991.7L211.8,998.8L185.3,1005.8L172.9,1018.2L166.1,1031.4L158.8,1054.3L159.9,1084.3L157.8,1097.5L118.4,1124.0L107.6,1137.2L92.6,1177.5L89.1,1190.1L88.4,1203.3L82.9,1216.5L79.4,1219.9L52.9,1231.7L39.7,1247.2L0.0,1302.6" />
    <path d="M0.0,1099.4L5.0,1084.3L39.7,1058.8L52.9,1054.5L68.6,1044.6L79.7,1031.4L84.7,1018.2L86.2,1005.0L83.6,991.7L77.2,978.5L57.8,952.1L61.0,912.4L57.2,899.2L44.8,886.0L26.5,872.9L0.0,861.6" />
    <path d="M900.0,1053.7L872.8,1071.1L859.0,1084.3L853.0,1097.5L851.7,1110.7L854.0,1124.0L873.5,1145.1L886.8,1171.6L900.0,1185.7" />
    <path d="M900.0,1303.2L892.7,1322.3L890.8,1335.5L896.8,1375.2L896.7,1401.7L886.8,1416.3L860.3,1445.2L855.5,1454.5L847.1,1463.3L838.8,1467.8L833.1,1481.0L835.7,1494.2L832.9,1507.4L833.3,1533.9L840.5,1560.3L847.1,1572.8L860.3,1589.4L874.4,1600.0" />
    <path d="M158.5,1600.0L145.6,1594.8L132.4,1594.7L116.9,1600.0" />
    <path d="M46.9,0.0L39.7,2.7L27.8,13.2L26.5,16.5L24.4,26.4L30.0,52.9L24.2,66.1L25.7,79.3L52.9,94.2L57.4,105.8L52.9,113.4L39.7,126.3L25.7,132.2L19.0,145.5L22.8,158.7L39.7,174.5L52.9,178.0L66.2,174.6L86.9,145.5L92.6,133.2L105.9,144.2L111.1,158.7L122.0,171.9L132.4,192.4L145.6,206.2L158.8,213.2L172.1,205.2L173.0,185.1L176.7,171.9L185.3,163.4L213.6,198.3L225.0,219.0L238.2,231.2L251.5,235.3L267.3,224.8L284.0,198.3L286.1,185.1L291.2,181.3L304.4,193.9L316.3,211.6L317.6,220.1L326.0,224.8L330.9,225.2L344.1,216.4L346.9,211.6L370.6,193.2L410.3,166.1L423.5,168.6L424.6,171.9L419.8,185.1L417.9,198.3L423.5,212.1L436.8,205.5L458.9,185.1L476.5,178.6L489.7,178.0L516.2,184.0L529.4,195.4L542.6,202.5L555.9,203.6L562.6,198.3L569.1,184.0L582.4,181.4L595.6,184.3L603.2,198.3L604.8,224.8L599.6,251.2L600.0,264.5L607.6,290.9L611.4,317.4L628.6,357.0L648.5,381.0L653.9,383.5L648.4,396.7L654.1,409.9L675.0,423.5L678.4,423.1L687.3,409.9L684.8,396.7L688.2,393.9L692.5,383.5L701.5,374.4L714.7,375.2L727.9,389.5L741.2,394.7L767.6,373.5L780.9,372.0L800.6,357.0L807.4,349.4L818.6,330.6L823.1,317.4L833.8,307.6L847.1,307.6L860.3,301.7L873.5,284.3L883.5,264.5L886.8,261.0L900.0,255.0" />
    <path d="M491.6,0.0L486.3,13.2L476.5,23.7L463.2,28.4L436.8,18.1L423.5,22.5L397.1,47.2L383.8,54.8L371.7,66.1L367.2,79.3L379.4,92.6L381.2,105.8L370.6,113.6L357.4,116.7L349.9,92.6L330.9,77.6L304.4,63.3L294.8,52.9L287.9,39.7L270.3,26.4L264.7,19.8L251.5,14.8L238.2,18.6L225.0,18.3L211.8,12.0L198.5,11.7L172.1,15.2L169.2,13.2L172.8,0.0" />
    <path d="M838.7,0.0L833.4,13.2L836.5,26.4L829.4,39.7L826.9,52.9L808.2,79.3L794.1,85.2L788.5,92.6L754.4,122.1L750.2,119.0L741.2,105.3L727.9,107.2L717.3,119.0L711.3,132.2L710.2,145.5L714.7,146.7L719.7,158.7L727.9,167.2L741.2,172.3L754.4,168.9L767.6,168.5L800.8,185.1L805.2,198.3L800.3,251.2L794.1,260.2L780.9,253.8L767.6,250.4L754.4,250.9L741.2,255.1L724.4,264.5L720.2,277.7L714.7,286.7L701.5,295.4L697.5,290.9L696.8,277.7L707.9,264.5L714.1,251.2L715.7,211.6L709.6,185.1L708.1,158.7L700.8,145.5L688.9,92.6L677.6,13.2L688.2,3.1L701.5,3.3L714.7,1.8L715.3,0.0" />
    <path d="M261.3,119.0L264.7,117.0L273.5,119.0L264.7,123.8L261.3,119.0" />
    <path d="M0.0,353.7L24.2,370.2L36.3,396.7L65.2,436.4L78.1,449.6L105.9,467.4L119.1,468.0L132.4,464.1L147.6,449.6L156.2,436.4L164.5,409.9L164.4,396.7L158.6,383.5L156.4,370.2L158.8,357.0L156.8,343.8L164.4,330.6L168.9,317.4L170.8,304.1L166.5,277.7L158.8,255.3L145.6,244.6L132.4,240.0L119.1,241.0L92.6,254.6L52.9,253.7L13.2,268.0L7.2,264.5L0.0,253.6" />
    <path d="M900.0,1223.0L886.8,1226.4L873.5,1223.6L860.3,1230.4L847.1,1224.8L837.7,1229.8L829.9,1243.0L820.6,1252.7L802.3,1229.8L782.8,1216.5L767.6,1216.3L754.4,1219.5L733.3,1190.1L755.4,1150.4L759.8,1137.2L760.1,1124.0L757.7,1110.7L731.4,1084.3L730.7,1071.1L751.5,1044.6L758.1,1031.4L761.6,1018.2L765.1,978.5L758.9,952.1L767.6,942.5L780.9,945.6L794.1,954.6L807.4,952.8L817.2,938.8L821.3,925.6L822.5,912.4L820.3,886.0L813.7,872.7L787.7,846.3L765.7,806.6L762.0,793.4L753.6,780.2L740.5,766.9L734.2,753.7L730.7,740.5L733.7,727.3L741.2,709.0L749.2,700.8L759.6,674.4L758.6,661.2L752.7,647.9L741.2,640.5L727.9,638.2L714.7,644.3L701.5,654.2L695.6,647.9L692.4,634.7L688.2,630.9L676.3,608.3L661.8,592.0L635.3,578.4L608.8,574.0L604.4,568.6L611.4,555.4L613.8,542.1L611.7,528.9L599.9,515.7L582.4,505.4L569.1,502.2L555.9,502.3L542.6,508.3L529.4,518.7L521.5,528.9L518.4,542.1L522.1,555.4L516.2,567.1L489.7,570.7L483.5,568.6L479.4,555.4L485.2,542.1L489.7,536.1L503.3,528.9L534.2,489.3L557.1,436.4L555.3,423.1L558.6,409.9L556.0,396.7L560.2,370.2L560.4,357.0L544.4,317.4L529.4,300.1L516.2,293.9L502.9,293.7L476.5,297.6L463.2,301.8L424.9,330.6L415.2,343.8L416.1,357.0L429.1,383.5L443.8,423.1L454.6,476.0L460.3,489.3L470.0,502.5L464.8,515.7L450.0,533.8L444.6,555.4L443.6,568.6L447.1,581.8L463.2,595.0L450.0,609.0L436.8,618.3L428.2,634.7L423.8,647.9L420.3,674.4L415.2,687.6L414.5,700.8L407.8,714.0L406.2,727.3L407.5,740.5L409.1,753.7L414.8,766.9L443.2,806.6L466.0,846.3L469.2,859.5L464.2,899.2L466.6,912.4L481.2,938.8L480.3,952.1L476.5,958.5L450.0,973.9L408.5,1031.4L383.8,1079.4L367.6,1044.6L340.2,1031.4L344.1,1022.7L347.8,1005.0L368.2,978.5L380.4,952.1L380.6,925.6L378.2,912.4L371.9,899.2L370.0,886.0L373.1,872.7L369.4,846.3L370.6,839.5L375.1,833.1L369.1,819.8L358.7,806.6L342.3,793.4L330.1,780.2L322.4,753.7L325.4,740.5L319.0,714.0L312.9,700.8L317.6,692.9L331.0,687.6L344.1,678.1L353.7,661.2L362.7,634.7L369.8,621.5L369.7,608.3L359.2,581.8L369.4,555.4L371.0,542.1L365.9,528.9L368.1,515.7L373.6,502.5L375.5,476.0L372.7,462.8L381.7,449.6L381.3,436.4L370.6,408.6L357.5,383.5L347.4,370.2L343.0,343.8L330.9,328.7L322.8,304.1L317.6,296.5L291.2,286.6L279.9,277.7L287.2,264.5L277.9,255.1L268.5,264.5L275.4,277.7L273.0,290.9L250.9,304.1L238.2,356.5L235.3,423.1L231.0,462.8L198.5,498.4L185.3,505.5L172.1,507.4L148.4,502.5L132.4,495.3L119.1,497.1L92.6,502.0L79.4,506.8L52.9,524.2L46.1,515.7L45.3,502.5L40.1,489.3L0.0,435.5" />
    <path d="M900.0,293.0L892.0,317.4L894.2,330.6L890.7,343.8L880.7,357.0L868.0,383.5L860.3,392.8L847.1,400.1L839.6,409.9L833.8,423.1L828.3,449.6L838.2,462.8L847.1,469.8L860.3,470.6L871.1,476.0L860.3,481.7L847.1,493.0L827.7,502.5L811.9,515.7L805.9,528.9L805.2,542.1L815.8,555.4L860.3,576.8L873.5,580.6L886.8,580.8L900.0,577.2" />
    <path d="M714.7,395.4L701.4,409.9L714.7,411.7L718.1,409.9L716.3,396.7L714.7,395.4" />
    <path d="M900.0,654.0L873.5,661.5L833.8,649.9L820.6,647.9L794.1,656.6L788.7,661.2L780.6,674.4L778.2,687.6L802.2,740.5L828.4,780.2L833.8,794.0L842.3,806.6L860.3,825.0L873.5,843.6L886.8,864.8L893.2,886.0L888.0,912.4L893.9,938.8L874.8,978.5L847.1,1012.4L820.6,1067.5L819.2,1071.1L820.6,1074.0L831.2,1084.3L810.3,1124.0L810.8,1137.2L821.7,1150.4L847.1,1159.0L853.1,1163.6L873.5,1197.7L900.0,1212.3" />
    <path d="M0.0,756.7L23.7,766.9L33.8,780.2L33.8,793.4L47.3,833.1L39.7,837.1L13.2,832.0L0.0,832.4" />
    <path d="M99.4,912.4L105.9,901.6L131.1,925.6L158.8,942.6L165.0,952.1L168.2,965.3L162.3,978.5L120.4,1018.2L121.9,1031.4L119.1,1041.0L116.3,1031.4L118.7,1005.0L113.9,991.7L78.3,952.1L77.0,938.8L79.4,933.3L99.4,912.4" />
    <path d="M860.3,909.9L860.3,919.6L873.8,912.4L860.3,909.9" />
    <path d="M0.0,1139.3L13.2,1133.5L21.7,1124.0L32.0,1097.5L42.3,1084.3L52.9,1076.3L66.2,1072.8L79.4,1066.1L105.9,1046.0L117.3,1057.9L118.3,1071.1L130.6,1084.3L131.1,1097.5L105.9,1117.0L69.6,1163.6L65.6,1190.1L55.8,1203.3L39.7,1203.1L26.5,1211.2L0.0,1241.2" />
    <path d="M302.8,1600.0L291.2,1591.8L277.9,1574.9L264.7,1569.6L238.2,1569.3L198.5,1584.6L185.8,1573.6L172.1,1555.5L158.8,1548.0L147.6,1547.1L158.8,1545.1L163.5,1533.9L185.3,1524.5L238.2,1510.7L264.7,1507.8L277.9,1503.5L302.0,1520.7L344.1,1541.3L352.0,1547.1L360.1,1560.3L370.6,1563.8L383.8,1564.2L397.1,1562.6L423.5,1555.1L436.8,1562.3L463.2,1567.9L489.7,1585.3L502.9,1590.4L529.4,1595.0L542.6,1590.5L562.6,1573.6L595.6,1551.4L608.8,1538.4L617.7,1533.9L632.2,1520.7L636.0,1507.4L633.5,1494.2L637.9,1481.0L637.6,1467.8L611.8,1441.3L581.4,1414.9L542.6,1390.9L529.4,1386.3L516.2,1367.7L502.9,1355.2L489.7,1346.8L478.4,1335.5L463.2,1315.2L455.7,1309.1L436.8,1298.5L410.3,1294.0L397.1,1287.1L381.7,1269.4L350.2,1216.5L343.1,1176.9L346.5,1163.6L359.6,1150.4L370.6,1113.5L383.8,1114.3L397.1,1119.8L410.3,1116.0L423.5,1116.0L436.8,1120.8L440.3,1124.0L438.0,1137.2L426.1,1150.4L421.9,1163.6L420.9,1176.9L423.1,1190.1L430.7,1203.3L436.0,1229.8L472.3,1256.2L482.3,1269.4L496.5,1282.6L504.2,1295.9L516.2,1307.3L518.9,1322.3L529.4,1333.4L542.6,1337.1L568.0,1348.8L582.4,1366.0L595.6,1375.4L622.1,1388.7L684.0,1414.9L701.5,1417.9L717.1,1414.9L727.9,1409.8L736.3,1401.7L741.2,1389.3L742.8,1375.2L754.4,1331.9L767.6,1321.5L780.9,1319.0L807.4,1317.9L820.6,1310.9L826.1,1322.3L827.8,1348.8L833.7,1375.2L826.0,1428.1L820.6,1437.4L800.2,1441.3L794.1,1447.8L788.5,1467.8L800.2,1481.0L806.5,1494.2L794.1,1503.1L782.9,1494.2L779.3,1494.2L756.2,1507.4L751.0,1520.7L767.6,1531.7L780.9,1532.6L802.7,1520.7L807.4,1515.8L813.5,1533.9L808.1,1573.6L812.9,1586.8L820.7,1600.0" />
    <path d="M0.0,1546.0L13.2,1550.5L26.5,1562.1L52.9,1574.2L62.2,1586.8L47.0,1600.0" />
    <path d="M13.1,0.0L7.3,13.2L1.9,52.9L0.0,55.8" />
    <path d="M410.5,0.0L397.1,15.7L370.6,36.7L357.4,40.0L344.1,38.4L333.4,26.4L335.4,13.2L344.1,8.5L357.4,6.3L366.4,0.0" />
    <path d="M774.9,0.0L779.1,13.2L794.1,17.4L805.7,0.0" />
    <path d="M0.0,85.1L4.8,92.6L0.0,103.5" />
    <path d="M0.0,175.9L11.7,185.1L22.8,198.3L37.5,224.8L26.5,236.2L0.0,213.2" />
    <path d="M89.5,185.1L92.6,182.6L97.4,185.1L105.9,191.0L109.6,198.3L113.2,211.6L110.3,224.8L105.9,228.0L92.6,229.0L79.4,224.7L74.7,211.6L85.0,198.3L89.5,185.1" />
    <path d="M739.4,211.6L741.2,209.1L767.6,199.8L780.9,205.2L778.3,224.8L767.6,232.3L754.4,236.0L741.2,235.6L733.0,224.8L739.4,211.6" />
    <path d="M194.3,238.0L198.5,234.1L206.0,238.0L211.8,250.5L213.5,264.5L221.5,290.9L198.5,312.0L185.3,280.3L180.0,251.2L185.3,240.7L194.3,238.0" />
    <path d="M503.2,238.0L516.2,230.6L529.4,226.3L555.9,229.9L569.1,228.3L576.1,238.0L569.8,251.2L572.2,264.5L570.9,277.7L569.1,279.8L555.9,282.2L529.4,273.9L516.6,264.5L513.5,251.2L503.2,238.0" />
    <path d="M348.8,277.7L357.4,268.1L370.6,265.6L397.1,270.3L408.9,277.7L417.3,290.9L418.9,304.1L410.3,309.7L389.8,317.4L384.2,330.6L385.1,343.8L395.3,370.2L409.8,396.7L420.6,409.9L426.8,423.1L425.9,436.4L428.5,462.8L423.5,477.0L417.3,462.8L416.6,449.6L410.3,442.4L401.6,423.1L390.2,409.9L367.1,370.2L366.6,357.0L370.6,347.1L377.4,343.8L382.2,330.6L375.0,317.4L353.0,290.9L348.8,277.7" />
    <path d="M183.4,330.6L185.3,323.1L189.3,330.6L185.3,336.5L183.4,330.6" />
    <path d="M847.2,343.8L860.3,340.2L863.0,343.8L844.9,370.2L833.8,380.6L803.2,423.1L792.9,449.6L793.1,462.8L788.2,476.0L788.3,489.3L780.8,502.5L754.4,525.6L741.2,528.0L727.9,527.4L719.9,515.7L722.1,502.5L727.9,497.4L746.7,489.3L759.3,476.0L772.7,449.6L779.2,423.1L778.1,409.9L780.0,396.7L794.1,387.6L796.3,383.5L807.4,374.9L833.8,344.4L847.2,343.8" />
    <path d="M184.6,370.2L185.3,368.2L211.8,384.3L216.2,396.7L218.9,423.1L216.3,436.4L211.8,447.0L198.5,443.4L185.3,444.2L181.0,436.4L183.1,423.1L189.4,409.9L189.2,396.7L180.2,383.5L184.6,370.2" />
    <path d="M581.7,370.2L608.8,368.7L610.7,370.2L616.8,396.7L622.6,409.9L629.6,449.6L626.1,462.8L625.7,476.0L622.1,483.8L595.6,480.6L582.4,476.8L569.1,479.8L563.6,476.0L569.1,467.0L582.4,456.6L587.8,449.6L583.1,436.4L584.4,423.1L590.9,409.9L577.7,383.5L581.7,370.2" />
    <path d="M0.0,375.3L7.8,383.5L11.7,396.7L0.0,407.1" />
    <path d="M37.6,462.8L39.7,458.5L52.9,452.4L71.7,462.8L80.1,476.0L66.2,485.5L52.9,477.9L37.6,462.8" />
    <path d="M698.6,542.1L714.7,532.2L741.2,536.1L747.0,542.1L754.4,543.6L760.8,555.4L777.7,568.6L807.4,577.8L820.6,596.6L833.8,603.7L847.7,608.3L852.6,621.5L847.1,627.5L833.8,630.2L820.6,626.0L794.1,624.9L782.1,621.5L767.6,611.1L764.4,608.3L759.2,595.0L754.4,592.6L741.2,590.3L727.9,593.5L714.7,593.2L710.4,581.8L702.1,568.6L698.6,542.1" />
    <path d="M407.1,568.6L411.9,568.6L420.2,581.8L416.4,595.0L410.3,600.1L397.1,599.5L397.7,581.8L407.1,568.6" />
    <path d="M662.9,568.6L675.0,558.9L681.0,568.6L675.0,572.5L662.9,568.6" />
    <path d="M378.9,647.9L383.8,644.0L397.1,644.7L397.8,661.2L391.6,687.6L379.2,714.0L379.0,727.3L370.6,732.1L365.9,727.3L362.0,714.0L368.8,700.8L367.4,687.6L369.1,661.2L370.6,657.0L378.9,647.9" />
    <path d="M375.7,753.7L383.8,745.4L389.4,753.7L391.4,766.9L403.6,793.4L397.1,799.7L370.6,791.4L366.9,780.2L374.4,766.9L375.7,753.7" />
    <path d="M758.7,753.7L767.6,750.5L780.9,749.8L789.6,766.9L794.1,770.3L809.5,793.4L823.3,819.8L848.5,846.3L847.1,850.4L833.8,857.3L807.4,832.7L796.2,819.8L776.6,780.2L764.6,766.9L758.7,753.7" />
    <path d="M0.0,779.3L6.4,793.4L8.9,806.6L0.0,815.1" />
    <path d="M420.1,859.5L423.5,852.7L436.8,849.9L448.6,859.5L448.7,872.7L444.4,899.2L445.6,912.4L453.5,925.6L450.0,931.4L436.8,926.2L423.5,906.7L410.4,899.2L406.6,886.0L410.3,882.1L420.1,859.5" />
    <path d="M113.0,952.1L119.1,942.5L132.4,946.9L139.5,952.1L147.4,965.3L132.4,974.4L119.1,962.1L113.0,952.1" />
    <path d="M421.8,965.3L423.5,962.8L424.9,965.3L410.3,982.7L403.9,978.5L410.3,976.3L421.8,965.3" />
    <path d="M380.4,991.7L383.8,987.2L393.4,991.7L383.8,999.5L380.4,991.7" />
    <path d="M788.3,991.7L794.1,989.0L820.6,997.0L824.5,1005.0L805.1,1031.4L801.2,1044.6L794.1,1057.7L780.9,1070.0L767.6,1069.5L767.0,1057.9L779.0,1031.4L780.9,1016.0L788.3,991.7" />
    <path d="M0.0,1170.6L13.2,1163.5L30.7,1150.4L41.0,1137.2L47.8,1124.0L52.9,1102.8L58.2,1097.5L79.4,1089.6L89.3,1097.5L83.9,1110.7L79.4,1113.7L60.3,1137.2L48.5,1163.6L48.4,1176.9L26.5,1186.0L5.5,1203.3L0.0,1213.7" />
    <path d="M378.3,1163.6L383.8,1155.1L397.1,1166.1L410.5,1203.3L396.2,1216.5L389.9,1229.8L397.1,1240.2L410.3,1250.6L423.5,1246.6L441.9,1256.2L450.7,1269.4L450.0,1276.2L436.8,1279.3L423.5,1277.1L413.5,1269.4L410.3,1260.2L394.2,1243.0L383.8,1235.9L372.0,1203.3L372.6,1176.9L378.3,1163.6" />
    <path d="M790.6,1176.9L794.1,1173.7L797.6,1176.9L794.1,1181.5L790.6,1176.9" />
    <path d="M766.8,1348.8L767.6,1347.5L780.9,1354.4L794.1,1357.0L799.3,1362.0L791.0,1375.2L780.9,1383.5L767.7,1362.0L766.8,1348.8" />
    <path d="M552.6,1362.0L557.2,1362.0L546.0,1375.2L541.0,1375.2L542.6,1369.9L552.6,1362.0" />
    <path d="M632.8,1428.1L635.3,1421.6L648.5,1423.1L661.8,1433.4L682.9,1441.3L676.0,1454.5L675.0,1468.7L661.8,1462.1L639.0,1441.3L632.8,1428.1" />
    <path d="M212.5,1533.9L238.2,1526.9L251.5,1526.2L291.2,1532.6L304.4,1541.2L318.0,1547.1L323.9,1560.3L337.5,1573.6L344.1,1583.8L357.5,1586.8L330.9,1590.1L317.6,1584.1L308.8,1573.6L291.2,1558.9L277.9,1551.8L264.7,1547.7L251.5,1545.7L238.2,1550.6L211.8,1555.4L199.5,1547.1L212.5,1533.9" />
    <path d="M0.0,1582.5L5.3,1586.8L7.3,1600.0" />
    <path d="M687.5,1600.0L684.1,1586.8L688.2,1574.2L717.5,1586.8L731.2,1600.0" />
  </g>
  <g class="contour-label">
    <text x="511.6" y="1168.4" transform="rotate(73.1 511.6 1168.4)">350</text>
    <text x="342.1" y="967.1" transform="rotate(-49.0 342.1 967.1)">580</text>
    <text x="446.9" y="581.0" transform="rotate(75.1 446.9 581.0)">810</text>
    <text x="412.3" y="399.8" transform="rotate(50.6 412.3 399.8)">1040</text>
  </g>
</svg>
