<svg viewBox="0 0 900 1600" preserveAspectRatio="xMidYMid slice" xmlns="http://www.w3.org/2000/svg" aria-hidden="true">
  <style>
    .contour-minor { fill: none; stroke: var(--line-soft); stroke-width: 1; opacity: 0.3; }
    .contour-index { fill: none; stroke: var(--line); stroke-width: 1.1; opacity: 0.42; }
    .contour-label {
      font-family: 'Noto Sans Miao', -apple-system, 'Segoe UI', sans-serif;
      font-size: 8px;
      letter-spacing: 0.02em;
      fill: var(--ink-muted);
      stroke: var(--bg);
      stroke-width: 3px;
      paint-order: stroke fill;
      text-anchor: middle;
      opacity: 0.55;
    }
  </style>
  <g class="contour-minor">
    <path d="M900.0,146.4L855.5,211.6L841.8,224.8L831.6,238.0L812.2,277.7L803.3,304.1L801.0,317.4L804.1,330.6L807.4,335.3L827.8,357.0L831.9,370.2L847.1,384.2L873.5,388.9L886.8,385.9L900.0,376.9" />
    <path d="M542.6,208.8L529.4,212.3L499.4,224.8L489.7,243.8L467.5,264.5L466.3,290.9L463.2,299.8L456.4,304.1L463.2,314.6L476.5,304.8L495.1,330.6L495.8,343.8L492.2,357.0L499.6,370.2L523.6,383.5L521.4,396.7L528.5,409.9L542.1,423.1L540.7,436.4L542.9,449.6L539.7,476.0L545.5,489.3L555.9,504.7L595.6,527.7L608.8,529.3L635.3,523.0L648.5,513.8L660.9,489.3L664.7,476.0L665.5,462.8L662.2,449.6L636.7,396.7L614.2,370.2L593.8,317.4L593.2,304.1L589.8,290.9L582.4,282.4L569.1,272.1L564.4,264.5L568.5,251.2L578.1,238.0L581.6,224.8L574.8,211.6L569.1,208.4L555.9,205.5L542.6,208.8" />
    <path d="M132.4,261.9L119.1,277.8L113.7,290.9L114.5,304.1L123.8,330.6L113.7,343.8L112.7,357.0L115.5,370.2L118.3,409.9L124.2,423.1L132.4,436.0L145.6,449.7L172.1,460.3L198.5,462.5L211.8,456.3L238.2,464.4L251.5,458.3L264.7,441.3L272.2,436.4L268.5,423.1L264.7,419.8L251.5,420.1L243.4,409.9L238.2,397.1L225.0,380.5L211.8,375.9L209.5,370.2L209.8,357.0L201.4,330.6L185.3,316.5L172.1,324.7L168.9,317.4L154.0,304.1L156.7,277.7L148.9,264.5L145.6,261.7L132.4,261.9" />
    <path d="M900.0,641.1L878.9,608.3L862.4,595.0L835.7,568.6L820.6,559.9L807.4,554.8L767.6,552.8L759.5,555.4L754.4,563.3L753.6,568.6L761.1,581.8L772.8,595.0L780.3,608.3L794.1,613.6L803.4,621.5L812.7,647.9L807.0,661.2L816.6,687.6L820.3,740.5L814.1,886.0L817.3,899.2L831.5,912.4L821.2,938.8L806.5,952.1L797.5,965.3L795.8,978.5L798.4,991.7L822.4,1044.6L824.9,1071.1L831.6,1084.3L846.6,1097.5L849.9,1110.7L846.0,1137.2L852.3,1150.4L860.3,1155.6L873.5,1157.4L886.8,1163.5L900.0,1158.9" />
    <path d="M0.0,1331.6L39.7,1325.9L52.9,1320.2L66.2,1310.0L91.6,1269.4L114.2,1256.2L128.4,1243.0L138.1,1229.8L158.8,1207.8L171.4,1190.1L186.7,1176.9L210.1,1137.2L215.1,1110.7L225.0,1102.4L238.2,1076.9L247.3,1057.9L255.2,1031.4L281.7,1005.0L310.4,965.3L318.4,938.8L315.3,925.6L320.8,899.2L323.5,872.7L322.9,846.3L312.1,819.8L291.2,799.5L277.9,795.9L264.7,799.7L251.5,807.4L238.2,821.6L224.9,846.3L215.2,859.5L203.8,886.0L192.0,899.2L183.6,912.4L170.9,952.1L169.6,965.3L173.0,991.7L183.4,1031.4L172.1,1040.5L158.8,1041.6L145.6,1048.7L126.3,1071.1L124.3,1084.3L119.1,1090.6L105.9,1097.3L79.4,1121.3L66.2,1123.6L13.2,1146.7L0.0,1154.2" />
    <path d="M900.0,1033.4L896.0,1031.4L900.0,1018.2L900.0,1004.5" />
    <path d="M282.7,1600.0L277.9,1559.0L255.2,1494.2L247.2,1481.0L238.2,1475.2L225.0,1473.1L219.2,1467.8L248.2,1428.1L251.5,1420.8L258.0,1401.7L263.1,1375.2L274.2,1362.0L283.3,1335.5L277.9,1320.4L264.7,1318.7L251.5,1332.8L225.0,1355.5L211.8,1378.7L198.5,1385.5L185.3,1396.0L172.1,1396.4L158.8,1405.5L132.4,1439.4L117.0,1454.5L107.6,1467.8L104.9,1481.0L39.7,1513.8L3.8,1547.1L0.0,1555.9" />
    <path d="M900.0,134.0L881.1,158.7L858.3,198.3L847.1,212.9L832.5,224.8L813.4,251.2L799.1,290.9L794.1,297.6L784.5,304.1L781.1,317.4L794.1,346.2L803.0,357.0L805.7,370.2L815.5,383.5L820.6,395.5L833.8,405.3L860.3,402.4L873.5,405.5L886.8,402.6L900.0,396.5" />
    <path d="M529.4,196.2L516.2,200.7L502.9,214.5L489.7,218.6L476.5,234.1L467.2,238.0L463.2,244.0L450.0,249.5L423.5,275.0L412.2,277.7L412.0,290.9L416.4,304.1L450.0,344.7L477.9,383.5L489.7,394.9L502.9,400.4L516.2,416.2L525.4,423.1L533.5,449.6L520.6,462.8L522.6,476.0L527.7,489.3L541.9,502.5L546.8,515.7L562.8,528.9L608.8,545.9L622.1,544.9L635.3,547.7L648.5,543.3L661.8,532.1L669.8,502.5L679.4,489.3L684.0,462.8L684.2,449.6L661.8,404.5L631.2,357.0L614.2,317.4L605.2,304.1L604.8,290.9L599.8,277.7L595.6,273.1L580.1,264.5L581.6,251.2L596.6,238.0L603.0,224.8L605.1,211.6L602.7,198.3L595.6,191.3L582.4,192.3L569.1,190.2L542.6,192.4L529.4,196.2" />
    <path d="M119.1,235.0L105.9,242.2L96.9,264.5L94.5,277.7L96.6,304.1L106.8,317.4L100.0,343.8L105.7,383.5L105.8,409.9L109.7,423.1L119.1,441.9L138.8,462.8L164.6,476.0L185.3,481.2L211.8,474.8L211.3,489.3L225.0,512.1L238.2,508.9L251.5,492.3L277.9,479.2L291.2,481.8L304.4,480.9L307.5,476.0L310.6,462.8L310.0,449.6L304.4,431.3L291.2,409.2L278.0,396.7L251.5,381.2L239.3,370.2L225.0,346.9L220.2,330.6L211.8,316.1L198.5,310.2L191.0,304.1L185.3,293.5L172.1,296.2L168.0,290.9L168.3,264.5L158.8,242.8L145.6,232.5L119.1,235.0" />
    <path d="M900.0,606.7L873.5,587.8L860.6,568.6L847.1,556.5L820.6,538.4L807.4,531.9L767.6,518.2L754.4,515.9L741.2,518.7L727.9,525.2L724.3,528.9L720.5,542.1L727.9,570.3L736.9,581.8L754.4,596.3L765.1,608.3L767.6,615.3L794.1,631.5L796.1,634.7L794.3,647.9L789.2,661.2L789.9,674.4L802.6,700.8L811.3,727.3L806.0,740.5L801.7,780.2L800.3,819.8L794.1,860.4L792.5,886.0L795.7,899.2L801.8,912.4L811.4,925.6L801.8,938.8L787.5,952.1L780.6,965.3L780.4,978.5L783.0,991.7L799.3,1018.2L804.5,1031.4L804.2,1057.9L808.4,1071.1L838.4,1110.7L826.2,1137.2L826.3,1150.4L831.0,1163.6L847.1,1173.0L860.3,1176.1L873.5,1190.6L900.0,1196.3" />
    <path d="M0.0,578.3L7.2,595.0L26.5,617.3L39.7,619.7L52.9,617.5L71.1,608.3L80.1,595.0L84.1,568.6L76.4,555.4L66.2,547.0L52.9,539.9L22.0,542.1L1.1,555.4L0.0,559.3" />
    <path d="M0.0,1340.7L26.5,1341.5L39.7,1339.8L52.9,1335.0L66.2,1326.4L80.6,1309.1L92.8,1282.6L140.9,1243.0L183.3,1190.1L198.6,1176.9L215.3,1150.4L228.8,1124.0L232.0,1110.7L257.9,1057.9L266.8,1031.4L291.2,1008.5L302.1,991.7L318.1,978.5L327.1,965.3L329.1,952.1L327.1,925.6L329.5,912.4L335.9,899.2L332.5,872.7L333.1,846.3L329.2,833.1L330.2,819.8L325.5,806.6L304.4,785.4L291.2,777.3L277.9,774.2L264.7,777.4L251.5,792.5L238.2,801.4L225.0,822.2L214.2,846.3L197.2,872.7L194.6,886.0L172.4,912.4L157.9,952.1L156.8,978.5L166.1,1005.0L168.5,1018.2L158.8,1025.2L145.6,1027.8L132.4,1039.1L106.0,1071.1L101.7,1084.3L79.4,1104.0L66.2,1107.9L26.5,1126.8L0.0,1136.4" />
    <path d="M410.3,1145.2L405.2,1150.4L398.6,1163.6L410.3,1173.4L423.5,1166.1L427.2,1150.4L423.5,1144.2L410.3,1145.2" />
    <path d="M295.8,1600.0L295.0,1586.8L289.7,1573.6L290.4,1560.3L287.9,1547.1L267.9,1481.0L256.7,1467.8L251.5,1465.6L240.9,1454.5L247.8,1441.3L259.5,1428.1L280.1,1388.4L291.2,1373.3L301.9,1348.8L304.4,1328.8L309.9,1322.3L304.4,1320.1L296.9,1309.1L291.2,1287.5L277.9,1280.4L238.2,1299.6L229.2,1322.3L227.8,1335.5L211.8,1356.1L185.3,1380.2L158.8,1374.4L145.6,1384.1L105.9,1443.5L99.7,1454.5L97.2,1467.8L87.7,1481.0L79.4,1487.3L66.2,1490.5L52.9,1500.2L39.7,1504.9L0.0,1538.4" />
    <path d="M185.3,1357.0L182.8,1362.0L185.3,1366.1L189.7,1362.0L185.3,1357.0" />
    <path d="M793.2,1600.0L804.9,1573.6L821.1,1547.1L823.4,1533.9L820.6,1509.5L806.2,1507.4L794.1,1513.5L767.6,1532.6L741.2,1560.1L727.9,1579.7L714.7,1591.9L701.5,1600.0" />
    <path d="M631.7,1600.0L622.1,1590.4L613.7,1586.8L595.6,1579.7L582.4,1578.5L569.1,1580.4L555.9,1588.8L543.7,1600.0" />
    <path d="M780.9,67.5L778.9,79.3L772.1,92.6L780.9,103.3L791.8,92.6L794.2,79.3L780.9,67.5" />
    <path d="M900.0,115.9L873.5,157.7L854.5,198.3L842.9,211.6L825.8,224.8L803.1,251.2L794.1,284.5L789.1,290.9L769.5,304.1L769.3,317.4L771.9,330.6L789.9,370.2L793.1,383.5L820.6,414.8L833.8,418.9L847.1,414.4L873.5,415.7L886.8,412.2L900.0,405.4" />
    <path d="M582.4,170.6L542.6,183.7L529.4,184.1L516.2,188.6L489.7,209.8L485.0,211.6L476.5,223.7L450.0,223.1L444.7,238.0L436.8,245.2L423.5,263.1L410.3,259.3L397.1,260.4L390.5,264.5L384.1,277.7L387.7,290.9L397.1,305.0L450.0,367.6L476.5,406.7L489.7,411.7L502.9,413.6L523.3,436.4L513.7,449.6L509.0,462.8L509.3,476.0L515.4,489.3L534.4,502.5L532.3,515.7L542.4,528.9L555.9,537.2L569.1,539.3L574.3,542.1L595.6,558.4L622.1,568.3L635.3,567.1L648.5,562.8L661.8,555.5L674.4,542.1L677.9,515.7L695.3,489.3L691.3,476.0L697.2,462.8L699.1,449.6L694.5,436.4L675.0,402.0L643.7,357.0L625.2,317.4L612.9,304.1L613.5,290.9L611.4,277.7L588.9,251.2L607.4,238.0L619.4,211.6L622.9,198.3L622.1,167.8L608.8,165.8L595.6,169.7L582.4,170.6" />
    <path d="M105.9,220.7L98.6,224.8L92.6,231.1L90.1,238.0L92.9,251.2L80.0,290.9L66.2,297.3L60.0,304.1L61.1,317.4L66.2,324.6L79.4,322.5L92.6,312.4L97.0,317.4L97.2,330.6L91.2,343.8L97.1,370.2L95.4,396.7L105.9,440.9L122.7,462.8L138.4,476.0L158.8,481.2L176.7,489.3L198.5,492.7L206.3,502.5L211.8,518.1L225.0,522.8L238.2,520.6L245.6,515.7L251.5,507.2L264.7,501.4L265.9,502.5L259.7,515.7L264.7,524.7L277.9,542.7L291.2,544.5L294.4,542.1L294.9,528.9L293.2,515.7L288.8,502.5L291.2,500.0L304.4,497.2L317.6,490.1L323.5,476.0L325.3,462.8L324.0,449.6L317.6,431.1L304.4,406.5L291.2,390.9L281.7,383.5L251.5,369.3L228.7,330.6L225.6,317.4L216.2,304.1L211.8,285.7L203.5,277.7L198.5,275.8L185.3,279.9L182.5,277.7L186.5,251.2L185.3,246.9L172.1,235.7L164.5,224.8L145.6,214.7L119.1,215.1L105.9,220.7" />
    <path d="M900.0,593.2L886.8,589.1L878.7,581.8L872.7,568.6L860.7,555.4L820.6,524.7L807.4,516.6L780.9,504.7L767.6,500.3L754.4,500.5L741.2,505.7L727.9,506.9L714.7,510.9L711.4,515.7L709.4,528.9L712.3,555.4L715.4,568.6L723.5,581.8L735.1,595.0L754.4,605.6L760.6,621.5L767.6,627.9L780.9,631.8L784.7,634.7L778.2,661.2L780.9,679.5L793.1,700.8L795.4,714.0L796.0,753.7L789.7,780.2L786.4,819.8L780.9,854.7L780.6,886.0L783.0,899.2L799.5,925.6L774.0,952.1L767.5,965.3L768.1,978.5L772.8,991.7L791.4,1018.2L797.9,1031.4L791.7,1044.6L790.1,1057.9L794.1,1060.2L810.2,1084.3L813.9,1097.5L825.7,1110.7L813.6,1137.2L811.3,1150.4L812.4,1163.6L820.6,1180.6L833.8,1182.9L847.1,1182.0L860.3,1194.0L873.5,1202.5L900.0,1209.2" />
    <path d="M0.0,616.1L13.2,629.2L26.5,637.5L39.7,638.5L52.9,634.2L64.0,621.5L86.8,608.3L92.9,595.0L96.2,568.6L92.6,550.9L79.4,536.3L66.2,526.1L52.9,523.4L39.7,524.6L16.4,528.9L0.0,534.5" />
    <path d="M92.6,646.8L85.0,661.2L92.6,670.7L105.9,678.6L113.9,661.2L101.5,647.9L92.6,646.8" />
    <path d="M0.0,1347.9L13.2,1346.7L26.5,1350.9L45.6,1348.8L66.2,1338.7L83.0,1322.3L92.6,1310.3L96.8,1295.9L115.0,1269.4L135.7,1256.2L151.5,1243.0L172.1,1216.7L179.1,1203.3L204.8,1176.9L225.0,1147.3L234.9,1137.2L240.6,1124.0L247.6,1097.5L255.3,1084.3L256.8,1071.1L266.0,1057.9L275.0,1031.4L291.9,1018.2L304.4,1001.8L315.3,991.7L333.6,978.5L340.7,965.3L340.9,952.1L336.2,938.8L335.3,925.6L344.1,913.1L358.5,899.2L356.3,886.0L344.1,879.7L341.0,872.7L338.6,859.5L339.4,846.3L343.6,833.1L343.6,819.8L340.9,806.6L332.7,793.4L317.6,783.3L299.4,766.9L291.2,763.0L277.9,760.6L258.5,766.9L245.1,780.2L238.2,784.0L220.6,819.8L188.9,872.7L187.0,886.0L172.1,903.7L166.6,912.4L162.2,925.6L152.6,938.8L147.9,952.1L146.7,978.5L156.5,1005.0L124.9,1031.4L81.5,1084.3L26.5,1115.0L0.0,1123.9" />
    <path d="M582.4,779.8L568.6,793.4L564.5,806.6L563.8,819.8L573.4,859.5L595.6,889.6L608.8,897.4L622.1,886.5L627.7,872.7L629.1,859.5L623.2,833.1L622.4,806.6L608.8,787.1L595.6,779.6L582.4,779.8" />
    <path d="M0.0,982.6L10.3,978.5L19.4,965.3L18.3,952.1L13.2,947.6L0.0,944.4" />
    <path d="M410.3,1119.1L399.8,1124.0L383.8,1137.2L375.4,1150.4L375.5,1163.6L372.1,1176.9L375.5,1190.1L383.8,1199.5L397.1,1200.2L410.3,1196.3L423.5,1183.5L429.3,1190.1L419.1,1203.3L419.9,1216.5L423.5,1227.1L436.8,1234.7L450.0,1229.8L466.4,1216.5L470.0,1203.3L466.8,1176.9L463.2,1167.6L450.0,1160.8L444.7,1150.4L446.6,1137.2L436.8,1120.1L410.3,1119.1" />
    <path d="M608.8,1120.1L604.1,1124.0L607.1,1137.2L622.1,1155.1L635.3,1164.9L648.5,1157.3L650.5,1137.2L635.3,1122.4L622.1,1119.7L608.8,1120.1" />
    <path d="M397.1,1229.3L374.0,1243.0L372.5,1256.2L383.8,1261.7L397.7,1256.2L402.1,1243.0L398.7,1229.8L397.1,1229.3" />
    <path d="M357.4,1242.1L352.2,1256.2L357.4,1262.2L367.0,1256.2L357.4,1242.1" />
    <path d="M461.1,1243.0L476.5,1232.1L478.2,1243.0L476.5,1248.9L468.0,1256.2L463.2,1257.7L462.1,1256.2L461.1,1243.0" />
    <path d="M305.3,1600.0L306.0,1586.8L297.9,1560.3L295.7,1533.9L286.4,1494.2L277.9,1469.1L264.7,1459.8L251.0,1454.5L255.2,1441.3L267.3,1428.1L275.6,1414.9L287.9,1388.4L300.2,1375.2L317.6,1349.8L331.5,1322.3L330.9,1307.9L308.6,1295.9L307.6,1269.4L304.4,1262.4L296.7,1256.2L291.2,1254.8L277.9,1257.4L264.7,1264.1L251.5,1275.5L234.5,1282.6L225.0,1293.6L219.7,1322.3L211.8,1333.3L198.5,1333.8L185.3,1339.1L172.1,1351.4L158.8,1359.8L145.6,1362.2L130.5,1375.2L119.1,1391.1L111.8,1414.9L100.1,1441.3L90.6,1454.5L89.7,1467.8L79.4,1480.0L66.2,1483.6L51.2,1494.2L39.7,1499.3L13.2,1519.8L0.0,1523.8" />
    <path d="M794.1,1412.9L782.3,1428.1L794.1,1439.8L801.6,1414.9L794.1,1412.9" />
    <path d="M436.8,1438.2L423.5,1443.4L412.8,1454.5L407.6,1467.8L409.9,1481.0L436.8,1509.0L460.4,1520.7L476.5,1525.6L489.7,1521.5L496.7,1507.4L496.4,1494.2L489.7,1476.9L476.5,1457.7L463.2,1445.2L450.0,1438.7L436.8,1438.2" />
    <path d="M780.9,1431.4L773.3,1454.5L780.9,1455.2L790.6,1441.3L780.9,1431.4" />
    <path d="M811.1,1600.0L833.2,1547.1L836.5,1533.9L835.0,1520.7L838.9,1507.4L838.9,1494.2L835.8,1481.0L833.8,1479.8L820.6,1480.9L819.0,1494.2L807.4,1500.7L779.3,1507.4L766.8,1520.7L759.4,1533.9L741.4,1547.1L733.7,1560.3L714.7,1580.7L682.8,1600.0" />
    <path d="M663.8,1600.0L648.5,1591.5L635.3,1572.5L608.8,1566.7L595.6,1561.5L582.4,1560.1L569.1,1562.1L532.3,1586.8L528.7,1600.0" />
    <path d="M79.4,13.0L70.0,13.2L79.4,16.2L79.4,13.0" />
    <path d="M52.9,26.3L51.2,39.7L52.9,45.3L66.2,47.8L77.5,26.4L66.2,13.5L52.9,26.3" />
    <path d="M132.4,25.8L119.1,26.7L105.9,39.1L100.9,52.9L90.2,66.1L93.8,79.3L105.9,88.2L119.1,84.3L132.4,75.9L145.6,54.1L148.5,39.7L145.6,34.3L132.4,25.8" />
    <path d="M900.0,573.5L886.8,574.5L874.8,555.4L860.3,541.9L842.3,528.9L820.6,505.7L807.4,494.8L780.9,480.5L767.6,476.2L754.4,476.3L734.4,489.3L714.7,491.4L712.5,489.3L703.5,476.0L718.3,462.8L719.3,449.6L716.3,436.4L688.2,392.9L659.4,357.0L635.3,313.5L625.2,304.1L629.8,277.7L623.6,264.5L612.6,251.2L617.6,238.0L635.6,211.6L644.2,185.1L651.4,171.9L661.8,161.3L688.2,146.7L714.7,136.7L741.2,132.5L754.4,137.5L767.6,138.5L809.6,119.0L817.9,105.8L823.1,92.6L825.3,66.1L820.6,50.9L807.4,34.0L780.9,24.7L776.0,26.4L767.6,30.8L758.5,52.9L754.4,57.5L742.1,66.1L727.9,84.0L701.5,103.3L635.3,115.4L616.0,132.2L608.8,141.6L595.6,139.2L582.4,141.8L555.9,151.0L546.5,171.9L542.6,174.6L529.4,173.9L502.9,182.6L489.7,176.7L484.4,185.1L476.5,191.5L460.3,171.9L463.2,166.4L476.5,176.5L484.2,171.9L489.7,157.6L502.9,152.2L516.2,136.4L529.4,132.2L516.2,127.5L502.9,127.6L489.7,131.8L476.5,142.7L450.0,155.3L436.8,164.7L418.1,185.1L411.6,198.3L424.2,224.8L426.4,238.0L423.5,241.5L410.3,245.8L397.1,238.6L383.8,239.5L370.6,244.0L357.4,251.6L353.2,264.5L354.7,277.7L357.4,284.1L435.0,383.5L463.2,429.5L489.7,454.1L493.3,462.8L493.8,476.0L498.0,489.3L518.9,502.5L515.0,515.7L502.9,533.4L489.7,537.8L463.2,535.2L450.0,540.1L439.9,555.4L432.9,581.8L436.8,597.9L463.2,594.3L476.5,600.7L489.7,597.8L516.2,577.3L529.4,577.5L542.6,574.3L555.9,558.9L569.1,558.9L591.6,581.8L595.6,590.3L605.1,595.0L622.1,598.8L635.3,597.6L648.5,592.0L675.0,575.7L688.2,561.3L701.5,560.8L715.9,595.0L727.9,606.6L741.2,611.0L748.8,621.5L754.4,639.1L767.6,645.1L769.5,647.9L763.0,661.2L782.8,700.8L780.0,714.0L781.0,727.3L785.6,740.5L781.9,766.9L772.8,780.2L768.2,793.4L761.0,859.5L767.7,886.0L767.6,904.1L771.9,912.4L783.6,925.6L753.8,952.1L743.9,965.3L748.5,978.5L756.3,991.7L771.5,1005.0L776.0,1018.2L760.6,1031.4L761.1,1057.9L771.4,1071.1L775.2,1084.3L780.9,1095.2L801.5,1124.0L788.9,1176.9L790.7,1190.1L794.1,1197.3L799.0,1203.3L807.4,1208.0L820.6,1206.6L833.8,1201.8L866.4,1216.5L886.8,1236.8L900.0,1237.3" />
    <path d="M291.2,64.9L277.9,71.2L264.7,85.0L250.4,92.6L239.9,105.8L224.9,132.2L221.0,145.5L220.3,158.7L225.0,173.5L238.2,186.3L264.7,183.7L277.9,178.2L283.7,171.9L293.1,158.7L295.3,145.5L300.7,132.2L299.9,119.0L335.9,66.1L330.9,62.0L317.6,58.1L304.4,59.1L291.2,64.9" />
    <path d="M900.0,84.5L893.7,92.6L881.0,119.0L856.3,158.7L850.4,171.9L847.1,176.6L831.9,185.1L828.3,198.3L831.6,211.6L820.6,216.6L803.8,238.0L790.7,251.2L776.5,277.7L767.6,285.2L754.7,290.9L747.1,304.1L747.0,317.4L761.4,343.8L767.8,370.2L780.6,396.7L803.6,423.1L807.4,430.6L820.6,436.9L833.8,434.9L847.1,428.5L860.3,437.1L900.0,415.3" />
    <path d="M52.9,104.8L52.9,109.1L57.5,119.0L66.2,125.4L84.3,105.8L66.2,93.4L52.9,104.8" />
    <path d="M92.6,195.9L79.4,200.5L66.2,212.6L63.5,224.8L63.8,238.0L75.2,251.2L66.2,262.0L52.9,258.6L39.7,259.6L28.9,264.5L20.9,277.7L21.5,290.9L26.5,298.0L40.9,304.1L38.1,317.4L40.8,330.6L52.9,348.9L66.2,354.7L79.4,350.9L85.0,370.2L80.0,396.7L86.7,409.9L90.3,423.1L93.2,449.6L105.9,468.8L127.8,489.3L132.4,491.3L158.8,492.8L172.1,496.4L183.3,502.5L198.5,514.9L195.2,528.9L198.5,542.1L205.4,555.4L211.8,561.1L225.0,567.5L238.2,561.4L264.7,560.9L277.9,569.6L291.2,572.1L304.4,571.2L309.3,568.6L317.6,562.2L321.4,555.4L322.9,542.1L321.8,528.9L326.4,515.7L326.0,502.5L330.9,494.2L344.1,481.0L357.4,476.3L370.6,479.2L383.8,485.8L397.1,482.6L400.8,476.0L398.1,462.8L383.8,461.1L357.4,461.9L344.1,453.2L330.9,435.0L315.4,396.7L305.8,383.5L284.6,370.2L264.7,362.5L251.5,349.6L239.6,330.6L239.8,317.4L231.9,304.1L235.4,277.7L225.0,261.2L211.8,250.5L203.2,224.8L198.5,216.4L185.3,209.2L172.1,216.2L158.8,204.2L145.6,195.9L132.4,194.1L92.6,195.9" />
    <path d="M0.0,645.4L26.5,657.1L39.7,658.3L46.6,661.2L52.4,687.6L52.9,741.3L66.2,752.6L92.6,759.5L105.9,752.2L115.2,727.3L114.5,714.0L146.1,661.2L147.9,647.9L145.0,621.5L133.3,608.3L119.1,604.5L105.9,586.7L104.1,581.8L109.6,568.6L111.0,555.4L101.4,528.9L88.9,515.7L66.2,504.8L52.9,505.2L39.7,511.3L13.2,516.8L10.9,515.7L19.6,489.3L19.9,476.0L13.2,462.3L0.0,454.1" />
    <path d="M450.0,647.3L436.8,653.1L426.4,674.4L436.8,689.3L450.0,684.3L464.1,674.4L463.2,661.0L450.0,647.3" />
    <path d="M0.0,1357.2L13.2,1364.8L52.9,1365.1L79.4,1348.3L104.9,1322.3L109.7,1309.1L113.9,1282.6L119.1,1276.5L171.1,1243.0L183.6,1229.8L192.0,1216.5L191.0,1203.3L225.0,1164.3L277.9,1147.1L291.2,1132.8L305.4,1110.7L311.0,1097.5L312.0,1084.3L291.2,1060.4L285.6,1057.9L282.6,1044.6L290.2,1031.4L304.4,1022.5L330.9,994.5L344.1,994.4L350.5,991.7L357.4,983.6L360.3,978.5L362.7,965.3L358.3,952.1L350.5,938.8L353.1,925.6L370.6,915.0L388.2,899.2L393.4,886.0L390.7,872.7L383.8,860.7L370.6,849.3L361.2,846.3L360.9,806.6L357.8,793.4L349.0,780.2L330.9,773.2L317.6,758.3L304.4,749.2L291.2,745.7L277.9,745.8L256.4,740.5L251.5,734.1L238.2,727.8L226.7,740.5L231.9,753.7L232.0,766.9L218.9,793.4L218.8,806.6L211.8,818.1L198.5,827.3L189.7,819.8L185.3,809.8L176.8,819.8L186.5,846.3L173.7,886.0L162.6,899.2L148.1,925.6L137.5,938.8L131.6,965.3L135.1,991.7L132.8,1005.0L118.9,1018.2L79.4,1063.2L66.2,1074.4L39.7,1090.1L0.0,1107.3" />
    <path d="M555.9,764.0L542.6,773.3L531.4,793.4L532.9,806.6L540.6,819.8L541.3,846.3L549.6,872.7L555.7,886.0L569.1,893.3L575.2,899.2L576.7,912.4L594.5,938.8L600.9,952.1L622.1,969.8L635.3,971.4L641.0,965.3L660.0,925.6L661.4,912.4L653.0,886.0L652.4,859.5L648.5,849.1L638.5,833.1L641.7,819.8L650.9,806.6L653.3,793.4L652.9,780.2L648.5,775.1L622.1,757.3L608.8,762.7L569.1,761.5L555.9,764.0" />
    <path d="M66.2,842.3L63.0,846.3L66.2,860.6L68.1,846.3L66.2,842.3" />
    <path d="M0.0,1004.1L13.2,1001.8L38.8,991.7L48.8,978.5L52.5,965.3L50.8,952.1L44.8,938.8L32.3,925.6L26.5,922.7L0.0,923.7" />
    <path d="M317.3,1600.0L319.9,1586.8L318.9,1573.6L309.5,1547.1L312.4,1520.7L308.2,1481.0L291.2,1450.8L269.9,1441.3L277.9,1431.2L301.6,1388.4L315.2,1375.2L323.4,1362.0L345.7,1335.5L357.4,1307.3L370.6,1297.0L382.0,1282.6L397.1,1275.4L410.3,1261.3L423.5,1251.8L436.8,1260.5L441.4,1269.4L444.6,1282.6L450.0,1289.1L502.9,1313.4L516.2,1316.5L526.5,1322.3L532.7,1335.5L546.7,1348.8L555.9,1353.8L559.1,1348.8L561.6,1335.5L559.5,1322.3L568.3,1309.1L555.9,1293.3L543.2,1282.6L514.6,1269.4L510.4,1256.2L510.0,1243.0L502.9,1220.3L501.2,1216.5L489.7,1208.4L485.6,1203.3L482.0,1190.1L484.5,1176.9L478.4,1150.4L463.2,1136.0L455.0,1124.0L450.0,1101.8L436.8,1092.0L410.3,1087.0L384.9,1097.5L366.8,1110.7L324.5,1163.6L316.6,1176.9L317.6,1179.2L344.1,1185.2L347.6,1190.1L342.7,1203.3L342.8,1216.5L336.5,1229.8L330.9,1234.3L317.6,1234.7L310.1,1229.8L304.4,1222.2L291.2,1225.7L277.9,1237.3L225.0,1265.5L213.4,1282.6L210.4,1309.1L198.5,1318.8L181.8,1322.3L158.8,1342.0L145.6,1343.0L130.7,1348.8L114.6,1362.0L81.3,1401.7L63.7,1441.3L53.0,1454.5L66.2,1463.4L79.4,1450.2L79.4,1461.4L72.7,1467.8L66.2,1469.4L61.6,1467.8L52.9,1454.6L43.3,1467.8L26.5,1480.0L13.2,1488.2L0.0,1492.3" />
    <path d="M582.4,1094.6L577.6,1097.5L569.1,1108.2L567.4,1124.0L569.6,1137.2L582.4,1167.0L604.0,1190.1L622.1,1202.8L635.3,1205.9L648.5,1203.5L659.2,1190.1L664.2,1176.9L680.0,1150.4L681.0,1137.2L678.1,1124.0L661.8,1118.8L648.5,1105.8L635.3,1100.1L622.1,1098.3L608.8,1087.5L582.4,1094.6" />
    <path d="M648.5,1308.2L635.3,1309.2L608.7,1335.5L609.3,1348.8L622.1,1357.0L625.4,1362.0L622.1,1366.5L608.8,1374.1L599.7,1388.4L601.9,1401.7L608.8,1411.5L622.1,1413.4L652.1,1401.7L665.1,1388.4L668.9,1375.2L666.1,1362.0L656.6,1348.8L670.8,1335.5L667.3,1322.3L661.8,1314.9L648.5,1308.2" />
    <path d="M824.6,1600.0L838.8,1560.3L865.7,1507.4L869.4,1494.2L869.4,1481.0L864.4,1467.8L847.1,1455.5L833.2,1454.5L824.1,1441.3L828.0,1428.1L848.5,1401.7L852.1,1388.4L848.6,1375.2L833.8,1364.1L829.0,1348.8L820.6,1339.7L807.4,1335.3L794.1,1341.9L780.9,1358.7L724.3,1467.8L707.0,1520.7L714.7,1534.2L741.2,1530.4L742.9,1533.9L728.3,1547.1L721.1,1560.3L714.7,1567.1L701.5,1568.9L688.2,1556.9L675.0,1557.9L661.8,1552.5L648.5,1541.3L635.3,1536.6L608.8,1535.5L582.4,1539.6L569.1,1538.8L542.6,1551.6L529.4,1554.9L516.2,1548.9L511.4,1560.3L513.2,1586.8L517.2,1600.0" />
    <path d="M423.5,1409.8L410.4,1414.9L397.1,1424.1L383.8,1440.6L377.1,1454.5L373.7,1467.8L375.6,1481.0L410.3,1504.5L436.8,1529.3L450.0,1538.1L463.2,1540.6L474.9,1547.1L476.5,1549.9L489.7,1547.0L502.9,1551.5L514.1,1547.1L514.7,1520.7L517.0,1507.4L522.5,1494.2L522.7,1481.0L517.9,1467.8L510.2,1454.5L489.7,1429.3L471.8,1414.9L450.0,1406.3L436.8,1404.1L423.5,1409.8" />
    <path d="M873.5,1432.5L870.4,1441.3L870.2,1454.5L873.5,1458.9L880.3,1454.5L884.3,1441.3L873.5,1432.5" />
    <path d="M785.2,1481.0L794.1,1478.2L797.4,1481.0L786.0,1494.2L780.9,1496.0L770.6,1494.2L785.2,1481.0" />
    <path d="M66.2,5.4L52.9,15.9L45.6,26.4L45.0,39.7L39.7,48.2L34.2,52.9L39.7,66.9L52.9,69.5L54.3,66.1L66.2,57.4L79.4,56.4L91.4,52.9L79.4,49.7L76.0,39.7L88.4,26.4L92.2,13.2L79.4,6.8L66.2,5.4" />
    <path d="M900.0,558.2L886.8,566.6L880.7,555.4L873.5,551.3L847.9,528.9L820.6,497.3L807.4,485.3L780.9,470.7L767.6,467.1L754.4,467.9L741.2,472.6L727.9,483.7L714.7,483.0L709.8,476.0L725.4,462.8L726.3,449.6L723.9,436.4L717.3,423.1L705.3,409.9L689.2,383.5L655.1,343.8L648.5,328.4L631.1,304.1L636.4,290.9L637.5,277.7L634.3,264.5L623.9,251.2L622.4,238.0L640.0,211.6L643.7,198.3L656.4,171.9L661.8,166.4L675.0,161.6L688.2,151.1L741.2,138.4L754.4,146.2L772.8,145.5L794.1,135.3L807.4,132.5L820.6,118.7L832.7,92.6L835.4,66.1L832.3,52.9L820.6,31.8L807.4,16.9L794.1,10.7L780.9,9.6L767.6,13.2L760.2,26.4L749.9,52.9L733.0,66.1L727.9,72.3L714.7,80.2L701.5,95.7L648.5,107.1L635.3,106.5L608.8,131.8L595.6,128.1L582.4,132.6L569.1,133.8L555.9,116.3L542.6,113.8L516.2,100.0L502.9,102.6L476.5,118.9L436.8,147.2L423.2,158.7L403.4,185.1L398.6,198.3L400.9,211.6L417.4,238.0L410.3,241.2L404.6,238.0L397.1,228.8L370.6,235.4L345.0,251.2L349.1,277.7L354.4,290.9L378.9,317.4L383.1,330.6L433.0,396.7L453.9,436.4L463.2,446.4L476.5,454.8L483.4,462.8L484.9,476.0L491.0,489.3L507.1,502.5L507.0,515.7L502.9,521.8L489.7,525.0L476.5,525.3L463.2,519.2L450.0,519.5L436.8,534.0L424.8,555.4L420.9,581.8L426.7,595.0L425.9,608.3L432.9,621.5L431.8,647.9L423.5,659.9L410.3,650.5L397.1,650.1L391.8,661.2L390.0,674.4L391.5,687.6L397.1,693.6L410.3,690.7L420.9,700.8L423.5,705.9L436.8,707.0L450.1,700.8L463.2,691.2L476.2,674.4L476.5,655.6L473.9,647.9L460.7,634.7L452.3,621.5L463.2,610.5L489.7,606.6L516.2,587.6L529.4,595.7L542.6,588.4L553.3,595.0L562.6,608.3L569.1,610.6L582.4,612.3L608.8,610.1L622.1,612.8L635.3,612.6L648.5,606.0L661.8,592.7L681.7,581.8L688.2,570.5L701.5,568.4L707.4,581.8L709.1,595.0L700.0,608.3L695.7,621.5L714.7,627.7L724.2,621.5L741.2,616.6L744.7,621.5L745.3,634.7L749.2,647.9L754.4,653.3L762.5,674.4L767.6,678.7L777.3,700.8L775.3,714.0L776.3,727.3L781.0,740.5L777.6,766.9L766.3,780.2L761.2,793.4L755.4,819.8L752.6,859.5L759.1,872.7L762.3,886.0L761.4,899.2L764.2,912.4L778.0,925.6L741.3,952.1L731.6,965.3L754.4,996.2L766.1,1005.0L762.1,1018.2L747.3,1031.4L744.5,1044.6L752.5,1057.9L754.1,1084.3L767.6,1091.3L768.8,1097.5L780.9,1107.2L795.3,1124.0L786.3,1163.6L779.3,1176.9L780.8,1203.3L789.9,1216.5L794.1,1219.6L807.4,1219.5L833.8,1211.1L860.3,1225.3L873.5,1242.5L886.8,1252.4L900.0,1251.2" />
    <path d="M119.1,17.1L96.7,39.7L92.8,52.9L82.8,66.1L87.0,79.3L79.4,89.3L52.9,85.2L44.0,92.6L38.9,105.8L52.9,139.7L66.2,144.2L79.4,137.1L92.6,121.8L100.5,105.8L105.9,100.3L119.1,95.6L132.4,87.2L145.6,68.5L156.7,39.7L156.4,26.4L119.1,17.1" />
    <path d="M304.4,51.8L291.2,59.8L277.9,60.5L261.1,66.1L262.5,79.3L251.5,85.4L230.4,105.8L203.3,145.5L204.9,158.7L211.8,180.2L225.0,205.1L238.2,205.7L251.5,203.2L264.7,209.8L277.9,201.3L291.2,188.0L300.5,171.9L304.9,158.7L301.4,145.5L308.9,132.2L307.5,119.0L317.6,101.7L335.3,79.3L350.6,66.1L342.5,52.9L304.4,51.8" />
    <path d="M900.0,72.8L890.5,79.3L881.9,92.6L875.2,119.0L860.3,142.4L856.3,145.5L847.1,162.0L823.2,185.1L819.1,198.3L817.9,211.6L808.7,224.8L786.1,251.2L769.2,277.7L743.7,290.9L733.4,304.1L736.7,317.4L741.2,320.7L754.5,343.8L760.7,370.2L773.7,396.7L797.4,423.1L801.9,436.4L807.4,442.4L820.6,445.5L847.1,438.2L860.3,443.7L873.5,437.6L900.0,418.9" />
    <path d="M509.5,158.7L516.2,152.2L529.4,151.4L540.7,158.7L520.8,171.9L502.9,176.0L497.1,171.9L509.5,158.7" />
    <path d="M66.2,195.1L55.9,211.6L56.4,238.0L52.9,245.9L26.5,254.1L12.1,264.5L8.0,277.7L10.0,290.9L16.4,304.1L26.5,311.1L30.7,317.4L33.4,330.6L39.7,345.4L52.9,363.1L66.2,371.9L79.4,370.0L75.2,383.5L74.0,396.7L87.0,423.1L87.6,449.6L92.9,462.8L105.9,479.7L119.1,492.4L132.4,497.7L158.8,497.7L172.1,500.3L191.5,515.7L189.8,542.1L193.6,555.4L198.5,565.0L217.3,581.8L225.0,586.6L238.2,573.6L264.7,571.0L277.9,578.2L291.2,582.1L304.4,581.2L317.6,574.1L329.4,555.4L331.3,542.1L329.5,528.9L333.2,515.7L331.6,502.5L357.4,485.1L369.9,489.3L370.6,496.7L383.8,496.1L397.1,505.8L410.3,493.7L416.1,476.0L416.8,462.8L407.1,436.4L397.1,421.0L383.8,420.8L381.4,423.1L373.9,436.4L379.6,449.6L370.6,453.0L357.4,452.3L344.1,444.8L330.9,426.6L327.7,409.9L315.3,383.5L295.9,370.2L277.9,364.6L264.7,357.3L252.4,343.8L244.5,330.6L247.1,317.4L238.7,304.1L243.5,277.7L225.0,248.3L215.9,238.0L205.8,211.6L198.5,203.6L185.3,200.8L172.1,209.6L161.0,198.3L145.6,190.1L132.4,186.9L92.6,185.6L79.4,188.7L66.2,195.1" />
    <path d="M0.0,651.5L39.7,670.8L41.6,674.4L46.8,714.0L37.2,740.5L39.7,755.2L50.0,780.2L48.8,793.4L39.7,808.1L36.1,819.8L36.0,833.1L38.8,846.3L48.4,872.7L50.1,899.2L52.9,902.0L66.2,894.3L79.4,880.2L90.7,859.5L94.8,846.3L96.3,806.6L101.7,793.4L105.9,789.7L118.2,766.9L121.8,753.7L127.2,727.3L127.0,700.8L152.3,661.2L158.2,647.9L156.7,634.7L147.6,608.3L119.2,595.0L112.0,581.8L116.1,568.6L117.4,555.4L112.3,542.1L110.0,528.9L105.9,520.5L92.6,507.7L66.2,498.3L52.9,500.4L39.7,507.5L26.5,507.9L20.5,502.5L27.3,489.3L26.5,473.9L13.2,454.9L0.0,447.1" />
    <path d="M558.2,568.6L569.1,564.3L585.6,581.8L582.4,597.4L569.1,592.1L561.4,581.8L558.2,568.6" />
    <path d="M622.1,667.4L613.0,674.4L622.1,682.1L632.3,674.4L622.1,667.4" />
    <path d="M608.8,680.6L604.3,687.6L608.8,692.4L614.5,687.6L608.8,680.6" />
    <path d="M0.0,1361.6L13.2,1372.2L26.5,1372.5L39.7,1369.6L52.9,1373.5L79.4,1356.6L102.3,1335.5L111.9,1322.3L115.9,1309.1L118.0,1282.6L145.6,1263.0L172.1,1247.1L182.5,1243.0L194.5,1229.8L203.1,1216.5L196.3,1203.3L225.0,1169.3L251.5,1166.6L264.7,1167.4L272.1,1163.6L291.2,1146.7L316.3,1110.7L322.2,1097.5L323.4,1084.3L317.6,1071.1L304.4,1063.1L291.2,1051.1L287.4,1044.6L291.2,1038.3L304.4,1028.3L330.9,999.1L344.1,1001.4L357.4,999.5L365.9,991.7L371.9,978.5L372.8,965.3L356.7,938.8L363.1,925.6L395.8,899.2L402.6,886.0L400.7,872.7L394.6,859.5L369.4,833.1L368.8,793.4L363.8,780.2L357.4,773.4L344.1,773.1L334.2,766.9L317.6,748.9L304.4,741.1L291.2,739.3L277.9,740.1L251.5,717.0L238.2,713.1L225.0,716.1L215.0,727.3L215.7,740.5L222.1,753.7L224.5,766.9L214.0,793.4L215.2,806.6L211.8,812.2L199.2,806.6L185.3,795.1L166.3,806.6L155.0,819.8L156.6,833.1L172.1,835.4L179.7,846.3L168.5,886.0L158.8,897.0L145.6,921.5L131.1,938.8L125.2,965.3L129.8,991.7L127.5,1005.0L92.6,1041.8L60.1,1071.1L39.7,1082.9L0.0,1099.6" />
    <path d="M555.9,753.3L530.8,766.9L522.2,780.2L517.1,793.4L517.2,806.6L529.4,819.5L536.4,833.1L534.6,846.3L542.6,877.9L546.5,886.0L555.9,894.4L565.2,899.2L569.1,915.1L585.9,938.8L595.6,961.2L622.1,987.7L635.3,996.4L648.5,991.9L661.8,969.6L673.7,925.6L672.6,912.4L665.4,899.2L657.2,872.7L657.9,859.5L648.4,833.1L652.1,819.8L660.9,806.6L661.7,780.2L639.3,753.7L635.3,744.8L608.8,745.7L582.4,754.2L555.9,753.3" />
    <path d="M0.0,1008.6L25.5,1005.0L51.2,991.7L58.1,978.5L60.0,965.3L53.8,938.8L39.7,920.4L26.5,915.4L13.2,916.1L0.0,912.2" />
    <path d="M463.2,1041.1L450.0,1055.3L450.0,1063.4L463.3,1057.9L464.9,1044.6L463.2,1041.1" />
    <path d="M325.8,1600.0L324.4,1573.6L321.6,1560.3L314.6,1547.1L320.1,1520.7L319.0,1467.8L304.4,1455.8L300.0,1441.3L291.2,1435.3L287.9,1428.1L308.2,1388.4L321.7,1375.2L328.3,1362.0L344.1,1342.1L351.7,1335.5L369.1,1309.1L383.8,1291.2L397.1,1282.2L410.3,1268.1L423.5,1258.7L434.6,1269.4L435.8,1282.6L446.9,1295.9L463.2,1304.5L476.5,1315.5L502.9,1324.9L516.2,1333.5L542.6,1360.3L555.9,1368.1L569.1,1371.4L574.3,1362.0L569.9,1348.8L586.9,1335.5L577.1,1322.3L577.4,1309.1L568.8,1295.9L555.9,1281.6L529.4,1266.9L518.1,1256.2L516.2,1234.9L508.7,1216.5L489.7,1200.3L485.7,1190.1L491.3,1176.9L489.7,1150.4L484.7,1137.2L463.2,1130.4L458.8,1124.0L459.3,1110.7L457.0,1097.5L450.0,1073.7L423.5,1077.0L397.1,1083.7L367.7,1097.5L357.4,1106.3L301.7,1176.9L299.3,1190.1L304.4,1194.5L317.6,1200.9L330.9,1192.5L333.5,1203.3L327.0,1216.5L317.6,1226.8L304.4,1209.1L291.2,1212.6L277.9,1230.7L264.7,1238.1L238.2,1247.0L225.0,1255.0L211.6,1269.4L207.1,1282.6L207.1,1295.9L203.2,1309.1L198.5,1312.9L185.3,1315.4L172.1,1322.1L158.8,1334.0L132.4,1339.7L118.4,1348.8L79.4,1387.8L68.5,1401.7L50.5,1441.3L42.6,1454.5L26.5,1470.6L0.0,1485.3" />
    <path d="M582.4,1082.2L569.1,1087.1L557.1,1110.7L556.0,1124.0L558.3,1137.2L569.1,1168.6L582.4,1189.7L596.8,1203.3L608.8,1210.9L622.1,1216.9L635.3,1218.6L648.5,1215.4L661.8,1205.9L675.0,1177.1L685.5,1163.6L690.3,1150.4L690.9,1124.0L688.2,1119.6L661.8,1112.6L650.7,1097.5L622.1,1089.3L608.8,1078.4L595.6,1079.0L582.4,1082.2" />
    <path d="M622.1,1266.4L613.4,1269.4L608.8,1273.3L607.5,1282.6L608.8,1289.3L621.9,1309.1L599.9,1335.5L600.2,1348.8L607.9,1362.0L589.2,1388.4L589.6,1401.7L594.4,1414.9L608.8,1420.0L622.1,1419.2L635.3,1415.3L663.1,1401.7L675.0,1386.2L677.3,1375.2L675.8,1362.0L677.0,1348.8L680.8,1335.5L678.9,1322.3L670.2,1309.1L661.8,1302.7L648.5,1300.4L640.9,1295.9L635.3,1274.7L622.1,1266.4" />
    <path d="M900.0,1373.0L886.8,1382.5L873.5,1398.7L862.2,1375.2L847.1,1359.5L831.2,1335.5L807.4,1320.9L794.1,1320.9L780.9,1329.2L767.6,1353.1L722.2,1454.5L688.2,1504.2L684.3,1507.4L688.2,1510.5L692.4,1520.7L692.4,1533.9L688.2,1539.1L661.8,1539.3L648.5,1523.7L635.3,1523.0L608.8,1524.2L582.4,1531.8L569.1,1531.0L542.6,1540.9L532.4,1533.9L529.2,1520.7L531.8,1507.4L532.9,1481.0L528.7,1467.8L516.2,1447.2L481.9,1414.9L450.0,1397.7L436.8,1394.9L397.1,1412.7L381.7,1428.1L365.2,1454.5L361.1,1467.8L361.3,1481.0L370.6,1490.5L383.8,1494.7L400.9,1507.4L410.3,1511.2L450.0,1547.3L463.2,1554.6L476.5,1572.2L489.7,1569.3L496.3,1573.6L499.6,1586.8L509.8,1600.0" />
    <path d="M837.4,1428.1L847.1,1415.8L856.1,1428.1L852.3,1441.3L847.1,1445.4L833.8,1445.4L830.9,1441.3L837.4,1428.1" />
    <path d="M828.2,1600.0L835.0,1586.8L842.3,1560.3L851.1,1547.1L856.1,1533.9L874.7,1507.4L879.4,1494.2L880.0,1481.0L900.0,1460.4" />
    <path d="M60.9,0.0L41.1,13.2L36.5,26.4L37.3,39.7L26.5,48.2L24.5,52.9L25.5,66.1L38.0,79.3L31.0,105.8L39.6,132.2L41.1,145.5L66.2,157.8L88.5,145.5L98.6,132.2L105.9,113.2L113.5,105.8L132.4,97.5L145.6,81.6L156.3,52.9L163.5,39.7L166.9,26.4L158.8,18.4L132.4,11.5L119.1,8.9L105.9,14.3L106.8,0.0" />
    <path d="M770.8,0.0L754.1,13.2L749.8,26.4L749.9,39.7L742.0,52.9L727.9,64.1L714.7,70.2L701.5,87.3L675.0,96.8L648.5,102.4L635.3,100.4L622.2,105.8L614.1,119.0L608.8,123.9L595.6,120.2L582.4,123.9L575.5,119.0L569.1,110.5L555.9,100.6L542.6,99.2L529.4,82.6L516.2,78.6L502.9,80.2L489.7,86.4L469.2,105.8L423.5,142.2L408.3,158.7L392.3,185.1L390.7,198.3L392.1,211.6L387.5,224.8L370.6,229.3L357.4,238.8L352.5,238.0L338.8,224.8L330.9,221.2L317.6,223.5L303.3,238.0L301.5,251.2L309.0,264.5L317.6,273.7L330.9,274.5L344.1,279.4L348.4,290.9L373.8,317.4L378.6,330.6L388.8,343.8L397.1,361.2L431.4,409.9L452.5,462.8L454.8,476.0L463.2,488.8L476.5,488.6L494.1,502.5L497.7,515.7L489.7,519.7L476.5,517.3L463.2,510.9L450.0,508.0L436.8,516.2L414.2,555.4L408.3,568.6L417.5,595.0L418.8,608.3L425.4,621.5L425.5,647.9L423.5,650.7L410.3,642.7L397.1,639.6L387.2,647.9L382.5,661.2L380.4,674.4L379.6,687.6L381.3,700.8L383.8,705.6L397.1,709.0L407.3,700.8L410.3,699.4L411.8,700.8L402.0,714.0L398.8,727.3L410.3,737.9L436.8,717.9L450.0,710.6L458.0,714.0L462.7,727.3L476.5,747.5L489.7,747.4L496.9,740.5L499.6,727.3L494.8,714.0L484.4,700.8L477.6,687.6L482.9,661.2L489.7,649.6L495.2,647.9L476.5,636.4L462.0,621.5L489.7,617.5L495.6,608.3L516.2,596.0L529.4,612.4L569.1,630.5L582.4,633.1L622.1,626.3L648.5,625.3L701.5,645.7L714.7,643.8L727.9,630.7L734.7,634.7L737.6,647.9L749.5,661.2L755.3,674.4L767.6,684.8L771.6,700.8L770.5,714.0L771.6,727.3L776.2,740.5L776.1,753.7L773.6,766.9L761.7,780.2L754.4,793.4L744.9,846.3L745.7,859.5L753.2,872.7L757.0,886.0L758.2,912.4L773.2,925.6L767.6,930.4L754.4,934.3L741.2,942.9L727.9,937.5L714.7,936.6L711.3,938.8L703.3,952.1L705.2,965.3L741.2,983.9L758.2,1005.0L754.4,1013.6L741.2,1022.8L734.0,1031.4L733.0,1044.6L744.0,1057.9L738.5,1084.3L741.2,1090.7L766.9,1110.7L780.9,1116.9L787.5,1124.0L785.3,1150.4L780.9,1162.7L772.2,1176.9L771.5,1190.1L767.3,1203.3L770.3,1216.5L778.4,1229.8L780.9,1232.5L794.1,1235.0L820.6,1220.4L833.8,1219.2L847.1,1223.4L855.2,1229.8L859.7,1243.0L873.5,1257.5L886.8,1265.3L900.0,1267.6" />
    <path d="M804.0,0.0L827.0,26.4L840.6,52.9L842.9,66.1L837.6,105.8L820.6,128.9L807.4,140.4L794.1,143.3L780.9,150.3L754.4,150.4L741.2,144.4L727.9,150.7L688.2,155.5L675.0,167.5L661.8,171.5L648.3,198.3L644.3,211.6L629.6,238.0L637.4,251.2L641.9,264.5L643.6,277.7L642.1,290.9L636.3,304.1L661.8,347.5L688.2,377.5L696.2,383.5L727.9,431.7L736.1,462.8L727.9,473.7L722.9,476.0L727.9,477.0L741.2,465.6L754.4,460.1L767.6,458.9L783.3,462.8L807.4,476.3L820.6,489.0L851.7,528.9L873.5,548.0L886.8,555.8L889.8,542.1L900.0,528.2" />
    <path d="M885.8,0.0L893.0,13.2L900.0,19.4" />
    <path d="M0.0,290.1L6.5,304.1L13.2,312.7L20.0,317.4L36.6,357.0L52.9,376.5L66.2,385.6L68.0,396.7L83.7,423.1L82.2,449.6L92.6,473.4L105.4,489.3L119.1,500.9L132.4,504.1L145.6,502.0L172.1,505.3L183.9,515.7L181.9,542.1L184.4,555.4L191.3,568.6L211.8,594.3L238.2,614.3L243.5,608.3L246.0,595.0L243.2,581.8L264.7,577.3L272.1,581.8L277.9,588.5L291.2,589.7L304.4,589.5L317.6,583.6L335.2,555.4L340.5,528.9L339.3,515.7L341.2,502.5L344.1,500.2L357.4,514.6L383.8,520.8L397.1,521.0L410.3,514.4L424.2,489.3L427.5,462.8L426.4,449.6L421.4,436.4L406.2,409.9L397.1,403.6L383.8,404.3L375.7,409.9L366.2,423.1L366.1,436.4L357.4,445.4L344.1,438.5L334.3,423.1L338.2,409.9L330.9,401.3L322.5,383.5L304.4,367.4L277.9,361.3L264.7,353.3L256.0,343.8L249.5,330.6L254.6,317.4L245.7,304.1L252.1,264.5L238.2,259.0L232.0,251.2L231.6,238.0L235.1,224.8L238.2,223.1L245.5,238.0L251.5,242.8L264.7,243.7L277.9,229.9L306.8,185.1L310.2,171.9L309.9,158.7L307.1,145.5L315.6,132.2L315.1,119.0L317.6,114.1L330.9,98.3L344.1,97.3L352.4,92.6L344.1,83.0L342.5,79.3L344.1,77.6L373.3,66.1L382.7,52.9L357.4,44.8L344.1,47.1L304.4,47.4L291.2,54.7L277.9,50.6L264.7,52.9L251.5,59.5L244.6,66.1L247.6,79.3L238.2,82.2L225.0,95.6L221.9,105.8L211.8,119.1L196.8,132.2L192.1,145.5L201.3,185.1L198.5,188.9L172.1,197.3L145.6,184.5L105.9,177.1L92.6,176.8L66.2,183.3L52.0,198.3L48.0,238.0L39.7,243.6L18.2,251.2L0.0,264.4" />
    <path d="M63.5,66.1L66.2,64.2L70.8,66.1L79.4,75.0L81.0,79.3L79.4,81.4L62.4,79.3L63.5,66.1" />
    <path d="M900.0,64.4L882.7,66.1L873.5,79.2L869.5,92.6L858.6,105.8L852.0,119.0L860.3,123.0L862.0,132.2L860.3,134.8L851.6,132.2L847.1,123.4L844.5,132.2L845.2,145.5L839.1,158.7L820.6,175.0L815.3,185.1L813.2,198.3L801.9,224.8L794.1,235.6L758.6,277.7L727.8,290.9L721.2,304.1L723.7,317.4L741.2,331.5L748.3,343.8L753.7,370.2L767.0,396.7L789.7,423.1L794.1,441.1L801.3,449.6L807.4,453.3L820.6,454.4L833.8,449.2L847.1,447.0L860.3,450.4L873.5,445.0L881.0,436.4L900.0,422.5" />
    <path d="M436.8,78.6L402.2,119.0L410.3,130.9L426.6,119.0L449.4,92.6L451.9,79.3L450.0,77.9L436.8,78.6" />
    <path d="M0.0,1012.6L26.5,1011.7L41.3,1005.0L52.9,998.7L59.5,991.7L65.9,978.5L66.8,965.3L64.2,952.1L52.6,925.6L79.4,895.3L102.5,859.5L108.8,846.3L132.4,754.2L136.7,714.0L132.3,700.8L158.6,661.2L164.3,647.9L165.5,634.7L160.7,608.3L145.6,596.7L131.5,595.0L120.9,581.8L125.6,555.4L118.1,542.1L116.5,528.9L105.9,508.8L92.6,496.2L79.4,493.4L66.2,492.4L39.7,503.7L26.5,502.6L32.5,489.3L31.1,476.0L26.6,462.8L13.2,448.0L0.0,441.2" />
    <path d="M693.9,581.8L701.5,576.5L703.8,581.8L701.5,596.8L688.2,597.9L674.8,595.0L688.2,591.9L693.9,581.8" />
    <path d="M608.8,647.4L595.6,654.9L589.2,661.2L582.8,674.4L587.0,687.6L594.1,700.8L608.8,707.2L620.7,700.8L648.2,674.4L649.2,661.2L635.3,648.8L622.1,645.4L608.8,647.4" />
    <path d="M0.0,656.3L33.6,674.4L40.8,714.0L26.0,740.5L25.3,753.7L28.4,780.2L22.4,819.8L26.5,842.6L35.9,859.5L39.8,872.7L36.0,886.0L36.9,899.2L26.5,909.2L13.2,909.9L0.0,901.3" />
    <path d="M0.0,1373.9L13.2,1380.0L26.5,1379.2L39.7,1374.9L52.9,1381.5L66.2,1374.8L79.4,1371.6L105.9,1343.8L118.7,1322.3L122.7,1282.6L172.1,1251.7L185.3,1249.1L195.2,1243.0L207.7,1229.8L216.3,1216.5L215.8,1203.3L211.7,1190.1L225.0,1174.3L238.2,1175.6L251.5,1172.8L264.7,1176.3L285.3,1163.6L311.2,1137.2L332.8,1097.5L333.3,1084.3L326.7,1071.1L294.0,1044.6L309.8,1031.4L330.9,1003.8L357.4,1009.2L370.6,1003.4L378.3,991.7L383.3,978.5L383.3,965.3L370.6,952.8L364.8,938.8L371.6,925.6L385.5,912.4L397.1,904.7L410.7,886.0L408.6,872.7L397.1,849.2L378.1,833.1L377.2,819.8L379.3,793.4L375.8,780.2L370.6,770.0L367.7,766.9L357.4,763.4L344.1,767.7L318.4,740.5L304.4,734.0L277.9,733.4L271.2,727.3L264.2,714.0L238.2,700.4L225.0,700.2L211.8,710.1L205.0,727.3L208.5,740.5L216.1,753.7L217.5,766.9L211.8,784.1L198.5,788.1L185.3,786.5L167.6,793.4L142.9,806.6L134.5,819.8L131.1,833.1L132.4,846.9L145.6,848.8L158.8,839.8L173.1,846.3L163.7,886.0L145.6,915.2L133.8,925.6L124.9,938.8L120.4,952.1L119.1,967.3L125.3,991.7L122.5,1005.0L92.6,1036.2L50.4,1071.1L39.7,1077.4L15.1,1084.3L0.0,1090.8" />
    <path d="M648.5,709.6L635.3,719.8L622.1,720.3L582.4,748.7L569.1,749.2L555.9,746.7L537.4,753.7L518.8,766.9L509.1,780.2L504.7,793.4L504.6,806.6L514.3,819.8L529.4,828.1L532.0,833.1L528.3,846.3L529.4,854.9L538.3,886.0L542.6,892.6L555.9,901.6L563.9,912.4L571.5,938.8L582.4,944.8L591.6,965.3L604.3,978.5L607.4,991.7L622.1,1008.4L635.3,1008.1L648.5,1018.3L650.3,1005.0L661.8,996.0L675.0,970.4L683.7,925.6L681.1,912.4L671.2,899.2L662.2,872.7L662.9,859.5L654.9,833.1L665.7,819.8L677.5,793.4L672.9,780.2L661.8,770.1L648.9,753.7L661.8,742.4L671.8,740.5L665.9,727.3L661.8,726.6L649.8,714.0L648.5,709.6" />
    <path d="M0.0,794.6L2.4,793.4L9.0,780.2L5.2,766.9L0.0,761.3" />
    <path d="M335.0,1600.0L329.9,1586.8L328.3,1560.3L320.9,1547.1L321.9,1533.9L329.2,1507.4L330.6,1467.8L326.0,1454.5L313.7,1441.3L300.1,1414.9L314.8,1388.4L328.1,1375.2L342.9,1348.8L357.9,1335.5L365.8,1322.3L387.5,1295.9L423.5,1265.0L428.1,1269.4L430.0,1282.6L436.8,1293.1L459.9,1309.1L463.2,1317.3L468.6,1322.3L489.7,1331.1L502.9,1332.0L516.2,1342.5L534.7,1362.0L555.9,1378.4L578.3,1388.4L579.8,1401.7L584.1,1414.9L595.6,1424.3L608.8,1426.1L622.1,1424.0L661.8,1408.6L670.7,1401.7L680.3,1388.4L682.7,1375.2L680.7,1362.0L688.8,1335.5L687.5,1322.3L680.4,1309.1L648.5,1284.5L646.9,1269.4L635.3,1255.2L608.8,1241.0L582.4,1232.8L569.1,1238.9L568.1,1243.0L570.8,1256.2L582.4,1261.4L595.6,1254.1L596.9,1256.2L593.8,1269.4L604.8,1295.9L616.2,1309.1L608.8,1317.2L600.1,1322.3L595.6,1328.4L590.3,1322.3L586.1,1309.1L555.9,1274.3L542.6,1266.3L529.4,1261.4L523.9,1256.2L520.7,1229.8L515.4,1216.5L489.3,1190.1L502.9,1167.0L517.8,1163.6L528.8,1150.4L525.0,1137.2L516.2,1126.9L510.1,1124.0L489.7,1123.8L476.5,1120.4L468.3,1124.0L462.7,1124.0L468.7,1110.7L464.6,1097.5L457.7,1084.3L463.2,1074.8L476.5,1060.0L482.1,1044.6L480.8,1018.2L476.5,1012.5L463.2,1010.5L454.0,1018.2L442.1,1044.6L433.3,1057.9L423.5,1066.2L410.3,1073.7L357.4,1095.5L338.0,1110.7L321.9,1137.2L298.4,1163.6L290.3,1176.9L285.7,1190.1L286.5,1203.3L272.2,1216.5L270.2,1229.8L264.7,1232.9L251.5,1229.9L238.2,1236.6L214.7,1256.2L205.1,1269.4L201.3,1282.6L203.3,1295.9L198.5,1306.3L172.1,1316.3L158.8,1325.3L145.6,1330.7L127.2,1335.5L94.5,1362.0L68.4,1388.4L58.5,1401.7L33.7,1454.5L26.5,1461.8L0.0,1479.0" />
    <path d="M595.6,1068.6L569.1,1076.6L557.7,1084.3L547.5,1124.0L551.3,1150.4L569.1,1187.3L582.4,1205.3L595.6,1217.2L608.8,1223.9L622.1,1228.6L635.3,1229.6L648.5,1225.3L663.5,1216.5L671.5,1203.3L675.8,1190.1L684.3,1176.9L698.8,1163.6L700.1,1150.4L697.4,1137.2L704.4,1124.0L698.4,1110.7L688.2,1105.9L675.0,1108.7L661.8,1090.8L648.5,1084.5L635.3,1087.6L622.1,1081.7L608.8,1070.6L595.6,1068.6" />
    <path d="M900.0,1334.8L886.8,1358.7L873.5,1370.0L860.3,1361.2L847.1,1349.0L841.3,1335.5L807.4,1309.7L794.1,1304.8L780.9,1310.0L767.0,1322.3L749.0,1375.2L713.0,1454.5L688.2,1482.2L675.0,1494.1L648.5,1510.0L608.8,1515.6L582.4,1523.9L555.9,1527.7L542.2,1520.7L545.3,1494.2L541.0,1467.8L523.1,1441.3L489.7,1414.9L468.2,1401.7L463.2,1396.4L450.0,1390.0L436.8,1387.5L397.1,1405.2L384.3,1414.9L372.5,1428.1L354.5,1454.5L349.4,1467.8L348.3,1481.0L353.1,1494.2L370.6,1497.5L383.8,1504.0L397.1,1515.6L410.3,1516.7L423.5,1527.6L436.8,1542.6L470.9,1573.6L475.6,1586.8L473.0,1600.0" />
    <path d="M579.8,1348.8L582.4,1346.5L586.9,1348.8L595.6,1359.7L595.6,1363.5L582.4,1355.8L579.8,1348.8" />
    <path d="M648.5,1465.1L643.5,1467.8L648.5,1481.2L663.2,1467.8L648.5,1465.1" />
    <path d="M831.8,1600.0L839.2,1586.8L840.5,1573.6L845.7,1560.3L855.4,1547.1L860.3,1535.9L873.5,1522.4L882.8,1507.4L889.3,1494.2L889.7,1481.0L900.0,1472.2" />
    <path d="M386.8,1600.0L370.6,1594.1L354.5,1600.0" />
    <path d="M32.3,0.0L26.5,3.4L18.9,13.2L13.7,26.4L16.0,39.7L11.4,66.1L21.0,92.6L21.6,105.8L15.9,119.0L7.0,132.2L11.8,145.5L26.5,161.6L39.7,163.6L48.7,171.9L46.2,185.1L40.4,198.3L41.3,211.6L39.7,218.4L30.7,238.0L26.5,240.1L20.4,238.0L7.0,224.8L0.0,221.7" />
    <path d="M156.7,0.0L172.1,14.0L185.3,19.7L186.6,26.4L175.9,39.7L170.5,52.9L158.8,68.1L153.8,79.3L152.3,92.6L145.6,103.2L119.1,131.5L111.0,145.5L107.6,158.7L132.4,175.1L145.6,176.0L158.8,180.5L172.1,189.2L179.8,185.1L186.2,171.9L177.9,145.5L177.7,132.2L185.3,123.2L198.5,113.9L204.8,105.8L205.7,92.6L211.8,81.3L238.2,46.7L246.2,39.7L251.5,36.5L264.7,36.6L291.2,41.3L304.4,37.2L317.6,36.2L325.2,26.4L330.9,24.7L344.1,33.5L357.4,31.6L370.6,24.9L383.8,23.9L397.1,34.6L400.0,39.7L401.7,52.9L398.6,66.1L383.8,74.8L370.6,79.3L366.6,92.6L369.5,105.8L357.4,113.1L344.1,112.1L335.7,119.0L317.4,145.5L328.0,198.3L353.3,211.6L357.4,216.7L370.6,219.7L380.4,211.6L377.5,185.1L381.3,171.9L373.5,158.7L353.2,145.5L357.4,141.6L370.6,139.3L376.9,132.2L392.6,105.8L397.1,89.2L423.5,68.9L436.8,53.8L450.0,48.2L462.5,39.7L465.1,26.4L476.5,13.4L489.7,11.9L500.3,26.4L504.0,39.7L516.1,52.9L543.4,66.1L555.9,76.7L569.1,84.1L579.5,92.6L584.6,105.8L595.6,110.8L608.8,104.1L622.1,90.9L635.3,86.7L648.5,94.2L656.6,92.6L674.4,79.3L653.4,66.1L656.1,52.9L675.0,39.6L688.2,35.6L698.1,39.7L701.5,60.3L707.5,52.9L705.7,39.7L714.7,27.1L726.3,39.7L721.7,52.9L727.9,54.6L730.0,52.9L729.9,13.2L741.9,0.0" />
    <path d="M435.0,0.0L436.8,1.9L463.2,7.5L467.7,0.0" />
    <path d="M554.2,0.0L569.1,5.1L580.9,0.0" />
    <path d="M828.9,0.0L839.2,26.4L847.1,39.0L860.3,50.6L886.8,50.3L900.0,54.9" />
    <path d="M872.7,0.0L876.2,13.2L886.8,26.3L900.0,34.3" />
    <path d="M739.4,158.7L767.6,159.7L780.9,162.4L794.1,155.1L807.4,154.7L812.3,158.7L805.0,171.9L799.8,198.3L794.1,211.7L780.9,222.8L775.7,224.8L762.8,251.2L754.4,263.2L714.7,283.1L704.7,290.9L700.3,304.1L704.8,317.4L716.0,330.6L727.9,335.9L737.2,343.8L741.7,370.2L756.7,396.7L777.4,423.1L779.9,436.4L767.6,446.3L754.4,447.2L741.2,440.7L740.3,436.4L723.0,409.9L718.5,396.7L709.6,383.5L692.2,370.2L661.8,336.9L652.9,317.4L643.5,304.1L648.5,295.9L661.8,304.2L675.0,305.5L676.6,304.1L675.2,290.9L665.0,277.7L641.0,238.0L648.5,227.0L661.8,224.9L675.0,228.0L676.9,224.8L675.0,222.9L661.8,224.5L657.5,211.6L657.7,198.3L661.8,188.7L675.0,181.6L679.1,185.1L683.7,198.3L688.2,203.9L701.5,209.3L714.7,218.6L727.9,218.9L739.2,211.6L747.3,198.3L747.7,185.1L734.3,171.9L739.4,158.7" />
    <path d="M754.4,220.0L743.4,224.8L754.4,233.0L761.8,224.8L754.4,220.0" />
    <path d="M276.7,264.5L279.9,264.5L291.2,274.2L304.4,290.0L317.6,296.8L325.9,304.1L344.1,315.4L357.4,317.4L379.0,343.8L382.9,357.0L389.9,370.2L383.8,379.9L361.4,396.7L357.4,402.1L350.1,396.7L344.1,395.1L330.9,377.2L322.2,370.2L313.7,357.0L293.4,343.8L291.2,338.3L277.9,346.9L263.3,343.8L264.7,338.8L277.1,330.6L265.0,304.1L268.6,277.7L276.7,264.5" />
    <path d="M0.0,315.2L17.7,330.6L21.5,357.0L26.5,370.2L39.7,392.8L56.0,409.9L72.1,423.1L75.8,436.4L72.2,462.8L59.4,476.0L55.8,489.3L52.9,490.6L47.7,489.3L39.7,479.8L27.7,449.6L26.5,432.3L13.2,437.3L0.0,431.0" />
    <path d="M900.0,501.4L886.8,500.5L870.9,515.7L869.7,528.9L860.3,529.6L852.8,515.7L847.1,513.2L821.2,476.0L833.8,462.5L847.1,461.7L860.3,465.7L871.4,462.8L886.8,448.5L900.0,453.6" />
    <path d="M128.3,528.9L132.4,517.9L145.6,530.7L158.8,532.5L167.4,542.1L172.1,561.3L181.0,581.8L198.5,593.1L200.2,595.0L201.3,608.3L211.8,613.0L225.0,632.6L241.1,647.9L251.5,653.6L264.7,668.8L272.1,674.4L276.6,687.6L264.7,697.9L225.0,682.7L210.4,687.6L197.4,700.8L190.4,714.0L189.4,727.3L197.5,740.5L197.9,753.7L201.2,766.9L172.1,782.0L158.8,784.0L150.4,780.2L143.5,766.9L152.0,714.0L151.5,687.6L174.4,647.9L185.3,619.3L194.6,608.3L185.3,604.0L158.8,585.8L157.3,581.8L145.6,572.7L142.2,568.6L137.6,542.1L128.3,528.9" />
    <path d="M354.8,542.1L357.4,539.5L370.6,538.4L399.2,542.1L398.4,555.4L388.1,581.8L386.9,595.0L403.4,608.3L411.8,621.5L410.3,624.4L383.8,622.3L375.4,634.7L370.6,647.5L365.5,687.6L366.3,714.0L370.6,720.4L383.8,724.8L385.8,727.3L370.6,747.3L344.1,727.7L330.9,724.7L323.2,714.0L317.6,709.7L304.4,711.3L291.2,717.9L289.1,714.0L290.2,700.8L304.4,696.6L316.2,687.6L322.3,674.4L320.5,647.9L312.4,634.7L308.2,608.3L317.6,599.9L342.7,568.6L347.0,555.4L354.8,542.1" />
    <path d="M259.7,608.3L264.7,600.8L277.9,619.5L291.2,626.8L299.1,634.7L291.2,646.1L277.9,623.5L259.7,608.3" />
    <path d="M679.8,661.2L727.9,654.3L732.9,661.2L744.2,687.6L754.4,694.0L758.7,700.8L756.1,727.3L767.6,744.3L769.4,753.7L767.6,760.3L765.2,766.9L752.8,780.2L741.2,803.5L727.9,815.4L714.7,818.0L690.9,806.6L687.9,780.2L682.4,766.9L688.2,759.4L701.6,753.7L710.1,740.5L711.9,727.3L701.5,715.7L688.2,711.7L675.0,703.8L663.9,687.6L662.2,674.4L675.0,661.9L679.8,661.2" />
    <path d="M0.0,667.2L13.2,675.0L23.7,687.6L21.2,714.0L13.2,737.0L0.0,736.2" />
    <path d="M489.2,674.4L502.9,665.1L529.4,670.7L542.6,676.1L555.9,674.5L569.1,684.9L579.4,700.8L591.9,714.0L591.0,727.3L582.4,737.2L569.1,740.4L555.9,733.4L542.6,735.1L529.4,732.3L523.9,727.3L518.0,714.0L508.2,700.8L493.0,687.6L489.2,674.4" />
    <path d="M431.1,740.5L436.8,734.5L450.0,731.2L456.6,740.5L458.5,753.7L453.0,766.9L456.6,780.2L463.2,787.0L477.8,793.4L480.1,806.6L489.7,822.5L516.2,830.0L520.3,833.1L518.0,846.3L519.5,859.5L516.2,867.6L489.7,876.4L476.5,886.6L448.6,899.2L448.4,912.4L476.5,919.2L502.9,915.7L516.2,918.0L529.4,909.4L542.6,908.0L553.5,912.4L552.7,938.8L555.9,944.8L579.2,965.3L590.3,978.5L595.6,998.2L601.7,1005.0L608.8,1022.0L622.1,1025.2L628.2,1031.4L628.9,1044.6L637.1,1057.9L635.3,1064.6L622.1,1069.6L595.6,1048.6L582.4,1043.2L578.1,1044.6L570.8,1057.9L555.9,1058.3L543.9,1071.1L535.7,1084.3L534.5,1097.5L529.4,1104.8L516.2,1105.7L502.9,1112.0L489.7,1109.1L475.5,1097.5L482.2,1071.1L494.4,1044.6L498.7,1018.2L493.1,1005.0L476.5,990.5L463.2,987.7L450.0,992.9L441.1,1005.0L429.0,1044.6L423.5,1051.9L410.3,1062.7L397.1,1070.1L370.6,1080.5L357.4,1081.0L344.1,1073.5L325.7,1057.9L318.5,1044.6L325.1,1031.4L330.9,1025.8L344.1,1016.6L357.4,1023.3L370.6,1024.5L383.8,1013.1L397.1,985.9L399.8,965.3L397.1,952.1L409.1,925.6L405.6,912.4L410.3,907.0L423.5,903.1L428.6,899.2L423.5,894.2L416.5,859.5L411.4,846.3L399.1,833.1L392.7,819.8L390.7,806.6L394.8,793.4L394.3,780.2L399.6,766.9L410.3,759.9L431.1,740.5" />
    <path d="M0.0,816.7L10.9,833.1L21.2,859.5L18.3,872.7L20.1,886.0L13.2,895.0L0.0,886.1" />
    <path d="M463.2,845.1L460.8,846.3L453.9,859.5L463.2,871.1L472.9,872.7L476.5,878.9L488.8,846.3L476.5,842.4L463.2,845.1" />
    <path d="M678.3,846.3L688.2,840.8L701.5,843.5L727.9,835.9L739.0,872.7L747.6,886.0L745.8,912.4L741.2,921.6L727.9,923.6L714.7,919.8L701.5,920.4L682.7,899.2L671.1,859.5L675.0,849.3L678.3,846.3" />
    <path d="M0.0,1024.6L13.2,1036.5L26.5,1033.4L32.6,1018.2L39.7,1013.3L52.9,1010.7L62.0,1005.0L66.2,1000.6L76.5,978.5L69.8,938.8L64.8,925.6L105.9,878.6L119.1,871.5L152.2,872.7L154.0,886.0L148.2,899.2L145.6,903.7L132.4,912.8L113.6,938.8L108.4,952.1L109.7,978.5L114.9,991.7L114.0,1005.0L98.3,1018.2L79.4,1039.0L39.7,1065.3L0.0,1073.6" />
    <path d="M685.0,991.7L688.2,987.3L701.5,991.7L714.7,1002.6L727.9,994.1L741.2,999.1L743.5,1005.0L741.2,1007.0L727.9,1008.8L720.8,1018.2L716.6,1031.4L718.9,1044.6L724.3,1057.9L722.3,1071.1L714.7,1088.0L675.0,1072.4L677.2,1057.9L675.2,1044.6L667.0,1031.4L677.5,1005.0L685.0,991.7" />
    <path d="M731.8,1124.0L741.2,1113.8L767.6,1124.9L778.1,1137.2L759.4,1163.6L753.3,1176.9L752.5,1190.1L748.3,1203.3L739.8,1216.5L739.6,1229.8L727.7,1243.0L701.5,1290.4L688.2,1295.1L675.0,1288.5L661.8,1287.5L656.5,1282.6L661.8,1269.4L660.7,1256.2L653.6,1243.0L675.0,1226.1L682.3,1216.5L688.2,1189.4L714.7,1171.2L725.6,1150.4L731.8,1124.0" />
    <path d="M516.1,1176.9L529.4,1184.7L542.6,1184.4L548.7,1190.1L542.6,1200.5L529.4,1198.9L516.1,1176.9" />
    <path d="M253.7,1190.1L264.7,1186.1L270.4,1190.1L264.7,1200.5L251.5,1204.3L253.7,1190.1" />
    <path d="M537.6,1229.8L542.6,1222.8L550.9,1229.8L554.2,1243.0L542.6,1253.6L532.8,1243.0L537.6,1229.8" />
    <path d="M811.1,1243.0L820.6,1231.4L833.8,1233.0L847.1,1250.9L884.6,1282.6L883.4,1295.9L885.5,1322.3L882.0,1335.5L873.5,1348.8L860.3,1349.5L855.7,1335.5L847.1,1325.8L822.9,1309.1L820.0,1295.9L802.5,1269.4L807.4,1260.8L811.1,1243.0" />
    <path d="M153.5,1269.4L172.1,1260.7L185.3,1261.9L193.3,1269.4L191.9,1282.6L185.3,1292.8L172.1,1304.1L145.6,1320.5L132.4,1323.6L126.9,1309.1L132.4,1282.6L145.6,1279.1L153.5,1269.4" />
    <path d="M578.2,1282.6L582.4,1279.1L586.0,1282.6L582.4,1288.3L578.2,1282.6" />
    <path d="M418.3,1295.9L423.5,1292.4L436.8,1305.7L444.1,1309.1L445.4,1322.3L461.7,1335.5L489.7,1346.4L502.9,1343.9L552.5,1388.4L563.4,1401.7L570.7,1414.9L575.0,1428.1L595.6,1435.6L608.8,1437.0L622.1,1433.9L635.3,1426.2L645.0,1428.1L648.5,1434.8L650.4,1428.1L688.0,1401.7L699.9,1388.4L693.5,1375.2L690.2,1362.0L701.5,1338.5L714.7,1332.5L741.2,1341.2L743.6,1348.8L743.1,1362.0L730.8,1375.2L727.9,1384.5L706.5,1388.4L689.6,1401.7L687.7,1414.9L697.6,1428.1L701.5,1442.7L688.2,1440.3L675.0,1448.7L661.8,1441.9L648.5,1443.0L635.3,1450.3L624.1,1467.8L620.0,1481.0L619.2,1494.2L582.4,1511.2L569.1,1512.4L561.1,1507.4L560.0,1494.2L563.9,1467.8L576.9,1454.5L574.2,1441.3L569.1,1431.5L555.9,1428.1L542.6,1435.4L537.4,1428.1L529.4,1426.6L493.5,1401.7L476.5,1381.5L464.8,1375.2L450.0,1379.3L410.3,1381.0L402.6,1388.4L383.8,1400.9L357.4,1429.6L344.1,1429.8L331.4,1414.9L317.6,1404.1L317.6,1400.6L349.1,1375.2L355.4,1348.8L370.6,1338.8L377.6,1322.3L397.1,1301.8L410.3,1302.0L418.3,1295.9" />
    <path d="M0.0,1394.0L26.5,1390.8L39.7,1394.2L44.9,1401.7L24.0,1441.3L14.5,1454.5L0.0,1468.4" />
    <path d="M405.0,1600.0L392.3,1586.8L383.8,1583.9L370.6,1582.3L357.4,1588.2L344.1,1588.4L341.5,1560.3L331.2,1533.9L335.4,1520.7L344.1,1509.8L370.6,1506.3L372.4,1507.4L372.0,1520.7L388.1,1533.9L382.6,1547.1L397.1,1557.4L410.3,1551.1L423.5,1538.4L436.8,1556.0L455.1,1573.6L463.2,1584.2L464.2,1586.8L459.9,1600.0" />
    <path d="M842.5,1600.0L847.1,1588.5L850.6,1586.8L847.1,1580.9L847.1,1572.4L862.7,1560.3L868.5,1547.1L880.1,1533.9L900.0,1505.2" />
    <path d="M23.0,0.0L13.2,13.2L9.5,26.4L10.8,39.7L5.1,66.1L15.9,92.6L18.1,105.8L13.2,114.3L1.3,119.0L0.0,122.8" />
    <path d="M187.5,0.0L192.1,26.4L182.0,39.7L178.7,52.9L172.1,64.0L157.5,79.3L160.4,105.8L158.8,113.6L154.6,119.0L132.4,125.5L125.7,132.2L116.2,145.5L114.7,158.7L132.4,171.1L158.8,174.5L172.1,185.2L179.7,171.9L169.3,132.2L180.4,119.0L196.5,105.8L198.5,92.6L232.9,39.7L238.2,34.2L251.5,28.7L277.9,33.8L291.2,33.6L304.4,26.4L330.9,19.6L344.1,25.3L357.4,26.5L370.6,16.6L383.8,16.8L397.1,20.8L407.0,39.7L410.3,58.1L423.5,56.0L436.8,44.1L451.6,39.7L456.7,26.4L455.2,13.2L436.8,8.1L429.2,0.0" />
    <path d="M479.5,0.0L489.7,4.8L498.1,13.2L516.5,39.7L529.4,51.9L569.1,74.9L589.0,92.6L595.6,106.3L608.8,96.7L622.1,83.1L632.2,79.3L635.3,66.8L640.6,79.3L648.5,82.8L661.8,80.8L663.5,79.3L661.8,78.2L648.5,76.0L635.5,66.1L644.8,52.9L675.0,32.8L701.5,26.5L714.7,19.0L721.0,13.2L724.1,0.0" />
    <path d="M545.8,0.0L555.9,11.4L569.1,12.1L608.8,7.9L614.9,0.0" />
    <path d="M836.6,0.0L843.5,26.4L847.1,32.1L860.3,44.1L873.5,46.3L886.8,45.7L898.0,39.7L886.8,32.1L863.1,26.4L857.9,13.2L866.4,0.0" />
    <path d="M376.6,92.6L383.8,85.8L387.0,92.6L383.8,99.6L376.6,92.6" />
    <path d="M343.7,119.0L345.5,119.0L351.3,132.2L344.1,139.1L337.2,132.2L343.7,119.0" />
    <path d="M0.0,136.2L3.9,145.5L26.5,169.6L41.1,171.9L40.2,185.1L34.2,198.3L37.1,211.6L26.5,232.8L13.2,220.2L0.0,216.4" />
    <path d="M326.6,158.7L330.9,152.4L344.1,150.4L370.6,166.5L374.7,171.9L371.9,185.1L375.6,211.6L370.6,215.7L342.0,198.3L330.9,184.3L326.6,171.9L326.6,158.7" />
    <path d="M747.7,171.9L767.6,166.0L780.9,166.2L794.1,162.1L799.6,171.9L791.6,198.3L780.9,212.0L767.6,208.9L756.0,198.3L754.4,179.3L747.7,171.9" />
    <path d="M673.9,211.6L675.0,210.1L688.2,223.5L701.5,218.7L713.7,224.8L727.9,228.5L741.2,245.2L750.5,251.2L735.9,264.5L711.7,277.7L701.5,285.5L688.2,287.8L675.0,277.6L645.8,238.0L648.5,234.0L675.0,240.7L680.3,238.0L687.6,224.8L673.9,211.6" />
    <path d="M274.3,277.7L277.9,272.1L295.7,290.9L317.6,309.1L334.1,317.4L357.4,324.9L374.6,343.8L383.8,371.2L357.4,393.0L344.1,389.8L338.6,383.5L328.0,357.0L303.9,343.8L303.3,330.6L282.9,317.4L274.3,277.7" />
    <path d="M647.0,304.1L648.5,301.7L675.0,320.2L688.2,315.5L701.5,321.6L714.7,335.5L727.9,339.9L732.5,343.8L732.6,357.0L735.7,370.2L750.2,396.7L774.1,423.1L774.3,436.4L767.6,441.7L754.4,442.2L741.2,431.7L728.0,409.9L724.5,396.7L716.8,383.5L698.3,370.2L661.8,331.9L657.9,317.4L647.0,304.1" />
    <path d="M0.0,320.7L13.3,330.6L16.0,357.0L30.6,396.7L33.4,409.9L52.9,416.2L66.2,425.5L72.6,436.4L70.5,449.6L66.2,460.0L52.9,471.0L39.7,469.9L32.7,449.6L35.6,436.4L26.5,413.5L13.2,407.0L9.4,423.1L0.0,426.4" />
    <path d="M825.6,476.0L833.8,467.3L847.1,467.8L869.6,476.0L884.2,489.3L860.3,513.9L847.1,508.7L825.6,476.0" />
    <path d="M144.0,542.1L145.6,539.8L159.8,542.1L164.9,555.4L158.8,565.0L146.7,555.4L144.0,542.1" />
    <path d="M355.3,555.4L357.4,552.0L370.6,545.1L383.8,548.0L390.5,555.4L381.2,581.8L375.0,608.3L363.9,634.7L362.4,647.9L364.2,661.2L360.0,687.6L359.2,714.0L357.4,718.5L344.1,717.5L330.9,712.1L314.1,700.8L317.6,699.0L328.4,674.4L326.5,661.2L328.3,647.9L318.6,621.5L317.8,608.3L330.9,592.0L335.0,581.8L348.3,568.6L355.3,555.4" />
    <path d="M191.7,621.5L198.5,614.4L211.8,621.6L225.0,642.4L238.2,653.9L251.5,661.5L263.1,674.4L265.2,687.6L251.5,686.6L238.2,679.5L225.0,676.0L211.8,680.6L202.2,687.6L182.1,714.0L181.8,727.3L188.2,740.5L187.8,753.7L192.2,766.9L172.1,773.9L158.8,770.9L151.2,753.7L160.1,714.0L156.8,687.6L191.7,621.5" />
    <path d="M0.0,673.3L13.2,679.6L19.9,687.6L13.2,719.2L0.0,726.9" />
    <path d="M503.3,674.4L516.2,673.0L555.9,683.8L584.7,714.0L584.6,727.3L582.4,729.9L569.1,735.0L555.9,726.5L542.6,725.7L529.4,721.7L514.7,700.8L499.3,687.6L503.3,674.4" />
    <path d="M677.1,674.4L688.2,667.1L714.7,663.6L726.5,674.4L728.0,687.6L723.3,700.8L714.7,712.9L688.2,706.6L680.4,700.8L669.4,687.6L677.1,674.4" />
    <path d="M719.5,727.3L727.9,717.7L741.2,717.2L747.4,727.3L746.8,740.5L754.4,743.1L761.9,753.7L760.7,766.9L748.7,780.2L741.2,792.4L727.9,804.1L701.5,805.5L688.6,766.9L701.5,761.0L709.3,753.7L717.2,740.5L719.5,727.3" />
    <path d="M449.0,740.5L452.0,753.7L445.5,766.9L445.8,780.2L450.0,792.4L467.8,806.6L475.0,819.8L470.0,833.1L450.0,837.2L446.5,846.3L446.5,859.5L464.9,886.0L463.2,886.9L436.8,886.3L423.9,872.7L422.4,859.5L417.4,846.3L404.5,833.1L395.3,806.6L399.8,793.4L400.3,780.2L408.8,766.9L423.5,753.1L436.8,744.0L449.0,740.5" />
    <path d="M0.0,823.4L7.1,833.1L14.1,859.5L7.8,872.7L0.0,878.4" />
    <path d="M493.7,833.1L502.9,831.1L509.7,833.1L507.2,859.5L502.9,861.5L498.3,859.5L498.7,846.3L493.7,833.1" />
    <path d="M713.9,846.3L727.9,851.9L733.2,872.7L743.1,886.0L741.2,906.7L727.9,913.2L714.7,914.5L701.5,912.5L688.2,898.8L682.7,886.0L675.6,859.5L688.2,848.2L701.5,850.3L713.9,846.3" />
    <path d="M105.7,886.0L119.1,880.3L132.4,879.5L145.6,879.9L149.1,886.0L143.7,899.2L132.4,906.3L127.4,912.4L100.9,952.1L105.5,965.3L103.2,978.5L108.3,991.7L110.2,1005.0L93.6,1018.2L79.4,1035.4L39.7,1058.6L26.5,1063.7L13.2,1062.9L5.9,1057.9L13.2,1045.1L26.5,1041.5L34.4,1031.4L38.4,1018.2L52.9,1015.3L70.0,1005.0L79.4,982.6L82.9,978.5L78.0,965.3L75.2,938.8L71.5,925.6L105.7,886.0" />
    <path d="M414.1,925.6L423.5,914.1L436.8,917.7L444.1,925.6L450.0,928.7L489.7,928.3L502.9,923.3L529.4,927.1L542.6,918.3L545.4,925.6L544.9,938.8L555.9,964.9L569.1,962.7L583.4,978.5L591.8,1005.0L603.3,1018.2L603.6,1031.4L608.8,1044.0L622.1,1048.4L626.3,1057.9L622.1,1060.9L608.8,1044.8L578.7,1031.4L576.2,1018.2L569.1,1017.0L560.0,1031.4L563.4,1044.6L555.9,1050.9L541.4,1057.9L529.4,1072.7L515.9,1071.1L509.6,1084.3L517.6,1097.5L502.9,1104.2L489.7,1104.4L481.2,1097.5L488.1,1084.3L487.5,1071.1L495.1,1057.9L500.0,1031.4L504.8,1018.2L498.5,1005.0L476.5,985.7L463.2,980.6L450.0,984.3L436.8,1000.1L426.0,1031.4L423.8,1044.6L409.3,1057.9L370.6,1076.5L357.4,1074.6L333.5,1057.9L329.5,1044.6L330.8,1031.4L344.1,1022.2L357.4,1029.8L383.8,1036.5L397.1,1043.2L403.7,1031.4L403.1,1018.2L395.6,1005.0L405.7,965.3L403.8,952.1L412.1,938.8L414.1,925.6" />
    <path d="M683.9,1005.0L688.2,998.1L712.0,1018.2L713.7,1044.6L718.8,1057.9L714.7,1070.0L701.5,1072.7L688.2,1066.7L683.1,1057.9L672.0,1031.4L683.9,1005.0" />
    <path d="M737.2,1137.2L741.2,1128.9L754.4,1126.1L767.6,1130.4L773.5,1137.2L742.3,1176.9L744.0,1190.1L741.2,1197.1L730.6,1190.1L727.9,1184.0L726.2,1190.1L726.0,1216.5L731.8,1229.8L714.7,1250.3L707.5,1269.4L701.5,1277.4L688.2,1286.5L675.0,1280.5L661.8,1283.7L661.8,1279.6L668.0,1269.4L667.0,1243.0L680.6,1229.8L690.7,1216.5L690.5,1203.3L695.5,1190.1L701.5,1185.9L714.7,1183.0L725.7,1176.9L726.5,1163.6L737.2,1137.2" />
    <path d="M537.2,1243.0L542.6,1234.4L549.1,1243.0L542.6,1248.9L537.2,1243.0" />
    <path d="M815.7,1243.0L820.6,1237.0L833.8,1242.7L847.1,1259.1L876.8,1282.6L873.0,1295.9L879.1,1322.3L873.5,1337.2L860.3,1333.6L847.1,1319.6L829.8,1309.1L827.7,1295.9L818.7,1282.6L813.0,1269.4L815.7,1243.0" />
    <path d="M160.1,1269.4L172.1,1265.1L185.3,1266.9L187.9,1269.4L187.6,1282.6L172.1,1297.4L145.6,1314.3L132.4,1315.7L130.0,1309.1L132.4,1297.9L145.6,1293.3L160.1,1269.4" />
    <path d="M383.5,1322.3L397.1,1311.5L423.5,1315.0L446.3,1335.5L476.5,1349.0L489.7,1353.0L502.9,1349.5L516.2,1359.2L529.4,1373.3L547.7,1388.4L556.2,1401.7L556.4,1414.9L529.4,1419.3L502.9,1399.0L476.5,1372.0L463.2,1367.4L450.0,1373.3L410.3,1373.7L357.4,1421.4L344.1,1419.7L323.4,1401.7L358.3,1375.2L360.5,1362.0L377.9,1335.5L383.5,1322.3" />
    <path d="M701.0,1348.8L714.7,1344.5L727.9,1347.9L735.6,1362.0L727.9,1369.4L714.7,1372.4L701.5,1379.9L694.4,1362.0L701.0,1348.8" />
    <path d="M0.0,1407.1L6.1,1401.7L26.5,1395.1L38.9,1401.7L25.3,1428.1L7.5,1454.5L0.0,1462.0" />
    <path d="M660.9,1428.1L666.7,1428.1L675.1,1441.3L660.9,1428.1" />
    <path d="M580.9,1441.3L582.4,1439.5L608.8,1443.3L622.1,1439.0L635.4,1441.3L615.1,1467.8L609.0,1481.0L606.2,1494.2L582.4,1505.6L569.1,1504.3L565.3,1494.2L569.1,1478.3L590.7,1454.5L580.9,1441.3" />
    <path d="M339.0,1520.7L344.1,1514.3L357.4,1515.9L363.1,1520.7L375.7,1533.9L373.5,1547.1L380.6,1560.3L397.1,1570.0L420.4,1560.3L420.0,1547.1L423.5,1544.3L425.9,1547.1L425.7,1560.3L433.1,1573.6L423.5,1579.0L397.1,1578.0L383.8,1580.2L361.6,1573.6L338.6,1533.9L339.0,1520.7" />
    <path d="M884.1,1600.0L880.9,1586.8L873.5,1577.0L859.8,1573.6L873.5,1555.5L884.7,1547.1L886.8,1533.9L900.0,1514.5" />
    <path d="M423.0,1600.0L436.8,1589.0L450.0,1581.9L453.7,1586.8L451.6,1600.0" />
    <path d="M900.0,1576.6L892.1,1586.8L887.4,1600.0" />
    <path d="M16.5,0.0L9.5,13.2L5.6,26.4L6.9,39.7L0.0,59.7" />
    <path d="M374.8,0.0L357.4,15.4L317.6,13.3L291.2,23.8L289.7,26.4L277.9,29.6L264.7,24.0L238.2,21.0L218.5,39.7L211.8,52.7L198.5,47.4L193.6,39.7L197.5,26.4L197.0,13.2L198.5,5.3L220.4,0.0" />
    <path d="M275.7,0.0L277.9,5.6L291.2,1.8L292.0,0.0" />
    <path d="M407.1,0.0L403.2,13.2L407.3,26.4L410.3,32.2L423.5,41.7L448.9,26.4L422.0,0.0" />
    <path d="M493.0,0.0L506.0,13.2L522.0,39.7L529.4,46.8L555.9,58.5L582.4,80.5L595.6,87.9L599.7,79.3L602.7,66.1L608.8,60.8L622.1,59.4L643.1,39.7L648.5,29.2L652.6,26.4L648.5,23.8L643.8,13.2L642.5,0.0" />
    <path d="M538.5,0.0L542.6,7.8L555.9,21.8L569.1,23.5L582.4,18.6L595.6,19.4L608.8,16.8L623.1,0.0" />
    <path d="M653.2,0.0L662.4,13.2L675.0,25.8L688.2,24.4L705.9,13.2L714.0,0.0" />
    <path d="M841.8,0.0L847.1,13.0L860.0,0.0" />
    <path d="M864.6,39.7L873.5,36.0L889.4,39.7L873.5,42.3L864.6,39.7" />
    <path d="M191.4,66.1L198.5,57.5L204.1,66.1L200.0,79.3L191.4,92.6L191.4,105.8L185.3,111.5L172.1,118.5L169.4,105.8L163.6,92.6L167.0,79.3L172.1,75.0L191.4,66.1" />
    <path d="M0.0,67.6L6.7,79.3L9.1,92.6L14.6,105.8L13.2,108.2L0.0,102.6" />
    <path d="M132.3,132.2L158.8,129.1L161.1,132.2L162.9,145.5L172.2,158.7L172.1,173.7L158.8,166.3L132.4,163.7L123.9,158.7L122.7,145.5L132.3,132.2" />
    <path d="M0.0,148.3L9.9,158.7L28.1,185.1L27.8,198.3L32.9,211.6L26.5,222.9L13.2,210.4L0.0,211.0" />
    <path d="M330.9,171.9L344.1,159.2L357.4,163.8L368.1,171.9L366.6,185.1L370.7,211.6L344.1,193.7L336.3,185.1L330.9,171.9" />
    <path d="M769.4,171.9L780.9,170.0L794.1,171.9L789.8,185.1L780.9,199.2L767.6,201.8L763.8,198.3L760.5,185.1L769.4,171.9" />
    <path d="M692.3,238.0L701.5,229.5L714.7,231.5L726.5,238.0L738.3,251.2L725.2,264.5L701.5,277.7L688.2,276.4L675.0,268.4L662.0,251.2L692.3,238.0" />
    <path d="M298.9,317.4L304.4,311.9L317.6,321.8L344.1,324.9L355.3,330.6L357.4,334.6L370.6,344.8L379.0,370.2L357.4,387.1L344.1,384.5L339.2,357.0L319.8,343.8L304.4,320.5L298.9,317.4" />
    <path d="M0.0,325.0L7.6,330.6L11.1,343.8L10.1,357.0L0.0,369.1" />
    <path d="M671.5,330.6L675.0,328.4L688.2,335.1L701.5,328.6L714.7,341.2L726.9,343.8L726.6,357.0L730.8,383.5L770.8,423.1L768.7,436.4L754.4,437.1L741.2,426.0L732.2,409.9L737.0,396.7L726.9,383.5L701.5,366.4L671.5,330.6" />
    <path d="M8.6,383.5L13.2,371.8L17.0,383.5L13.2,390.1L8.6,383.5" />
    <path d="M41.6,436.4L52.9,424.2L66.2,431.0L69.4,436.4L66.2,451.2L52.9,461.0L39.7,459.8L37.7,449.6L41.6,436.4" />
    <path d="M830.0,476.0L833.8,472.0L855.0,476.0L872.6,489.3L860.3,507.2L847.1,504.2L830.0,476.0" />
    <path d="M363.2,555.4L370.6,550.4L381.8,555.4L375.5,581.8L364.6,608.3L356.5,621.5L353.0,634.7L353.8,647.9L359.5,661.2L351.6,700.8L344.1,708.5L326.9,700.8L329.2,687.6L335.0,674.4L332.2,661.2L336.1,647.9L323.3,621.5L323.6,608.3L335.3,595.0L339.3,581.8L353.5,568.6L363.2,555.4" />
    <path d="M191.8,634.7L198.5,621.7L211.8,630.2L221.8,647.9L238.1,661.2L211.8,674.5L192.6,687.6L185.3,697.5L180.4,700.8L172.3,714.0L174.2,727.3L181.4,740.5L180.1,753.7L172.1,764.3L158.8,758.5L156.4,753.7L158.8,737.6L167.4,727.3L171.8,714.0L163.1,687.6L181.5,647.9L191.8,634.7" />
    <path d="M243.1,674.4L251.5,669.0L256.3,674.4L251.5,679.5L243.1,674.4" />
    <path d="M687.1,674.4L701.5,672.9L714.7,674.7L719.0,687.6L714.7,696.2L709.5,700.8L701.5,703.1L687.3,700.8L674.9,687.6L687.1,674.4" />
    <path d="M0.0,680.3L13.2,684.3L16.0,687.6L9.2,714.0L0.0,722.0" />
    <path d="M510.5,687.6L516.2,683.7L529.4,684.6L545.4,687.6L555.9,693.9L561.9,700.8L563.0,714.0L574.6,727.3L569.1,729.7L555.9,718.8L542.6,717.3L529.4,711.7L516.2,691.4L510.5,687.6" />
    <path d="M726.0,727.3L727.9,725.1L734.9,727.3L734.1,740.5L750.4,753.7L756.1,766.9L741.2,785.8L727.9,796.5L714.7,794.8L701.5,788.9L698.6,780.2L703.1,766.9L717.2,753.7L723.3,740.5L726.0,727.3" />
    <path d="M418.2,766.9L423.5,761.9L436.8,757.0L440.3,766.9L438.4,780.2L441.0,793.4L448.0,806.6L436.9,819.8L441.7,833.1L439.4,846.3L441.5,859.5L446.9,872.7L436.8,880.3L429.5,872.7L429.6,859.5L423.4,846.3L410.0,833.1L402.6,819.8L401.1,806.6L405.1,780.2L410.3,772.7L418.2,766.9" />
    <path d="M0.0,828.6L3.2,833.1L6.3,846.3L7.2,859.5L0.0,870.0" />
    <path d="M690.9,859.5L701.5,855.9L714.7,854.9L722.5,859.5L727.4,872.7L737.7,886.0L734.5,899.2L727.9,904.6L714.7,908.0L688.2,889.1L685.1,872.7L688.2,862.4L690.9,859.5" />
    <path d="M104.2,899.2L119.1,888.6L132.4,893.9L133.5,899.2L92.6,951.6L89.2,952.1L92.6,952.5L100.4,965.3L94.8,978.5L93.5,991.7L106.3,1005.0L92.6,1009.9L79.4,1031.7L52.9,1045.1L39.7,1048.7L25.4,1057.9L41.3,1031.4L56.3,1018.2L78.6,1005.0L79.4,991.7L90.7,978.5L79.4,954.4L81.3,938.8L78.5,925.6L93.4,912.4L104.2,899.2" />
    <path d="M418.6,925.6L423.5,919.5L450.0,937.3L476.5,935.0L489.7,941.9L502.9,943.3L516.2,932.8L529.8,938.8L537.7,952.1L529.4,958.6L516.2,959.2L499.2,965.3L496.9,978.5L501.3,991.7L489.7,992.4L476.5,980.9L463.2,974.8L450.0,976.1L435.8,991.7L423.5,1023.3L416.9,1018.2L410.3,1008.7L403.2,991.7L411.4,965.3L410.6,952.1L417.9,938.8L418.6,925.6" />
    <path d="M550.4,978.5L555.9,975.2L569.1,983.6L582.4,987.0L584.5,991.7L583.5,1005.0L595.6,1013.5L599.0,1018.2L595.6,1026.0L582.4,1006.8L569.1,1010.3L555.9,1019.9L552.7,1031.4L553.6,1044.6L502.9,1070.3L501.4,1057.9L502.9,1041.8L510.5,1018.2L505.2,1005.0L516.2,993.8L529.4,992.5L550.4,978.5" />
    <path d="M685.5,1018.2L688.2,1010.8L701.5,1017.0L708.1,1031.4L710.3,1044.6L708.5,1057.9L701.5,1061.3L688.2,1056.8L677.5,1031.4L685.5,1018.2" />
    <path d="M339.3,1031.4L344.1,1028.1L357.4,1037.5L370.6,1041.0L376.5,1044.6L378.5,1057.9L374.0,1071.1L370.6,1072.6L364.6,1071.1L341.4,1057.9L337.5,1044.6L339.3,1031.4" />
    <path d="M487.0,1097.5L489.7,1092.6L498.9,1097.5L489.7,1099.7L487.0,1097.5" />
    <path d="M747.3,1137.2L754.4,1133.0L768.8,1137.2L741.2,1166.2L738.3,1163.6L738.1,1150.4L741.2,1143.7L747.3,1137.2" />
    <path d="M694.8,1203.3L701.5,1192.0L714.7,1203.3L712.9,1216.5L705.0,1229.8L712.0,1243.0L702.0,1269.4L688.2,1277.6L675.0,1270.6L675.0,1260.7L678.7,1243.0L688.2,1231.8L695.5,1229.8L700.0,1216.5L694.8,1203.3" />
    <path d="M820.3,1243.0L833.8,1248.8L847.1,1264.8L867.8,1282.6L862.5,1309.1L871.2,1322.3L860.3,1326.6L847.1,1314.3L837.8,1309.1L840.8,1295.9L833.8,1294.3L825.0,1282.6L820.7,1269.4L820.3,1243.0" />
    <path d="M162.0,1282.6L172.1,1269.7L181.8,1282.6L158.8,1301.5L151.2,1295.9L162.0,1282.6" />
    <path d="M383.2,1335.5L410.3,1325.8L423.5,1327.9L429.1,1335.5L464.8,1348.8L476.5,1360.7L502.9,1356.0L516.2,1364.7L529.4,1378.7L543.0,1388.4L550.9,1401.7L542.6,1410.0L529.4,1409.4L516.2,1402.2L502.9,1391.8L476.5,1362.9L472.5,1362.0L463.2,1353.3L455.7,1362.0L410.3,1369.0L397.1,1374.9L388.5,1388.4L370.6,1406.7L357.4,1410.2L344.1,1411.0L330.1,1401.7L344.1,1393.5L363.8,1375.2L367.3,1362.0L379.4,1348.8L383.2,1335.5" />
    <path d="M698.5,1362.0L701.5,1356.1L714.7,1355.0L726.1,1362.0L701.5,1369.8L698.5,1362.0" />
    <path d="M0.0,1417.7L13.2,1404.1L26.5,1399.3L30.8,1401.7L27.2,1414.9L20.4,1428.1L8.9,1441.3L0.0,1455.5" />
    <path d="M593.7,1467.8L595.6,1465.4L599.0,1467.8L595.6,1481.0L598.5,1494.2L582.4,1500.7L571.4,1494.2L573.1,1481.0L582.4,1471.7L593.7,1467.8" />
    <path d="M342.6,1520.7L344.1,1518.8L351.9,1520.7L362.1,1533.9L364.2,1547.1L357.4,1553.3L352.4,1547.1L350.3,1533.9L344.1,1529.0L342.6,1520.7" />
    <path d="M373.1,1573.6L383.8,1568.3L390.7,1573.6L383.8,1576.4L373.1,1573.6" />
    <path d="M8.6,0.0L0.0,19.9" />
    <path d="M238.1,0.0L251.5,6.0L257.8,0.0" />
    <path d="M328.0,0.0L330.9,2.0L344.1,1.9L350.4,0.0" />
    <path d="M525.5,13.2L529.4,8.0L539.5,26.4L529.4,33.4L525.8,26.4L525.5,13.2" />
    <path d="M684.4,0.0L685.0,13.2L688.2,14.7L690.1,13.2L691.2,0.0" />
    <path d="M620.8,26.4L623.2,26.4L626.8,39.7L622.1,43.8L608.8,45.0L595.6,51.6L569.1,57.4L563.8,52.9L559.2,39.7L582.4,30.7L608.8,33.5L620.8,26.4" />
    <path d="M0.0,160.2L6.8,171.9L0.0,184.0" />
    <path d="M341.8,171.9L344.1,169.7L351.4,171.9L344.1,178.1L341.8,171.9" />
    <path d="M693.9,251.2L701.5,245.5L714.9,251.2L709.0,264.5L701.5,269.5L686.1,264.5L693.9,251.2" />
    <path d="M0.0,335.2L4.3,343.8L0.0,354.0" />
    <path d="M354.1,357.0L357.4,353.6L361.8,357.0L362.7,370.2L357.4,372.7L355.3,370.2L354.1,357.0" />
    <path d="M709.5,357.0L714.7,353.7L717.2,357.0L714.7,360.4L709.5,357.0" />
    <path d="M740.6,409.9L754.4,417.6L760.4,423.1L754.4,427.3L740.6,409.9" />
    <path d="M50.3,436.4L52.9,433.5L57.9,436.4L52.9,450.8L51.3,449.6L50.3,436.4" />
    <path d="M336.1,608.3L344.1,599.5L350.4,608.3L344.1,619.2L336.1,608.3" />
    <path d="M196.0,647.9L198.5,645.2L214.2,661.2L185.3,678.6L181.6,674.4L196.0,647.9" />
    <path d="M342.0,661.2L344.1,657.1L347.0,661.2L344.1,666.4L342.0,661.2" />
    <path d="M535.1,700.8L542.6,696.2L548.3,700.8L542.6,705.9L535.1,700.8" />
    <path d="M725.6,766.9L727.9,764.3L741.4,766.9L727.9,771.1L718.0,780.2L713.6,780.2L725.6,766.9" />
    <path d="M704.6,886.0L714.7,873.3L721.9,886.0L714.7,891.2L704.6,886.0" />
    <path d="M427.5,952.1L436.8,946.5L450.0,950.1L463.2,947.2L476.5,948.3L480.4,952.1L476.5,958.0L463.2,963.4L450.0,956.4L441.6,965.3L423.5,999.3L410.3,991.7L423.5,957.0L427.5,952.1" />
    <path d="M523.7,1018.2L529.4,1013.0L538.4,1018.2L542.6,1027.8L542.6,1032.5L529.4,1037.9L520.2,1031.4L523.7,1018.2" />
    <path d="M694.5,1044.6L701.5,1035.9L703.4,1044.6L701.5,1047.8L694.5,1044.6" />
    <path d="M830.7,1269.4L833.8,1263.6L838.4,1269.4L833.8,1277.1L830.7,1269.4" />
    <path d="M392.5,1348.8L397.1,1344.3L409.4,1348.8L397.1,1358.6L392.5,1348.8" />
    <path d="M376.3,1375.2L383.8,1364.2L388.3,1375.2L383.8,1381.2L376.3,1375.2" />
    <path d="M573.6,39.7L582.4,35.1L600.5,39.7L582.4,46.6L573.6,39.7" />
    <path d="M698.1,264.5L701.5,253.2L702.9,264.5L698.1,264.5" />
    <path d="M195.2,661.2L198.5,656.2L203.4,661.2L198.5,664.3L195.2,661.2" />
    <path d="M421.8,978.5L423.5,973.7L426.6,978.5L423.5,986.4L421.8,978.5" />
  </g>
  <g class="contour-index">
    <path d="M900.0,167.1L877.6,198.3L845.3,238.0L840.1,251.2L830.8,264.5L825.2,277.7L822.7,290.9L829.5,317.4L843.3,330.6L860.3,339.1L873.5,352.2L886.8,351.6L900.0,348.2" />
    <path d="M502.9,273.2L496.6,277.7L492.7,290.9L496.5,304.1L502.9,314.7L516.2,325.5L527.8,330.6L553.1,330.6L552.3,343.8L555.9,348.9L562.8,343.8L556.7,330.6L568.3,317.4L559.9,290.9L552.8,277.7L542.6,268.9L529.4,265.4L502.9,273.2" />
    <path d="M158.8,368.2L145.6,370.9L141.5,383.5L142.7,396.7L148.0,409.9L158.8,422.1L172.1,427.2L182.0,436.4L198.5,435.4L200.6,423.1L198.6,409.9L188.6,396.7L185.3,380.4L158.8,368.2" />
    <path d="M595.6,405.5L582.4,412.6L567.5,449.6L567.8,462.8L572.4,476.0L582.4,486.4L595.6,489.8L608.8,484.7L615.7,476.0L618.3,462.8L617.8,449.6L611.1,423.1L595.6,405.5" />
    <path d="M900.0,725.3L886.8,728.6L873.5,720.2L860.3,720.6L855.9,727.3L853.2,740.5L852.8,766.9L850.0,780.2L857.7,806.6L864.1,819.8L889.4,846.3L884.7,859.5L888.6,872.7L877.6,912.4L847.1,941.1L838.1,952.1L832.7,965.3L833.5,991.7L842.2,1005.0L847.1,1007.6L860.3,1007.1L866.8,1005.0L873.5,997.8L878.4,978.5L886.8,960.2L891.3,925.6L900.0,915.1" />
    <path d="M277.9,832.6L264.7,835.1L251.5,845.1L238.2,860.3L209.8,899.2L198.5,928.5L193.0,965.3L193.3,991.7L198.5,1009.3L213.1,1018.2L215.4,1031.4L225.0,1036.6L239.2,1018.2L264.7,993.4L277.9,976.9L291.2,955.6L298.0,938.8L307.2,886.0L308.3,872.7L306.0,859.5L299.1,846.3L291.2,837.6L277.9,832.6" />
    <path d="M900.0,1067.8L886.8,1068.8L884.4,1071.1L872.2,1084.3L869.8,1097.5L873.5,1117.3L878.0,1124.0L886.8,1131.8L900.0,1137.4" />
    <path d="M0.0,1314.8L29.4,1309.1L52.9,1297.6L66.2,1284.0L71.1,1269.4L79.4,1260.8L93.5,1256.2L109.8,1243.0L129.4,1216.5L142.3,1203.3L149.5,1190.1L162.9,1176.9L171.8,1163.6L185.3,1137.2L185.3,1122.6L176.2,1110.7L172.1,1108.6L158.8,1120.2L146.9,1124.0L119.1,1143.6L92.6,1147.1L79.4,1146.0L66.2,1148.9L25.6,1163.6L13.2,1170.6L0.0,1187.8" />
    <path d="M264.9,1600.0L265.3,1586.8L262.6,1573.6L238.2,1510.4L225.0,1490.9L205.7,1481.0L202.6,1467.8L211.8,1447.6L220.7,1414.9L211.8,1409.5L197.1,1414.9L185.3,1427.5L172.1,1446.0L148.3,1467.8L132.4,1474.0L127.4,1481.0L105.9,1491.8L79.4,1509.6L51.8,1520.7L35.6,1533.9L13.1,1560.3L4.8,1600.0" />
    <path d="M147.3,1600.0L147.0,1586.8L150.2,1573.6L158.8,1567.4L171.9,1586.8L172.9,1600.0" />
    <path d="M119.1,49.7L114.9,52.9L111.8,66.1L119.1,67.8L132.7,52.9L119.1,49.7" />
    <path d="M780.9,44.1L768.3,52.9L765.5,66.1L767.3,79.3L741.2,92.1L727.9,103.1L725.1,105.8L722.1,119.0L727.9,120.3L741.2,116.3L767.6,114.0L780.9,119.8L794.1,118.9L805.3,105.8L810.7,92.6L812.9,79.3L811.9,66.1L805.9,52.9L794.1,44.3L780.9,44.1" />
    <path d="M291.2,77.7L277.9,83.1L263.7,92.6L251.5,107.1L241.6,132.2L240.6,145.5L251.5,158.9L264.7,159.3L277.9,153.0L283.5,145.5L286.4,132.2L291.2,125.4L292.3,119.0L304.4,105.8L308.2,92.6L314.7,79.3L304.4,70.3L291.2,77.7" />
    <path d="M900.0,99.0L886.8,119.0L864.4,158.7L860.3,172.1L851.2,185.1L850.6,198.3L833.8,215.2L820.6,223.3L809.6,238.0L796.0,251.2L786.4,277.7L780.9,285.1L767.6,291.9L759.8,304.1L756.1,317.4L768.7,343.8L781.8,383.5L790.2,396.7L813.5,423.1L820.6,427.4L833.8,427.7L847.1,420.4L860.3,428.1L873.5,424.0L900.0,411.7" />
    <path d="M900.0,584.2L886.8,581.6L873.5,561.4L860.3,548.3L820.6,514.2L794.1,497.8L767.6,487.2L754.4,487.3L741.2,496.3L714.7,498.4L705.4,489.3L697.3,476.0L701.5,469.3L709.0,462.8L710.7,449.6L706.5,436.4L675.0,386.1L652.5,357.0L632.9,317.4L619.2,304.1L621.0,277.7L608.8,262.8L596.1,251.2L608.8,245.6L622.2,224.8L643.2,171.9L661.8,150.7L670.6,145.5L675.0,138.7L685.5,132.2L675.0,125.6L648.5,123.4L635.3,127.4L622.1,135.4L608.8,151.8L582.4,158.1L569.1,157.3L555.9,166.0L552.9,171.9L542.6,179.1L529.4,179.0L509.2,185.1L489.7,203.0L476.5,204.7L463.2,214.8L452.3,211.6L450.0,205.6L448.8,211.6L441.8,224.8L423.5,250.2L410.3,250.5L397.1,247.3L383.8,250.0L370.6,258.5L365.7,264.5L365.1,277.7L373.2,290.9L385.0,304.1L397.1,322.1L438.1,370.2L463.2,410.1L473.6,423.1L489.7,435.6L502.9,422.4L516.9,436.4L504.0,449.6L500.3,462.8L500.1,476.0L505.8,489.3L526.8,502.5L523.1,515.7L502.9,554.3L476.5,554.2L454.0,568.6L458.5,581.8L476.5,589.2L490.6,581.8L499.0,568.6L502.9,556.5L516.2,556.7L529.4,568.1L542.6,561.4L555.9,548.0L569.1,550.8L595.6,576.8L608.8,582.6L635.3,583.3L661.8,572.1L683.7,555.4L686.9,542.1L681.6,528.9L688.2,512.7L694.5,515.7L701.5,529.4L706.3,542.1L703.9,555.4L714.7,582.2L727.9,598.5L746.7,608.3L754.4,626.1L767.6,636.6L775.2,647.9L769.6,661.2L779.1,687.6L787.9,700.8L787.7,727.3L790.2,740.5L787.7,766.9L780.1,780.2L777.4,793.4L770.3,859.5L774.1,886.0L773.9,899.2L790.4,925.6L763.2,952.1L755.8,965.3L757.4,978.5L764.1,991.7L785.3,1018.2L789.1,1031.4L776.6,1044.6L771.3,1057.9L787.4,1084.3L799.1,1097.5L807.4,1121.5L800.7,1163.6L801.1,1176.9L807.2,1190.1L820.6,1196.7L847.1,1188.7L854.1,1203.3L900.0,1224.3" />
    <path d="M436.8,193.3L434.0,198.3L436.8,199.7L443.3,198.3L436.8,193.3" />
    <path d="M92.6,208.0L86.1,211.6L75.6,224.8L76.0,238.0L84.6,251.2L79.4,270.5L66.2,279.9L52.9,282.4L46.6,277.7L39.7,275.9L38.1,277.7L39.0,290.9L48.4,304.1L47.7,317.4L52.9,333.0L66.2,338.3L79.4,334.3L83.3,343.8L90.6,370.2L87.2,396.7L91.9,409.9L96.7,436.4L101.7,449.6L119.1,471.9L132.4,482.7L145.6,487.1L158.8,487.4L185.3,497.8L198.5,505.4L205.0,515.7L204.9,528.9L211.8,542.2L238.2,531.9L251.5,541.6L264.7,546.1L277.9,558.2L291.2,560.7L304.4,558.8L308.8,555.4L312.6,542.1L309.9,528.9L302.2,515.7L304.4,511.4L317.6,519.6L320.8,502.5L335.2,476.0L339.0,462.8L307.6,396.7L295.8,383.5L264.7,367.6L251.5,357.4L234.2,330.6L232.7,317.4L225.2,304.1L224.9,277.7L200.7,251.2L198.5,236.2L189.9,224.8L185.3,221.6L172.1,221.4L158.8,210.9L145.6,204.0L132.4,202.6L92.6,208.0" />
    <path d="M0.0,496.4L9.9,489.3L10.8,476.0L0.0,462.2" />
    <path d="M0.0,635.1L26.5,649.3L39.7,650.4L53.6,647.9L60.2,634.7L73.5,621.5L79.4,617.4L92.6,616.4L100.6,608.3L101.9,595.0L98.9,581.8L103.0,568.6L104.0,555.4L92.6,533.4L79.4,520.4L66.2,513.5L52.9,512.5L13.2,523.1L0.0,518.7" />
    <path d="M97.3,621.5L105.9,613.1L132.4,620.9L137.9,647.9L135.9,661.2L119.1,692.5L98.8,714.0L92.6,724.1L79.4,727.7L66.2,703.4L60.0,674.4L60.6,661.2L70.1,647.9L89.7,634.7L97.3,621.5" />
    <path d="M0.0,1352.7L26.5,1358.2L52.9,1356.0L66.2,1349.1L79.4,1338.8L95.3,1322.3L105.9,1300.0L109.7,1282.6L119.1,1271.7L161.3,1243.0L173.6,1229.8L182.0,1216.5L185.8,1203.3L211.1,1176.9L225.0,1156.8L239.6,1150.4L253.2,1137.2L251.5,1123.6L264.7,1130.0L277.9,1130.4L291.2,1113.4L297.5,1097.5L297.2,1084.3L291.2,1077.3L277.9,1076.7L264.7,1081.6L261.9,1071.1L272.7,1057.9L282.8,1031.4L301.8,1018.2L312.0,1005.0L326.5,991.7L344.1,982.6L347.7,978.5L352.3,965.3L350.2,952.1L344.3,938.8L341.8,925.6L344.1,922.3L364.6,912.4L378.0,899.2L382.0,886.0L376.1,872.7L370.6,866.1L345.1,859.5L347.0,846.3L353.8,833.1L354.0,819.8L351.7,806.6L344.1,790.1L327.1,780.2L315.6,766.9L304.4,758.5L294.3,753.7L277.9,751.5L251.5,754.8L238.2,769.4L225.0,790.9L222.4,806.6L211.8,825.4L201.9,833.1L198.5,839.1L182.6,872.7L180.2,886.0L169.0,899.2L155.4,925.6L144.0,938.8L138.7,965.3L142.0,1005.0L119.1,1026.7L79.4,1073.1L52.9,1091.6L26.5,1105.2L0.0,1115.5" />
    <path d="M555.9,779.8L548.2,793.4L549.6,833.1L555.9,861.9L569.1,885.2L582.4,897.0L589.4,912.4L608.8,937.7L622.1,938.1L635.3,927.3L643.7,912.4L642.3,886.0L645.3,872.7L644.8,859.5L639.2,846.3L630.4,833.1L632.7,819.8L630.2,806.6L635.3,798.6L642.1,793.4L638.3,780.2L582.4,769.0L569.1,771.2L555.9,779.8" />
    <path d="M0.0,995.9L19.9,991.7L26.5,987.3L35.4,978.5L40.5,965.3L39.7,951.7L31.9,938.8L26.5,934.1L13.2,930.5L0.0,932.3" />
    <path d="M311.3,1600.0L313.5,1586.8L311.5,1573.6L305.3,1560.3L304.4,1526.1L298.7,1494.2L291.0,1467.8L280.5,1454.5L264.7,1448.5L260.9,1441.3L282.0,1414.9L295.0,1388.4L308.3,1375.2L337.3,1335.5L343.8,1322.3L344.8,1309.1L370.6,1275.3L397.1,1268.0L407.9,1256.2L410.3,1250.9L423.5,1244.3L436.8,1248.2L444.1,1256.2L450.0,1274.2L463.2,1283.3L476.5,1284.7L482.5,1282.6L489.7,1279.0L497.1,1269.4L500.4,1256.2L498.8,1243.0L490.3,1216.5L479.6,1203.3L476.5,1170.7L473.8,1163.6L460.7,1150.4L450.0,1119.8L436.8,1106.0L423.5,1109.6L410.3,1100.7L397.1,1105.2L387.8,1110.7L370.6,1124.5L342.8,1163.6L354.0,1176.9L362.7,1203.3L362.5,1216.5L375.3,1229.8L370.6,1233.1L357.4,1222.4L344.1,1235.2L330.9,1244.5L304.4,1237.6L291.2,1238.8L264.7,1252.0L251.5,1262.4L236.3,1269.4L225.0,1277.4L217.1,1295.9L216.9,1309.1L211.8,1323.3L185.3,1328.6L158.8,1350.2L145.6,1351.1L132.4,1358.5L114.8,1375.2L107.5,1388.4L105.1,1401.7L95.4,1414.9L91.3,1428.1L93.8,1441.3L85.6,1454.5L83.9,1467.8L79.4,1473.1L66.2,1476.5L52.9,1476.6L46.6,1481.0L39.7,1491.0L26.5,1494.1L13.2,1504.1L0.0,1506.6" />
    <path d="M595.6,1103.6L583.5,1110.7L581.8,1124.0L585.1,1137.2L591.5,1150.4L622.1,1183.7L635.3,1189.8L648.5,1186.8L662.9,1163.6L667.0,1150.4L668.2,1137.2L661.8,1127.5L648.5,1118.9L640.2,1110.7L635.3,1108.5L622.1,1107.3L608.8,1101.0L595.6,1103.6" />
    <path d="M389.0,1216.5L397.1,1209.7L410.3,1212.7L411.5,1216.5L410.3,1219.1L397.1,1222.6L389.0,1216.5" />
    <path d="M341.9,1269.4L345.3,1269.4L341.9,1282.6L330.9,1290.9L317.6,1286.4L315.4,1282.6L317.6,1278.3L341.9,1269.4" />
    <path d="M635.3,1324.0L628.5,1335.5L632.9,1362.0L616.5,1388.4L622.1,1397.0L635.3,1397.9L648.5,1390.4L655.6,1375.2L653.7,1362.0L648.5,1351.5L644.1,1348.8L649.4,1335.5L648.5,1333.2L635.3,1324.0" />
    <path d="M807.4,1361.2L794.1,1373.0L754.4,1436.0L739.1,1467.8L740.8,1481.0L735.2,1494.2L725.9,1507.4L727.9,1513.8L741.2,1513.0L753.4,1507.4L750.9,1494.2L754.4,1492.2L761.5,1481.0L797.5,1467.8L803.0,1454.5L813.6,1441.3L817.9,1428.1L818.6,1414.9L829.5,1401.7L831.8,1388.4L820.6,1366.7L807.4,1361.2" />
    <path d="M423.5,1421.5L410.3,1428.3L397.1,1443.2L391.5,1454.5L388.3,1467.8L391.2,1481.0L410.3,1495.2L436.8,1522.0L463.2,1531.3L476.5,1539.1L489.7,1535.4L502.9,1518.7L513.0,1494.2L510.9,1481.0L502.9,1463.9L486.8,1441.3L476.5,1431.1L463.2,1422.1L450.0,1416.7L436.8,1417.2L423.5,1421.5" />
    <path d="M820.9,1600.0L828.4,1573.6L833.8,1565.0L859.1,1494.2L857.0,1481.0L848.0,1467.8L833.8,1464.0L818.8,1467.8L807.4,1481.0L807.1,1494.2L780.9,1501.4L768.7,1507.4L756.5,1520.7L751.5,1533.9L734.8,1547.1L726.8,1560.3L714.7,1573.1L688.2,1587.8L661.8,1577.5L660.7,1573.6L650.0,1560.3L635.3,1553.1L595.6,1548.0L569.1,1548.3L542.6,1565.2L529.4,1569.8L526.4,1573.6L522.6,1586.8L523.0,1600.0" />
    <path d="M45.6,0.0L24.5,13.2L22.6,26.4L23.6,39.7L18.5,52.9L18.3,66.1L25.4,79.3L25.0,105.8L27.6,119.0L18.5,132.2L26.5,147.9L52.9,164.3L74.2,171.9L66.2,174.1L52.9,182.1L46.2,198.3L43.4,224.8L38.9,238.0L26.5,244.2L13.2,243.4L0.0,232.5" />
    <path d="M146.7,0.0L176.8,26.4L158.8,58.3L146.0,92.6L132.4,108.1L119.1,112.1L112.1,119.0L111.3,132.2L105.9,145.2L95.6,158.7L105.9,167.7L132.4,178.8L145.6,180.3L172.1,193.3L188.8,185.1L192.1,171.9L183.5,145.5L186.2,132.2L198.5,123.7L211.8,109.2L214.3,105.8L213.7,92.6L238.2,58.8L251.5,46.5L277.9,43.8L291.2,48.3L304.4,43.0L344.1,40.9L357.4,36.7L383.8,33.8L390.0,39.7L394.1,52.9L386.6,66.1L360.1,79.3L361.0,92.6L357.4,101.3L342.8,105.8L330.9,112.9L325.9,119.0L321.9,132.2L312.2,145.5L317.9,171.9L317.6,185.1L304.0,211.6L317.6,208.1L340.2,211.6L344.1,213.2L357.4,228.8L370.6,223.7L383.8,215.2L385.7,211.6L383.1,185.1L395.2,158.7L382.0,145.5L391.4,119.0L402.5,105.8L408.8,92.6L436.8,66.4L450.0,57.8L476.5,53.5L489.7,49.1L502.9,58.4L529.4,70.4L569.1,97.0L582.4,114.2L608.8,114.6L622.1,98.4L635.3,94.5L648.5,98.3L672.3,92.6L699.3,79.3L714.7,59.6L727.9,59.3L735.9,52.9L744.2,39.7L738.5,26.4L741.0,13.2L757.0,0.0" />
    <path d="M817.9,0.0L833.8,23.9L847.1,50.7L858.9,66.1L860.3,70.8L861.2,66.1L873.5,57.6L886.8,56.6L900.0,59.6" />
    <path d="M879.2,0.0L884.3,13.2L900.0,27.2" />
    <path d="M675.0,48.8L668.2,52.9L671.9,66.1L688.2,68.3L690.4,66.1L691.4,52.9L688.2,45.2L675.0,48.8" />
    <path d="M846.3,92.6L847.1,85.0L853.4,92.6L847.1,96.0L846.3,92.6" />
    <path d="M812.2,145.5L820.6,139.2L828.6,145.5L813.0,171.9L807.7,185.1L807.4,198.3L794.5,224.8L780.9,236.8L773.1,251.2L754.4,272.3L741.2,279.9L727.9,282.6L714.7,290.8L710.1,304.1L713.1,317.4L725.2,330.6L742.2,343.8L747.7,370.2L761.8,396.7L780.7,423.1L786.2,436.4L787.5,449.6L780.9,454.0L767.6,451.5L741.2,456.4L737.7,449.6L735.3,436.4L727.9,422.2L717.9,409.9L712.3,396.7L703.1,383.5L688.2,372.2L661.8,342.0L639.9,304.1L647.8,290.9L651.5,277.7L649.3,264.5L636.3,238.0L643.9,224.8L661.8,179.5L675.0,173.8L687.7,171.9L695.3,158.7L707.0,158.7L714.7,167.8L727.9,162.5L729.2,158.7L741.2,150.9L780.9,158.6L794.1,149.5L812.2,145.5" />
    <path d="M701.5,177.3L688.4,185.1L696.2,198.3L714.7,212.0L727.9,208.3L736.5,198.3L738.2,185.1L727.9,175.8L714.7,173.7L701.5,177.3" />
    <path d="M277.8,251.2L291.2,256.3L304.4,278.6L317.6,285.6L330.9,285.7L339.3,290.9L341.5,304.1L357.4,306.3L370.6,321.7L374.1,330.6L383.3,343.8L397.1,375.5L410.6,396.7L397.1,389.8L383.8,390.9L370.6,399.4L354.7,423.1L360.5,436.4L357.4,439.6L344.1,429.8L340.2,423.1L344.1,416.0L351.3,409.9L337.5,396.7L328.8,383.5L304.4,360.2L277.9,357.9L264.7,349.3L259.6,343.8L262.7,317.4L253.3,304.1L253.3,290.9L261.3,277.7L264.7,264.0L277.8,251.2" />
    <path d="M0.0,306.2L22.1,330.6L27.4,357.0L39.7,375.3L66.4,409.9L79.4,421.1L77.7,449.6L81.6,476.0L79.4,479.0L66.2,481.9L62.9,489.3L52.9,493.9L39.7,494.1L34.9,476.0L26.5,455.2L13.2,442.7L0.0,435.6" />
    <path d="M900.0,512.9L885.4,515.7L879.7,542.1L873.5,544.7L855.6,528.9L814.3,476.0L821.6,462.8L833.8,455.9L847.1,454.6L860.3,458.5L873.5,452.9L886.8,437.3L900.0,433.6" />
    <path d="M436.3,462.8L436.8,456.0L439.8,489.3L436.8,497.3L435.1,489.3L436.3,462.8" />
    <path d="M457.3,502.5L463.2,499.0L476.5,499.9L480.0,502.5L476.5,505.5L457.3,502.5" />
    <path d="M118.5,515.7L132.4,510.3L158.8,509.5L172.1,511.6L176.7,515.7L174.8,542.1L177.2,555.4L185.3,573.1L206.1,595.0L225.0,622.7L256.4,647.9L264.7,661.5L277.9,663.1L278.5,634.7L254.5,608.3L264.7,588.4L277.9,609.5L291.2,609.3L310.1,595.0L317.6,591.6L335.3,568.6L346.4,542.1L357.4,530.6L370.6,529.6L383.8,532.1L410.3,532.1L413.7,542.1L399.4,568.6L396.0,581.8L397.1,585.6L410.3,598.8L418.5,621.5L413.0,634.7L410.3,636.2L397.1,630.7L383.8,637.1L378.4,647.9L371.2,687.6L371.6,700.8L376.2,714.0L383.8,717.8L391.7,727.3L384.2,740.5L389.1,753.7L397.1,758.5L410.3,753.8L435.2,727.3L450.0,721.0L463.0,740.5L467.4,753.7L476.5,764.2L489.7,764.8L511.9,753.7L510.6,740.5L512.3,727.3L508.8,714.0L500.5,700.8L485.8,687.6L484.9,674.4L488.6,661.2L489.7,659.2L502.9,655.5L516.2,662.0L542.6,667.0L555.9,663.5L569.1,655.4L574.1,661.2L569.1,674.4L587.0,700.8L595.6,710.3L605.1,714.0L599.1,727.3L582.4,743.4L569.1,744.8L555.9,740.1L529.4,746.2L516.2,755.2L496.8,780.2L491.0,793.4L492.0,806.6L501.6,819.8L516.2,825.3L526.7,833.1L523.1,846.3L524.8,859.5L523.8,872.7L531.0,886.0L532.2,899.2L555.9,907.4L559.6,912.4L561.2,938.8L569.1,947.3L582.4,956.5L585.7,965.3L597.3,978.5L599.4,991.7L621.5,1018.2L635.3,1014.3L640.4,1018.2L634.9,1031.4L637.8,1044.6L644.0,1057.9L643.5,1071.1L635.3,1079.3L622.1,1075.9L608.8,1064.2L595.6,1057.0L591.1,1057.9L582.4,1060.1L555.9,1072.8L548.1,1084.3L542.6,1111.8L529.4,1121.6L516.2,1114.5L502.9,1117.6L489.7,1115.9L476.5,1107.4L464.6,1084.3L476.5,1072.7L489.7,1046.4L492.4,1018.2L484.8,1005.0L476.5,998.9L463.2,996.7L449.1,1005.0L440.8,1031.4L434.3,1044.6L423.5,1058.8L397.1,1074.8L344.1,1092.2L335.0,1071.1L318.0,1057.9L307.5,1044.6L330.9,1020.2L344.1,1012.0L357.4,1016.6L370.6,1015.5L380.6,1005.0L387.6,991.7L391.5,978.5L392.3,965.3L386.0,952.1L374.5,938.8L383.8,925.9L397.1,930.1L399.6,925.6L395.4,912.4L408.3,899.2L415.9,886.0L410.3,858.9L403.5,846.3L388.7,833.1L385.2,819.8L387.8,793.4L383.8,773.4L380.9,766.9L370.6,755.5L357.4,757.0L350.4,753.7L344.1,745.6L317.6,730.1L304.4,726.6L291.2,729.6L279.8,727.3L277.9,710.8L225.0,690.3L211.8,696.5L197.9,714.0L196.9,727.3L208.8,753.7L210.2,766.9L198.5,779.0L185.3,779.3L172.1,787.0L158.8,790.3L145.6,789.0L136.4,780.2L143.5,727.3L143.1,700.8L146.3,687.6L170.0,647.9L176.1,621.5L176.3,608.3L158.8,600.3L152.6,595.0L145.6,583.4L132.4,586.3L128.7,581.8L134.0,568.6L133.9,555.4L132.4,547.4L122.6,528.9L118.5,515.7" />
    <path d="M502.8,608.3L506.3,621.5L502.9,623.1L501.0,621.5L502.8,608.3" />
    <path d="M526.0,634.7L529.4,631.2L555.9,630.6L561.7,634.7L555.9,640.9L529.4,637.0L526.0,634.7" />
    <path d="M657.3,647.9L661.8,644.4L688.2,651.7L701.5,653.1L714.7,651.6L723.0,647.9L727.9,642.7L747.7,674.4L760.1,687.6L765.6,700.8L766.1,727.3L771.4,740.5L772.8,753.7L769.6,766.9L757.1,780.2L749.7,793.4L739.7,833.1L737.8,846.3L739.7,859.5L752.1,886.0L753.4,925.6L741.2,932.9L727.9,930.9L714.7,925.1L701.5,931.0L677.0,899.2L674.0,886.0L668.2,872.7L667.9,846.3L661.8,832.4L688.2,834.5L706.3,833.1L703.3,819.8L688.2,815.0L681.5,806.6L683.9,793.4L676.4,766.9L681.9,753.7L702.5,740.5L700.3,727.3L688.2,720.4L660.8,714.0L660.9,700.8L652.6,687.6L660.1,661.2L657.3,647.9" />
    <path d="M0.0,661.1L13.2,669.7L25.2,674.4L28.5,687.6L28.9,700.8L28.5,714.0L25.1,727.3L13.2,749.8L0.0,746.0" />
    <path d="M289.5,674.4L304.4,666.4L313.0,674.4L307.6,687.6L304.4,690.1L291.2,691.0L287.3,687.6L289.5,674.4" />
    <path d="M0.0,807.1L12.2,819.8L16.2,833.1L28.3,859.5L28.4,886.0L31.3,899.2L26.5,903.8L13.2,903.3L0.0,893.4" />
    <path d="M0.0,1016.7L13.2,1016.7L26.5,1019.4L39.7,1009.3L54.7,1005.0L66.2,992.8L71.3,978.5L68.5,952.1L58.8,925.6L116.5,859.5L119.1,853.5L122.4,859.5L132.4,863.6L158.8,859.5L158.8,852.1L158.8,859.5L163.1,872.7L158.9,886.0L145.6,909.3L132.4,919.9L118.8,938.8L114.4,952.1L115.2,978.5L120.8,991.7L117.8,1005.0L79.4,1042.7L41.0,1071.1L0.0,1081.9" />
    <path d="M489.7,884.3L480.4,899.2L489.7,907.4L516.2,908.1L527.1,899.2L525.0,886.0L516.2,880.3L489.7,884.3" />
    <path d="M757.8,925.6L768.5,925.6L757.8,925.6" />
    <path d="M900.0,1323.3L882.0,1348.8L873.5,1357.4L860.3,1355.3L853.2,1348.8L847.1,1332.8L815.1,1309.1L807.4,1292.0L794.1,1281.7L780.9,1277.4L767.6,1282.2L764.9,1295.9L757.5,1309.1L750.6,1335.5L748.6,1362.0L740.5,1375.2L730.2,1401.7L704.5,1454.5L688.2,1470.3L670.5,1454.5L661.8,1450.8L648.5,1452.2L635.3,1460.3L630.8,1467.8L628.9,1481.0L632.2,1494.2L622.1,1503.4L582.4,1517.2L555.5,1520.7L552.3,1507.4L553.8,1481.0L545.4,1454.5L529.4,1436.6L480.0,1401.7L470.3,1388.4L463.2,1384.8L436.8,1383.1L410.3,1389.9L383.8,1407.8L357.4,1437.9L351.1,1441.3L344.1,1456.0L327.6,1441.3L324.4,1428.1L310.3,1414.9L312.2,1401.7L317.6,1392.9L337.9,1375.2L348.9,1348.8L365.6,1335.5L371.8,1322.3L394.9,1295.9L423.5,1278.9L432.2,1295.9L453.4,1309.1L456.4,1322.3L463.2,1328.0L476.5,1335.4L489.7,1339.4L502.9,1338.3L529.4,1364.0L555.9,1386.3L561.0,1388.4L569.1,1397.5L577.1,1414.9L589.6,1428.1L595.6,1430.8L608.8,1431.7L622.1,1428.9L635.3,1422.6L661.8,1414.4L679.0,1401.7L686.1,1388.4L688.2,1375.2L685.6,1362.0L696.3,1335.5L694.7,1322.3L688.2,1307.6L674.8,1295.9L661.8,1291.2L652.4,1282.6L654.8,1269.4L651.0,1256.2L637.9,1243.0L661.8,1227.5L674.1,1216.5L681.7,1190.1L688.2,1181.4L710.9,1163.6L715.9,1150.4L714.4,1137.2L717.5,1124.0L702.7,1097.5L675.0,1099.1L666.5,1084.3L663.9,1071.1L668.7,1057.9L667.0,1044.6L662.1,1031.4L665.1,1018.2L669.0,1005.0L684.7,978.5L688.2,966.9L698.4,978.5L741.2,988.8L750.7,1005.0L741.2,1013.5L730.5,1018.2L723.8,1031.4L724.9,1044.6L732.3,1057.9L728.4,1084.3L734.1,1097.5L750.8,1110.7L778.3,1124.0L782.8,1137.2L780.7,1150.4L767.0,1163.6L763.8,1176.9L762.7,1190.1L755.8,1216.5L758.4,1243.0L767.6,1252.5L780.9,1258.5L794.1,1253.6L802.7,1243.0L807.4,1240.3L814.1,1229.8L820.6,1225.9L833.8,1225.5L847.1,1229.8L849.6,1243.0L873.5,1265.9L886.8,1275.7L900.0,1278.8" />
    <path d="M505.9,1176.9L516.2,1170.4L529.4,1169.6L555.9,1182.8L557.3,1190.1L569.2,1203.3L557.4,1256.2L569.1,1268.7L582.4,1272.5L592.7,1282.6L599.9,1295.9L610.5,1309.1L608.8,1310.9L595.6,1310.4L582.4,1298.0L570.4,1282.6L567.2,1269.4L555.9,1259.7L542.6,1259.3L531.1,1256.2L526.6,1229.8L529.2,1216.5L496.3,1190.1L505.9,1176.9" />
    <path d="M241.1,1190.1L251.5,1180.9L264.7,1181.3L277.2,1190.1L273.1,1203.3L225.0,1235.7L205.6,1256.2L198.7,1269.4L196.2,1282.6L199.6,1295.9L198.5,1298.2L185.3,1301.3L175.3,1309.1L145.6,1325.8L132.4,1328.4L124.7,1322.3L123.8,1309.1L127.5,1282.6L158.8,1262.8L172.1,1256.3L187.1,1256.2L206.7,1243.0L229.9,1216.5L241.1,1190.1" />
    <path d="M754.4,1251.9L747.4,1256.2L754.4,1266.8L759.0,1256.2L754.4,1251.9" />
    <path d="M741.2,1262.7L736.7,1269.4L741.2,1274.0L751.7,1269.4L741.2,1262.7" />
    <path d="M727.9,1280.8L727.9,1299.4L737.1,1295.9L727.9,1280.8" />
    <path d="M0.0,1382.8L13.2,1388.1L39.7,1385.3L49.1,1388.4L50.6,1401.7L25.0,1454.5L0.0,1473.7" />
    <path d="M836.5,1600.0L843.4,1586.8L843.5,1573.6L847.1,1564.9L853.1,1560.3L860.3,1545.5L873.5,1533.8L890.8,1507.4L898.6,1494.2L900.0,1479.9" />
    <path d="M397.9,1600.0L383.8,1588.9L370.6,1587.2L344.1,1599.1L336.3,1586.8L334.9,1560.3L328.8,1547.1L326.5,1533.9L331.8,1520.7L344.1,1500.5L357.4,1502.5L370.6,1501.9L379.4,1507.4L383.8,1517.2L397.1,1527.2L410.3,1524.4L423.5,1532.8L436.8,1549.1L465.0,1573.6L469.9,1586.8L466.8,1600.0" />
    <path d="M11.7,0.0L1.7,26.4L3.1,39.7L0.0,46.4" />
    <path d="M266.3,0.0L270.4,13.2L264.7,16.8L238.2,9.5L231.4,13.2L225.0,20.1L211.8,25.1L206.0,13.2L211.8,9.1L225.0,9.2L231.0,0.0" />
    <path d="M318.4,0.0L330.9,8.4L357.4,5.9L364.2,0.0" />
    <path d="M505.0,0.0L516.2,13.5L527.4,39.7L542.6,46.6L555.9,49.0L569.1,62.5L582.4,66.1L595.6,63.5L608.8,52.9L622.1,49.1L632.9,39.7L637.0,26.4L635.3,21.1L622.1,13.7L608.8,24.7L595.6,27.5L582.4,26.4L569.1,31.0L555.9,31.7L542.6,18.8L531.8,0.0" />
    <path d="M668.6,0.0L675.0,13.5L688.2,19.5L696.2,13.2L702.0,0.0" />
    <path d="M168.7,92.6L172.1,85.5L182.9,92.6L186.3,105.8L182.4,105.8L172.1,99.0L168.7,92.6" />
    <path d="M131.0,145.5L145.6,138.3L154.1,145.5L145.6,155.8L132.4,149.9L131.0,145.5" />
    <path d="M0.0,154.0L4.5,158.7L17.6,185.1L16.2,198.3L26.5,206.4L28.6,211.6L26.5,215.4L13.2,200.6L0.0,204.3" />
    <path d="M336.4,171.9L344.1,164.5L357.4,168.7L361.6,171.9L359.3,198.3L355.9,198.3L341.4,185.1L336.4,171.9" />
    <path d="M765.5,185.1L767.6,181.5L780.9,177.0L784.9,185.1L780.9,191.3L767.6,191.0L765.5,185.1" />
    <path d="M714.4,238.0L724.7,251.2L715.3,264.5L701.5,273.6L688.2,271.2L679.0,264.5L680.9,251.2L688.2,248.9L701.5,239.6L714.4,238.0" />
    <path d="M0.0,329.3L7.7,343.8L3.8,357.0L0.0,361.6" />
    <path d="M324.3,330.6L330.9,328.4L346.9,330.6L353.0,343.8L370.5,357.0L373.6,370.2L357.4,380.6L348.8,370.2L347.6,357.0L344.1,352.2L330.9,347.5L326.4,343.8L324.3,330.6" />
    <path d="M700.2,357.0L701.5,350.8L714.7,347.3L721.9,357.0L714.7,366.8L700.2,357.0" />
    <path d="M736.4,409.9L741.2,402.2L754.4,411.1L767.4,423.1L754.4,432.2L743.9,423.1L736.4,409.9" />
    <path d="M46.0,436.4L52.9,428.8L66.0,436.4L60.9,449.6L52.9,455.9L44.1,449.6L46.0,436.4" />
    <path d="M846.0,489.3L847.1,486.4L861.9,489.3L860.3,493.7L847.1,492.0L846.0,489.3" />
    <path d="M343.6,581.8L357.4,579.0L361.7,581.8L362.3,595.0L344.1,634.7L330.9,626.7L327.9,621.5L329.4,608.3L341.5,595.0L343.6,581.8" />
    <path d="M197.7,634.7L198.5,633.1L201.6,634.7L211.8,642.6L214.2,647.9L226.8,661.2L172.1,692.0L170.0,687.6L181.7,661.2L185.1,647.9L197.7,634.7" />
    <path d="M343.9,647.9L344.1,634.8L344.4,647.9L353.8,661.2L347.4,674.4L344.1,698.2L339.8,687.6L341.7,674.4L337.1,661.2L343.9,647.9" />
    <path d="M693.1,687.6L701.5,681.4L709.1,687.6L701.5,694.7L693.1,687.6" />
    <path d="M0.0,687.6L7.3,700.8L3.6,714.0L0.0,717.2" />
    <path d="M527.8,700.8L529.4,697.0L542.6,691.5L553.9,700.8L542.6,710.9L527.8,700.8" />
    <path d="M166.3,740.5L172.1,734.2L175.8,740.5L172.1,755.1L169.1,753.7L166.3,740.5" />
    <path d="M725.8,753.7L727.9,746.8L741.2,755.1L749.3,766.9L741.2,778.6L727.9,786.8L714.7,787.7L705.3,780.2L713.2,766.9L725.8,753.7" />
    <path d="M409.9,780.2L412.3,780.2L427.8,793.4L422.3,819.8L410.3,826.5L406.6,819.8L409.9,780.2" />
    <path d="M435.0,872.7L436.8,861.4L439.1,872.7L436.8,874.5L435.0,872.7" />
    <path d="M692.9,872.7L701.5,863.8L714.7,863.9L731.4,886.0L727.9,894.0L714.7,900.7L694.2,886.0L692.9,872.7" />
    <path d="M93.5,925.6L105.9,918.1L107.0,925.6L92.6,940.9L90.8,938.8L93.5,925.6" />
    <path d="M423.0,925.6L436.8,937.2L450.0,943.9L476.5,941.6L487.3,952.1L476.5,970.3L450.0,968.1L431.4,991.7L423.5,1010.5L410.3,998.9L406.8,991.7L416.4,965.3L418.0,952.1L423.5,939.6L425.7,938.8L423.5,935.4L423.0,925.6" />
    <path d="M89.5,965.3L92.6,960.9L95.3,965.3L92.6,970.7L89.5,965.3" />
    <path d="M552.8,991.7L555.9,989.3L572.3,991.7L566.3,1005.0L548.1,1018.2L548.0,1031.4L542.6,1040.9L529.4,1045.5L516.2,1053.3L510.9,1044.6L512.1,1031.4L516.2,1018.2L529.4,1006.3L552.8,991.7" />
    <path d="M64.9,1018.2L79.4,1016.5L80.3,1018.2L73.2,1031.4L66.2,1035.2L52.9,1033.7L51.1,1031.4L64.9,1018.2" />
    <path d="M683.7,1031.4L688.2,1024.2L701.5,1025.3L706.8,1044.6L701.5,1053.7L688.2,1048.7L683.7,1031.4" />
    <path d="M355.0,1057.9L357.4,1050.5L359.7,1057.9L355.0,1057.9" />
    <path d="M699.0,1203.3L701.5,1199.1L706.3,1203.3L701.5,1208.7L699.0,1203.3" />
    <path d="M695.1,1243.0L701.5,1239.4L704.2,1243.0L701.5,1260.1L690.7,1256.2L695.1,1243.0" />
    <path d="M831.1,1256.2L833.8,1254.9L845.7,1269.4L841.8,1282.6L833.8,1286.8L825.7,1269.4L831.1,1256.2" />
    <path d="M169.5,1282.6L172.1,1279.3L174.6,1282.6L160.2,1295.9L157.5,1295.9L169.5,1282.6" />
    <path d="M386.9,1348.8L397.1,1339.0L423.5,1341.9L445.6,1348.8L418.9,1362.0L397.1,1367.4L383.8,1387.0L370.6,1380.9L363.0,1388.4L370.6,1397.0L370.6,1402.4L357.4,1391.9L346.4,1401.7L342.4,1401.7L369.3,1375.2L375.8,1362.0L386.9,1348.8" />
    <path d="M496.0,1375.2L502.9,1363.3L516.2,1371.2L535.0,1388.4L545.8,1401.7L542.6,1404.8L535.0,1401.7L529.4,1396.4L516.2,1395.8L496.0,1375.2" />
    <path d="M0.0,1432.7L8.4,1414.9L13.2,1410.4L19.3,1414.9L15.5,1428.1L0.0,1443.1" />
    <path d="M578.0,1481.0L582.4,1476.6L588.6,1481.0L586.8,1494.2L582.4,1495.8L579.7,1494.2L578.0,1481.0" />
  </g>
  <g class="contour-label">
    <text x="213.1" y="1442.9" transform="rotate(-74.8 213.1 1442.9)">330</text>
    <text x="482.6" y="586.0" transform="rotate(-27.6 482.6 586.0)">600</text>
    <text x="608.0" y="1002.0" transform="rotate(50.2 608.0 1002.0)">860</text>
    <text x="600.4" y="59.6" transform="rotate(-38.7 600.4 59.6)">1130</text>
  </g>
</svg>
